<svg xmlns="http://www.w3.org/2000/svg" width="34.156" height="30.51" viewBox="0 0 22.156 23.51"><defs><style>.a{fill:#eae7f2;}.b{fill:#f2efdf;}.c{fill:#4a154b;}</style></defs><g transform="translate(-15.015 -19.803)"><g transform="translate(15.015 19.803)"><g transform="translate(0.022 0.022)"><path class="a" d="M249.775,74.622a.223.223,0,0,0-.072.148v.31s.108.176.12.2.1.123.15.123.213-.007.288,0,.258.026.3-.045.157-.1.238-.124a.3.3,0,0,0,.116-.063.4.4,0,0,0,.059-.141c.018-.044.065-.073.082-.118a.29.29,0,0,0,.005-.112c0-.045,0-.171-.041-.2s-.042-.116-.1-.131a.524.524,0,0,0-.247.037c-.093.041-.079.054-.135.058s-.37.006-.37.006-.146-.086-.22-.06A.481.481,0,0,0,249.775,74.622Z" transform="translate(-236.687 -71.449)"/><path class="a" d="M255.513,65.953c-.03.014-.1.026-.074.095a.118.118,0,0,0,.136.058C255.645,66.07,255.6,65.912,255.513,65.953Z" transform="translate(-242.099 -63.405)"/><path class="a" d="M261.107,71.345s.067-.1.1-.1.045.026.1.05.026.1,0,.1-.194.025-.194.025S261.058,71.411,261.107,71.345Z" transform="translate(-247.437 -68.409)"/><path class="a" d="M250.577,68.661c-.014-.02-.069-.029-.077.008s-.007.049-.03.071-.078.064-.12.022.022-.138.064-.138.082-.086.082-.086.008-.1.056-.075.086.064.086.086-.015.056.015.063.082-.019.082-.03.078-.075.116-.019.037.082.019.108-.078.09-.112.086a.909.909,0,0,1-.113-.011c-.057-.014-.045-.034-.065-.082Z" transform="translate(-237.286 -65.778)"/><path class="a" d="M239.4,75.477s0-.009,0-.013a.071.071,0,0,1,.045-.066c.056-.022.112-.183.06-.183-.032,0-.067.041-.087.061s-.063.069-.094.1a.348.348,0,0,0-.054.16.259.259,0,0,1-.108.106.216.216,0,0,0-.108.077c-.023.039-.075.176-.075.176s-.022.052,0,.052c.049,0,.161-.148.179-.187s.045-.026.049-.011c.019.074.11.025.086-.028s0-.135.06-.11a.082.082,0,0,1,.044.034c.009.019.009.033.034.031s.042-.012.042-.033a.174.174,0,0,0-.017-.094C239.434,75.521,239.4,75.522,239.4,75.477Z" transform="translate(-226.549 -72.159)"/><path class="a" d="M37.528,27.235a1.179,1.179,0,0,1-.082-.482,1.233,1.233,0,0,0-.37-.691c-.06-.082-.34-.041-.527-.056a.859.859,0,0,1-.4-.2c-.049-.06-.767-.632-.979-.815a2.3,2.3,0,0,0-.721-.34c-.037.007-.142.056-.168.056s-.262-.022-.329.064-.108.041-.146,0-.2-.071-.25-.1a1.178,1.178,0,0,0-.351-.041.419.419,0,0,1-.258-.09c-.1-.075-.407-.056-.46-.064s-.086.1-.1.138a.125.125,0,0,1-.082.064.1.1,0,0,1,0-.048c0-.029,0-.058,0-.087,0-.06-.1-.075-.135-.034s0,.142.026.187-.071.1-.12.168-.078.075-.108.041.06-.217.1-.292-.034-.164-.034-.213.026-.183-.022-.2-.093-.112-.127-.183a.354.354,0,0,0-.12-.138.261.261,0,0,0-.12.071c-.026.037-.037.09-.093.1s-.064-.09-.082-.168-.138-.1-.209-.093a.159.159,0,0,1-.15-.049.218.218,0,0,0-.146-.093.683.683,0,0,1-.149-.026,1.157,1.157,0,0,0-.5-.123,1.6,1.6,0,0,1-.232.019c-.057-.009-.17.129-.2.167-.068.086-.037.2-.065.3-.015.052-.168.135-.179.142a.774.774,0,0,1-.153.011.126.126,0,0,0-.1.06c-.052.067-.184.168-.269.1-.049-.039-.308-.075-.329.011-.014.057-.147.059-.188.036-.02-.011-.025-.028-.048-.036a.193.193,0,0,0-.045,0c-.038,0-.077,0-.116-.005-.064,0-.127,0-.191,0s-.06.019-.082.064-.026.093-.078.09-.045-.168-.037-.217.09-.037.2-.022.235-.026.247-.067a.97.97,0,0,0-.191-.3c-.026-.019-.082.075-.093.1a.438.438,0,0,1-.329.176c-.164-.007-.052-.183-.034-.277a1.061,1.061,0,0,1,.2-.31,3.29,3.29,0,0,1,.221-.269,1.737,1.737,0,0,0,.309-.347,1.569,1.569,0,0,1,.3-.337c.064-.052.037-.157.075-.239s-.045-.153-.093-.247-.221-.03-.247-.045-.034-.049.019-.093.034-.079,0-.157-.135-.007-.153-.007-.015-.019-.034-.116-.179-.366-.187-.419a1.761,1.761,0,0,1-.03-.355c0-.217-.183-.3-.194-.336a1.047,1.047,0,0,0-.136-.157s-.092.037-.024.127-.019.228-.093.28a.26.26,0,0,0-.1.2.625.625,0,0,1-.138.258,1.247,1.247,0,0,0-.131.3c.03.127-.086.243-.127.285a.333.333,0,0,1-.3,0,.4.4,0,0,0-.318.018.451.451,0,0,1-.273.011c-.1-.019-.06-.049-.131-.075a1.235,1.235,0,0,1-.187-.067.3.3,0,0,0-.213.007.9.9,0,0,1-.131.06,3.27,3.27,0,0,0-.344.022c-.045.015.03.127.067.179s0,.164,0,.164a1.431,1.431,0,0,1-.475,0,.437.437,0,0,0-.321.019c-.019.022-.135.164-.164.164s-.123.008-.15.052a.232.232,0,0,1-.045.06l-.12.011c-.12.011-.142.1-.164.127a.388.388,0,0,1-.22.019c-.1-.011-.366-.321-.4-.363a.366.366,0,0,1-.049-.213c0-.09-.123-.194-.123-.194s-.026-.281-.022-.333.007-.056.064-.108,0-.127,0-.179.026-.093.12-.183,0-.138,0-.187-.146-.176-.176-.187a.109.109,0,0,1-.06-.093c0-.034.06-.064.078-.127s-.075-.135-.135-.206-.183-.026-.269-.026-.06.146-.071.194a2.3,2.3,0,0,1-.277.3.257.257,0,0,1-.161.09.379.379,0,0,0-.179.06.511.511,0,0,1-.1.049s-.273.015-.363.015-.064.06-.064.06a.484.484,0,0,1-.026.176.132.132,0,0,1-.179-.007c-.056-.064-.112-.112-.179-.1a.108.108,0,0,1-.093-.022c-.127-.1-.142-.011-.217,0s-.209-.086-.4-.138-.093.12-.093.12l.415.288c.037.026-.03.06-.03.06-.063,0-.075.093-.075.093a.752.752,0,0,0,.142.168c.084.069.06.232.067.31s.09.041.224.056a.089.089,0,0,1,.08.1c0,.064-.083.1-.136.131a1.417,1.417,0,0,0-.142.073c-.079.052-.075.133-.075.222a.091.091,0,0,1-.149.045c-.086-.071-.131.093-.131.093a2.61,2.61,0,0,1-.419.314c-.1.03-.093-.037-.179-.045s-.138.093-.172.1-.221.026-.262-.041a.607.607,0,0,0-.3-.176c-.064,0-.056-.03-.064-.191a.588.588,0,0,0-.209-.355c-.079-.086-.206.079-.265.112s-.052-.019-.157-.034-.075.2-.09.213a1.963,1.963,0,0,1-.512,0,.632.632,0,0,0-.176-.06c-.217-.037-.164.191-.164.4,0,.1.133.045.3.045.112,0,.123.112.1.194a.108.108,0,0,1-.112.075c-.142-.093-.168.007-.2.022a.927.927,0,0,1-.2,0c-.037,0-.027.285-.027.285l.01.2c0,.115.142.142.159.15s.137.067.137.12,0,.082.09.194c.1.129-.037.86-.037.86-.052.314-.082,1.191-.082,1.191s-.026.1-.073.119-.08,0-.117-.065-.1-.045-.172-.06-.127.087-.142.1a.459.459,0,0,1-.092.042c-.137-.015-.167.107-.209.115a.171.171,0,0,1-.13-.05c-.03-.03-.314.2-.314.2s-.374.3-.434.331-.077.13-.077.147,0,.277,0,.311-.035.062-.1.08-.061.11-.073.154-.047.116.006.13a.28.28,0,0,1,.115.09c.005.022-.035.127-.087.107s-.127.03-.169.042-.037.306-.028.351a.241.241,0,0,1-.007.1,1.3,1.3,0,0,0-.179.117c-.072.06,0,.15.027.157s.11.042.11.085.1.122.13.142.144.12.154.212.145.132.209.157.06.12.047.154a.156.156,0,0,1-.127.075c-.05,0-.08.085-.08.085-.042.11.107.09.107.09a3.887,3.887,0,0,1,.5,0c.127.02.192.175.209.267s.212.022.212.022a.472.472,0,0,0,.354-.13c.033-.01.192-.135.2-.182a.081.081,0,0,1,.1-.06c.045.015-.007.12-.007.12s0,.613.01.71.154.08.306.077.159-.052.159-.062.025-.037.025-.037l.466-.005c.027,0,.045.037.045.037.03.115.17.055.2.052s.122-.117.154-.165a.208.208,0,0,1,.1-.082.42.42,0,0,0,.142-.07,1.322,1.322,0,0,1,.224-.209,2.581,2.581,0,0,0,.374-.292,1.226,1.226,0,0,1,.217-.164s.306,0,.334.01.077-.042.077-.042c.09-.115.127.07.13.11s0,.042-.065.187a.253.253,0,0,0,.035.282.109.109,0,0,1,0,.174c-.087.08.015.229.015.229s.4.461.434.471a1.2,1.2,0,0,1,.207.11c.01.012.057.09.117.085s.182-.025.242.045.229.037.3.035.164.132.2.152a1.606,1.606,0,0,0,.274.035c.08.01.277.222.319.254a3.751,3.751,0,0,0,.563.025c.159.01.277.247.309.287a1.223,1.223,0,0,1,.01.416.3.3,0,0,1-.1.137c-.05.037.077.129.1.154a1.112,1.112,0,0,1,.1.174s-.02.217-.015.334.344.07.379.07a.159.159,0,0,0,.08-.042s.314-.007.456-.007.12.09.12.09.013.321.013.421a.179.179,0,0,0,.077.147,1.362,1.362,0,0,1,.237.037c.055.022.107.371.107.371a2.977,2.977,0,0,0,.01.488.187.187,0,0,1,.022.13.215.215,0,0,1-.115.09c-.057.017-.062.306-.055.349s.02.06.085.087-.022.147-.022.147c-.1.082.035.217.057.244a1.439,1.439,0,0,1,.082.184s-.008.6,0,.665.072.05.1.05.2,0,.209.022.182.047.219.05.075-.007.144-.075.192.007.192.007a.616.616,0,0,1,.294.115,2.635,2.635,0,0,1,.135.511.768.768,0,0,1,.007.274.126.126,0,0,0,.047.122c0,.052.03.057.1.067s.095-.015.234-.08.2.022.279.085-.012.174-.007.232a1.469,1.469,0,0,1-.045.424c-.032.02-.03.184-.027.227s.144.007.269.025.159.229.159.229-.01.583-.01.618a.127.127,0,0,1-.09.127c-.071.023-.516.386-.573.416s-.237.194-.237.239-.013.115-.04.115a.268.268,0,0,0-.107.057,5.817,5.817,0,0,1-.344.548,1.356,1.356,0,0,0-.2.259,2.621,2.621,0,0,1-.187.311c-.05.065.035.065.035.065s.14,0,.187-.055.237-.045.237-.045.232.187.272.212.095.117.077.137c-.058.066.024.193.106.174s.053-.074.106-.115.092.05.092.05.15.172.244.194a1.143,1.143,0,0,1,.334.237.372.372,0,0,0,.157.087c.025.008.047.052.061.1a1.626,1.626,0,0,0,.2.234c.022.032.117.042.117.042a.367.367,0,0,1,.055-.055.317.317,0,0,0,.077-.162.229.229,0,0,1,.075-.145.5.5,0,0,1,.092.182.223.223,0,0,1-.12.142.706.706,0,0,0-.184.286,2.521,2.521,0,0,0-.037.326s-.06.132.047.082a1.949,1.949,0,0,0,.441-.6c.032-.11.08-.272.09-.3s.07-.067.092-.075a.993.993,0,0,0,.124-.142s.483-.573.521-.613.134-.11.127-.207a1.259,1.259,0,0,1,.122-.364,2.366,2.366,0,0,1,.585-.8c.052-.025.107-.167.107-.167.03-.078-.029-.206-.006-.295.019-.073.007-.035.06-.042.075-.01.146-.049.142-.145a.28.28,0,0,0-.021-.131c-.026-.039-.067-.032-.1-.055-.02-.012-.007-.02.015-.075.046-.113-.179-.346-.089-.443.023-.025.069.007.1-.009a.134.134,0,0,0,.041-.129c-.024-.053-.09-.04-.111-.1a.344.344,0,0,1,.01-.154c.013-.053.09-.219.114-.211s.1-.085.1-.085a6.127,6.127,0,0,1,.658-.645,5.467,5.467,0,0,1,.548-.329c.09-.025.117.01.13.017s.015.062.062.075c.064.017.143-.032.139-.06-.006-.054-.027-.063-.05-.114-.032-.072.18-.135.232-.135a.26.26,0,0,0,.142-.04.763.763,0,0,0,.008-.14c0-.037.065-.03.075-.025a.156.156,0,0,1,.017.1c-.029.046.13.129.134,0,0-.039-.049-.082-.063-.119s.09-.026.09-.026c.018.043.038.135.1.122.031-.007.043-.084.077-.081.1.011.164-.008.164-.064s.015-.1.093-.086.063.131.063.131a2.017,2.017,0,0,0,.385.086c.284.045.172-.194.194-.247a1.531,1.531,0,0,1,.467-.374c.12-.03.082-.292.082-.392s.273-.419.355-.493a.249.249,0,0,0,.079-.209,1.86,1.86,0,0,1,.269-.441,1.929,1.929,0,0,0,.049-.519.407.407,0,0,1,.079-.288c.045-.075.209-.325.209-.325s-.007-.351-.007-.422a1.714,1.714,0,0,1,.168-.426,8.088,8.088,0,0,0,.03-.882s0-.979.011-1.06-.015-.218.063-.218.022.026.056.157.146.011.164,0,.277-.277.28-.348a6.547,6.547,0,0,1,.284-.632,6.661,6.661,0,0,1,.759-.912,2.256,2.256,0,0,0,.336-.377,3.06,3.06,0,0,1,.183-.486A5.26,5.26,0,0,0,37.528,27.235ZM29.154,41.571c-.112.087-.1.105-.1.167a.164.164,0,0,1-.05.115c-.031.027-.1.067-.1.145s0,.095-.037.117a1.308,1.308,0,0,0-.2.182l-.087.082c-.009.008-.032.023-.036.035s-.015.053-.02.085a.49.49,0,0,1-.017.072s-.04.062-.035,0c0-.021,0-.135,0-.135a.262.262,0,0,1-.01-.117.175.175,0,0,1,.065-.092c.035-.032.052-.03.052-.06s-.013-.085.017-.092a.276.276,0,0,0,.144-.1c.066-.08.043-.073.054-.135,0-.028.033-.054.049-.077s.033-.04.042-.055a.658.658,0,0,0,.008-.087c0-.028-.013-.043.015-.06s.05-.065.025-.08-.132-.065-.057-.1c.029-.014.073-.045.1-.023s.02.108.095.108.057-.047.1-.01S29.2,41.538,29.154,41.571Z" transform="translate(-15.419 -20.207)"/></g><g transform="translate(0 0)"><path class="b" d="M250.156,74.169c-.05,0-.318.005-.362.006a.482.482,0,0,0-.194-.065.122.122,0,0,0-.04.006.5.5,0,0,0-.183.119.243.243,0,0,0-.078.164v.317l0,.005c.03.049.11.179.119.2s.1.136.169.136h.063l.128,0c.042,0,.072,0,.1,0s.079.008.129.008c.1,0,.167-.021.194-.063a.3.3,0,0,1,.177-.1l.05-.016a.315.315,0,0,0,.125-.069.221.221,0,0,0,.049-.1.42.42,0,0,1,.015-.046.2.2,0,0,1,.036-.051.231.231,0,0,0,.046-.068.224.224,0,0,0,.008-.1c0-.009,0-.017,0-.025v-.019c0-.081,0-.17-.051-.2a.113.113,0,0,1-.033-.052.12.12,0,0,0-.074-.082.562.562,0,0,0-.261.039.594.594,0,0,0-.076.039A.084.084,0,0,1,250.156,74.169Zm.145-.015a.535.535,0,0,1,.232-.036c.021.005.03.025.044.056a.149.149,0,0,0,.051.072c.03.019.03.123.031.162v.019c0,.009,0,.018,0,.027a.185.185,0,0,1-.005.076.2.2,0,0,1-.038.054.236.236,0,0,0-.044.063.437.437,0,0,0-.016.051.185.185,0,0,1-.038.083.278.278,0,0,1-.108.058l-.048.015a.334.334,0,0,0-.2.118c-.012.019-.049.042-.156.042-.048,0-.094,0-.126-.008s-.055,0-.1,0l-.129,0h-.062c-.037,0-.117-.087-.129-.111s-.1-.161-.117-.194v-.3a.206.206,0,0,1,.066-.132.464.464,0,0,1,.166-.108.079.079,0,0,1,.025,0,.462.462,0,0,1,.176.062l.005,0h.006c.013,0,.315,0,.371-.006a.127.127,0,0,0,.071-.023A.543.543,0,0,1,250.3,74.154Z" transform="translate(-236.282 -71.055)"/><path class="b" d="M255.121,65.56l-.014.006c-.03.011-.1.038-.072.117a.141.141,0,0,0,.129.079.083.083,0,0,0,.039-.008.1.1,0,0,0,.043-.121A.09.09,0,0,0,255.121,65.56Zm.061.154a.038.038,0,0,1-.018,0,.1.1,0,0,1-.087-.049c-.012-.032,0-.043.045-.06l.017-.007a.045.045,0,0,1,.019,0c.022,0,.037.024.043.047A.062.062,0,0,1,255.182,65.713Z" transform="translate(-241.694 -63.01)"/><path class="b" d="M260.719,71.064h.009c.064-.01.173-.025.191-.025s.044-.027.05-.054a.078.078,0,0,0-.041-.091.36.36,0,0,1-.049-.028.124.124,0,0,0-.059-.024c-.037,0-.088.07-.114.11a.089.089,0,0,0-.023.081A.053.053,0,0,0,260.719,71.064Zm.024-.087a.353.353,0,0,1,.076-.091.085.085,0,0,1,.036.017.4.4,0,0,0,.055.031.028.028,0,0,1,.017.027.074.074,0,0,1-.008.033c-.025,0-.157.02-.191.025l0,0S260.723,71,260.744,70.977Z" transform="translate(-247.032 -68.006)"/><path class="b" d="M250.333,68.195a.1.1,0,0,1-.05.017h-.008a.063.063,0,0,1,0-.021.159.159,0,0,0,0-.021c0-.038-.052-.078-.1-.105a.053.053,0,0,0-.028-.009c-.049,0-.059.073-.062.1s-.045.07-.06.07c-.036,0-.073.041-.089.08a.085.085,0,0,0,.01.1.079.079,0,0,0,.057.024.151.151,0,0,0,.095-.046.113.113,0,0,0,.033-.069l0-.013s0-.008.014-.008a.033.033,0,0,1,.023.009.245.245,0,0,1,.01.029.078.078,0,0,0,.07.066.412.412,0,0,0,.076.009l.045,0c.056,0,.127-.095.127-.1.03-.043.015-.084-.018-.134a.069.069,0,0,0-.06-.033A.12.12,0,0,0,250.333,68.195Zm.118,0c.038.057.028.071.019.083-.023.033-.073.077-.092.077l-.043,0a.363.363,0,0,1-.068-.008c-.03-.007-.031-.011-.038-.034a.285.285,0,0,0-.012-.034l-.005-.009a.073.073,0,0,0-.06-.027.055.055,0,0,0-.058.043l0,.014a.071.071,0,0,1-.021.046c-.022.022-.063.047-.088.022s0-.04,0-.047a.087.087,0,0,1,.048-.053c.053,0,.095-.082.1-.1l0-.008c0-.029.012-.056.022-.057.055.034.075.06.075.067a.1.1,0,0,1,0,.015c0,.018-.009.06.033.071l.017,0c.029,0,.083-.019.092-.046C250.384,68.2,250.432,68.169,250.45,68.2Z" transform="translate(-236.881 -65.375)"/><path class="b" d="M238.32,74a.25.25,0,0,0,.108-.218.049.049,0,0,0-.048-.043.173.173,0,0,0-.107.066l-.012.012c-.03.029-.057.06-.083.09l-.027.031a.289.289,0,0,0-.058.148c0,.016-.006.032-.01.048a.3.3,0,0,1-.105.1.272.272,0,0,0-.142.1c-.027.046-.086.2-.088.206a.1.1,0,0,0-.006.08.036.036,0,0,0,.03.016c.077,0,.214-.2.23-.23a.02.02,0,0,1,.009-.011.072.072,0,0,0,.07.056.087.087,0,0,0,.07-.039.075.075,0,0,0,.006-.073.107.107,0,0,1,.007-.084c.007-.011.014-.011.016-.011l.012,0a.069.069,0,0,1,.037.028l0,.011a.053.053,0,0,0,.052.039h.007a.069.069,0,0,0,.072-.064.221.221,0,0,0-.024-.122.142.142,0,0,0-.036-.037c-.016-.012-.022-.017-.022-.038a.125.125,0,0,1,0-.013A.057.057,0,0,1,238.32,74Zm-.045.145a.094.094,0,0,1,.024.024.182.182,0,0,1,.016.094c0,.007-.014.012-.028.014l0-.009-.006-.014a.119.119,0,0,0-.064-.052.071.071,0,0,0-.091.028.157.157,0,0,0-.011.133.023.023,0,0,1,0,.023c-.012.019-.041.023-.048-.008a.046.046,0,0,0-.046-.033.066.066,0,0,0-.059.041.721.721,0,0,1-.165.193.145.145,0,0,1,.006-.018s.059-.156.084-.2a.228.228,0,0,1,.108-.076.307.307,0,0,0,.145-.142c0-.017.007-.034.011-.051a.247.247,0,0,1,.046-.123l.027-.031c.026-.031.051-.06.08-.087l.013-.013c.018-.019.049-.05.066-.053a.106.106,0,0,1-.008.063.183.183,0,0,1-.067.1.108.108,0,0,0-.068.1c0,.005,0,.011,0,.017A.089.089,0,0,0,238.274,74.142Z" transform="translate(-225.361 -70.74)"/><path class="b" d="M250.222,400.528a.066.066,0,0,1-.041.013c-.027,0-.031-.01-.041-.04a.116.116,0,0,0-.041-.064c-.032-.023-.082,0-.115.015l-.013.007a.058.058,0,0,0-.038.049c0,.04.053.069.084.087l.01.005c0,.006-.006.03-.025.041a.051.051,0,0,0-.027.059.082.082,0,0,1,0,.018s0,.012,0,.022,0,.051,0,.056a.279.279,0,0,1-.02.026l-.022.028-.014.018a.155.155,0,0,0-.039.068.3.3,0,0,0,0,.041c0,.023,0,.031-.045.084a.255.255,0,0,1-.132.09c-.042.01-.038.061-.035.094,0,.007,0,.014,0,.02s0,.008-.014.018a.309.309,0,0,0-.034.027.187.187,0,0,0-.069.1.291.291,0,0,0,.01.125c0,.045,0,.114,0,.128a.054.054,0,0,0,.009.043l.01.009h.01c.006,0,.023,0,.049-.043a.5.5,0,0,0,.018-.076c.005-.03.019-.079.019-.08a.118.118,0,0,1,.018-.016l.013-.01.055-.052.032-.03.053-.053a.792.792,0,0,1,.146-.127c.048-.029.048-.058.048-.136a.152.152,0,0,1,.075-.112l.019-.015a.183.183,0,0,0,.057-.13c0-.008,0-.015,0-.022,0-.042,0-.059.093-.129a.108.108,0,0,0,.048-.081.086.086,0,0,0-.035-.068A.058.058,0,0,0,250.222,400.528Zm.035.122c-.1.079-.108.109-.11.163,0,.006,0,.013,0,.02a.14.14,0,0,1-.042.1l-.017.014a.193.193,0,0,0-.093.148c0,.078,0,.083-.026.1a.824.824,0,0,0-.155.134l-.052.051-.032.03-.055.052-.009.008a.093.093,0,0,0-.033.037s-.015.054-.021.087c0,.014-.005.027-.008.037,0-.038,0-.089,0-.1v-.007a.239.239,0,0,1-.009-.106.157.157,0,0,1,.058-.079.261.261,0,0,1,.027-.021.06.06,0,0,0,.033-.055c0-.007,0-.015,0-.024a.122.122,0,0,1,0-.047.3.3,0,0,0,.155-.1c.049-.059.054-.076.055-.111a.255.255,0,0,1,0-.035.125.125,0,0,1,.029-.047l.016-.021.02-.025a.3.3,0,0,0,.023-.031c.005-.009.007-.022.01-.077,0-.009,0-.016,0-.02a.123.123,0,0,0,0-.028.065.065,0,0,1,0-.01l.006,0a.1.1,0,0,0,.047-.077.046.046,0,0,0-.022-.042l-.011-.006c-.052-.029-.061-.042-.061-.046s0,0,.014-.01l.014-.007a.14.14,0,0,1,.055-.021.021.021,0,0,1,.013,0,.077.077,0,0,1,.024.042.082.082,0,0,0,.084.07.111.111,0,0,0,.065-.019l.009,0s0,0,.014.009a.044.044,0,0,1,.019.033A.068.068,0,0,1,250.257,400.65Z" transform="translate(-236.513 -379.28)"/><path class="c" d="M37.168,26.849a.262.262,0,0,0-.01-.03,1.151,1.151,0,0,1-.071-.448,1.09,1.09,0,0,0-.325-.646c-.022-.025-.039-.044-.049-.058-.038-.052-.134-.063-.276-.063h-.153c-.047,0-.084,0-.115,0a.843.843,0,0,1-.381-.194c-.028-.035-.236-.205-.55-.461-.178-.145-.346-.282-.432-.357a2.344,2.344,0,0,0-.733-.346h-.007a.65.65,0,0,0-.082.028.533.533,0,0,1-.081.027h-.014l-.071,0a.332.332,0,0,0-.261.075c-.019.025-.037.037-.054.037a.1.1,0,0,1-.058-.035.437.437,0,0,0-.144-.064.572.572,0,0,1-.11-.044,1.228,1.228,0,0,0-.364-.045.4.4,0,0,1-.245-.085.853.853,0,0,0-.4-.065c-.032,0-.059,0-.07,0H32.1c-.06,0-.094.088-.114.155a.084.084,0,0,1-.042.039v0s0-.01,0-.015c0-.029,0-.059,0-.088a.094.094,0,0,0-.1-.078.089.089,0,0,0-.074.032c-.039.054,0,.17.024.21.007.014-.024.044-.051.07a.534.534,0,0,0-.067.075c-.032.047-.048.052-.054.052a.03.03,0,0,1-.018-.012c0-.006-.011-.046.1-.267a.2.2,0,0,0-.014-.168.2.2,0,0,1-.017-.055c0-.01,0-.025,0-.042.006-.072.014-.161-.04-.181s-.087-.113-.115-.172-.11-.151-.14-.151a.267.267,0,0,0-.138.081.325.325,0,0,0-.019.032c-.017.032-.03.052-.062.056s-.035-.06-.045-.108c0-.015-.006-.029-.009-.043-.019-.082-.123-.111-.214-.111h-.019a.138.138,0,0,1-.132-.041.234.234,0,0,0-.162-.1.642.642,0,0,1-.14-.024,1.167,1.167,0,0,0-.51-.125,1.563,1.563,0,0,1-.225.019c-.059-.01-.154.091-.222.175a.321.321,0,0,0-.055.195.5.5,0,0,1-.014.109c0,.014-.03.048-.158.122l-.01.006h0a.96.96,0,0,1-.143.009.149.149,0,0,0-.119.068.294.294,0,0,1-.186.114.079.079,0,0,1-.051-.017.424.424,0,0,0-.21-.047c-.09,0-.144.024-.155.07,0,.018-.044.032-.092.032a.152.152,0,0,1-.063-.011.066.066,0,0,1-.015-.013.089.089,0,0,0-.036-.025.128.128,0,0,0-.039-.005H28.13c-.039,0-.078,0-.117-.005h-.191c-.061,0-.079.029-.1.076-.005.011-.01.022-.014.032-.014.036-.021.046-.039.046l-.006.022,0-.025a.382.382,0,0,1-.013-.188s0-.016.049-.016a1.025,1.025,0,0,1,.124.013.371.371,0,0,0,.051,0c.1,0,.207-.035.221-.087s-.177-.308-.2-.323a.035.035,0,0,0-.021-.007c-.053,0-.106.12-.107.121a.423.423,0,0,1-.3.161h-.011a.072.072,0,0,1-.059-.023c-.02-.03,0-.1.023-.15a.6.6,0,0,0,.024-.077.961.961,0,0,1,.183-.282l.015-.018.057-.073a1.975,1.975,0,0,1,.159-.192,1.668,1.668,0,0,0,.318-.362,1.651,1.651,0,0,1,.3-.324.208.208,0,0,0,.058-.147.348.348,0,0,1,.023-.1c.032-.071-.01-.134-.05-.2a.8.8,0,0,1-.044-.071.137.137,0,0,0-.135-.064.646.646,0,0,0-.078.006l-.042,0a.016.016,0,0,1-.009-.011s0-.02.031-.046c.062-.053.042-.1.011-.17l-.005-.012a.077.077,0,0,0-.075-.051.222.222,0,0,0-.084.023l-.009,0c0-.008,0-.02-.006-.032s-.006-.037-.011-.063a1.416,1.416,0,0,0-.115-.262,1.133,1.133,0,0,1-.072-.155c0-.009,0-.019,0-.03a1.7,1.7,0,0,1-.025-.321.4.4,0,0,0-.167-.317.275.275,0,0,1-.028-.026.89.89,0,0,0-.142-.166l-.01-.01L27.468,20a.109.109,0,0,0-.06.064.111.111,0,0,0,.026.1.108.108,0,0,1,.018.085.279.279,0,0,1-.106.164.28.28,0,0,0-.107.219.606.606,0,0,1-.132.244,1.235,1.235,0,0,0-.136.3l0,.006v.006c.027.114-.08.222-.121.264a.174.174,0,0,1-.112.027.4.4,0,0,1-.158-.032.36.36,0,0,0-.144-.026.339.339,0,0,0-.2.049.193.193,0,0,1-.108.019.8.8,0,0,1-.145-.014c-.047-.009-.056-.019-.067-.032a.127.127,0,0,0-.061-.042c-.026-.01-.055-.018-.082-.027a.445.445,0,0,1-.1-.038.206.206,0,0,0-.1-.021.3.3,0,0,0-.135.027.849.849,0,0,1-.123.057,2.925,2.925,0,0,0-.347.024.041.041,0,0,0-.027.027c-.007.021-.006.063.083.187a.188.188,0,0,1,0,.131,2.622,2.622,0,0,1-.279.019.405.405,0,0,1-.168-.022.287.287,0,0,0-.131-.026.415.415,0,0,0-.217.05l0,0a.727.727,0,0,1-.143.151c-.013,0-.133,0-.169.063a.27.27,0,0,1-.035.05l-.112.01a.2.2,0,0,0-.166.114.125.125,0,0,1-.013.019.233.233,0,0,1-.114.017.812.812,0,0,1-.088,0c-.038,0-.133-.066-.373-.337L23,21.861a.367.367,0,0,1-.043-.2.371.371,0,0,0-.124-.2c-.008-.083-.024-.281-.022-.321s0-.044.056-.094a.136.136,0,0,0,.018-.152.231.231,0,0,1-.011-.045c0-.042.021-.078.113-.165a.118.118,0,0,0,.022-.171.1.1,0,0,1-.016-.034c0-.063-.159-.194-.19-.206a.089.089,0,0,1-.045-.07.1.1,0,0,1,.024-.035.234.234,0,0,0,.054-.088c.018-.061-.038-.119-.092-.176-.016-.017-.032-.034-.047-.051a.155.155,0,0,0-.125-.048.7.7,0,0,0-.088.008.618.618,0,0,1-.073.006c-.086,0-.088.1-.09.164a.3.3,0,0,1,0,.048,1.642,1.642,0,0,1-.212.23l-.059.059a.24.24,0,0,1-.144.082.4.4,0,0,0-.192.064.47.47,0,0,1-.1.045c-.031,0-.275.015-.358.015a.089.089,0,0,0-.08.032.064.064,0,0,0-.006.054.434.434,0,0,1-.021.157.108.108,0,0,1-.072.024A.1.1,0,0,1,21,20.759a.246.246,0,0,0-.2-.112.091.091,0,0,1-.077-.018.2.2,0,0,0-.113-.05.132.132,0,0,0-.073.027.14.14,0,0,1-.048.023.357.357,0,0,1-.161-.05,1.543,1.543,0,0,0-.233-.088.272.272,0,0,0-.068-.011.074.074,0,0,0-.071.033c-.027.047.015.122.02.13l.007.007s.377.262.417.286a.069.069,0,0,1-.025.021c-.077.009-.09.108-.091.113v.008l0,.007a.771.771,0,0,0,.147.174c.057.047.057.152.057.229,0,.025,0,.048,0,.066.007.073.07.073.112.073h.053a.714.714,0,0,1,.079,0c.053.006.062.047.06.081,0,.049-.074.086-.124.112l-.048.023a.73.73,0,0,0-.1.051.234.234,0,0,0-.085.227v.012a.081.081,0,0,1-.065.05.077.077,0,0,1-.048-.02.088.088,0,0,0-.056-.023c-.066,0-.1.093-.109.121a2.383,2.383,0,0,1-.406.305.083.083,0,0,1-.085-.012.165.165,0,0,0-.086-.033.189.189,0,0,0-.145.071.12.12,0,0,1-.034.026.887.887,0,0,1-.1.006c-.074,0-.125-.013-.139-.037a.62.62,0,0,0-.313-.186c-.034,0-.036,0-.04-.118l0-.052a.534.534,0,0,0-.184-.336l-.031-.033a.091.091,0,0,0-.069-.032.309.309,0,0,0-.17.1.423.423,0,0,1-.054.043c-.02.011-.024.011-.045,0a.241.241,0,0,0-.1-.035c-.1-.015-.107.119-.109.189,0,.009,0,.02,0,.028-.036,0-.155.012-.281.012a.593.593,0,0,1-.2-.015.622.622,0,0,0-.185-.064.157.157,0,0,0-.148.034c-.055.057-.05.168-.045.285,0,.034,0,.069,0,.1,0,.082.077.082.1.082s.055,0,.087-.006a1.24,1.24,0,0,1,.129-.009.079.079,0,0,1,.068.029.172.172,0,0,1,.012.137.082.082,0,0,1-.084.058.207.207,0,0,0-.109-.039.119.119,0,0,0-.093.051.093.093,0,0,1-.013.014.141.141,0,0,1-.05,0c-.03,0-.066,0-.1,0s-.058-.007-.072.008a.757.757,0,0,0-.027.3l.01.2c0,.117.123.155.164.167l.009,0c.044.019.123.07.123.1,0,.057,0,.092.094.208a2.147,2.147,0,0,1-.042.842c-.052.312-.082,1.185-.082,1.189-.01.037-.034.094-.059.1a.062.062,0,0,1-.022,0c-.015,0-.036-.007-.069-.06a.148.148,0,0,0-.132-.063A.55.55,0,0,1,17,25.812c-.075-.015-.128.061-.153.1l-.01.013a.412.412,0,0,1-.079.035.2.2,0,0,0-.182.087c-.01.011-.023.027-.029.028a.15.15,0,0,1-.11-.044.033.033,0,0,0-.024-.009,1.219,1.219,0,0,0-.32.212c-.1.083-.382.305-.43.329a.221.221,0,0,0-.09.167c0,.019,0,.276,0,.31s-.045.05-.081.06c-.057.016-.071.087-.082.139,0,.012,0,.022-.007.031l-.005.016a.157.157,0,0,0-.009.114.056.056,0,0,0,.036.028.317.317,0,0,1,.1.072.141.141,0,0,1-.032.071.029.029,0,0,1-.025.011.215.215,0,0,0-.145.026.355.355,0,0,1-.039.016c-.072.021-.046.362-.043.378a.2.2,0,0,1,0,.082,1.258,1.258,0,0,0-.175.115.1.1,0,0,0-.037.1.14.14,0,0,0,.072.1c.038.011.094.043.094.063,0,.035.04.082.132.155l.006,0a.383.383,0,0,1,.146.2c.01.1.131.141.2.168l.021.008c.049.019.044.1.034.126a.136.136,0,0,1-.106.06c-.064,0-.1.09-.1.1a.087.087,0,0,0,0,.083.119.119,0,0,0,.1.038h.027c.006,0,.181-.011.328-.011a1.194,1.194,0,0,1,.165.008c.117.018.176.171.191.249,0,.025.024.066.1.066a.471.471,0,0,0,.133-.025.435.435,0,0,0,.333-.112.2.2,0,0,1,.024-.018c.038-.012.2-.14.217-.2A.059.059,0,0,1,17.2,29.3a.043.043,0,0,1,.02,0,.161.161,0,0,1-.022.087l0,0V29.4c0,.025,0,.615.01.712s.132.1.2.1h.13c.164,0,.182-.06.181-.081a.1.1,0,0,1,.013-.019l.456,0c.008,0,.02.015.023.021a.11.11,0,0,0,.118.087.364.364,0,0,0,.086-.013l.022,0c.054,0,.17-.172.171-.174a.225.225,0,0,1,.079-.072c.013,0,.154-.051.162-.083a1.417,1.417,0,0,1,.213-.2,2.49,2.49,0,0,0,.382-.3,1.106,1.106,0,0,1,.2-.155c.118,0,.305.006.324.009h.008a.172.172,0,0,0,.091-.051c.02-.026.032-.028.036-.028.026,0,.05.084.053.129s0,.037-.063.172a.275.275,0,0,0,.04.308.107.107,0,0,1,.037.072.1.1,0,0,1-.037.07c-.1.092.007.252.013.26a4.463,4.463,0,0,0,.445.478,1.32,1.32,0,0,1,.2.1l0,.006c.017.024.063.088.125.088l.027,0c.021,0,.047,0,.074,0a.163.163,0,0,1,.13.043.21.21,0,0,0,.166.052c.037,0,.073,0,.1-.006l.049,0c.039,0,.1.06.133.1a.291.291,0,0,0,.053.05.644.644,0,0,0,.192.029l.091.008a.9.9,0,0,1,.247.193c.029.027.049.047.061.056a.983.983,0,0,0,.354.026c.085,0,.166,0,.222,0,.12.008.219.164.267.239.011.018.02.032.026.039a1.343,1.343,0,0,1,.006.4.276.276,0,0,1-.092.126.048.048,0,0,0-.02.039c0,.043.052.091.107.136l.017.014a.975.975,0,0,1,.089.162,3.3,3.3,0,0,0-.014.331c0,.1.173.1.229.1s.111,0,.144-.007l.028,0A.161.161,0,0,0,23.7,32.9c.05,0,.32-.007.447-.007a.114.114,0,0,1,.089.027.044.044,0,0,1,.009.035v.006s.012.322.012.42a.2.2,0,0,0,.088.166l.01,0a1.282,1.282,0,0,1,.23.036,1.049,1.049,0,0,1,.094.35,2.238,2.238,0,0,0,.014.5.17.17,0,0,1,.019.108.2.2,0,0,1-.1.076c-.084.026-.073.357-.07.374.009.053.03.075.1.1a.013.013,0,0,1,.009.01.176.176,0,0,1-.037.1.115.115,0,0,0-.043.081.294.294,0,0,0,.09.186l.007.008a1.27,1.27,0,0,1,.077.174c0,.058-.007.6,0,.663,0,.033.02.072.089.072h.038a.654.654,0,0,1,.192.014c.033.041.233.058.235.059a.213.213,0,0,0,.162-.081.081.081,0,0,1,.059-.022.239.239,0,0,1,.105.032l.005,0h.006a.609.609,0,0,1,.281.11,1.974,1.974,0,0,1,.116.446l.011.052a.748.748,0,0,1,.008.263.142.142,0,0,0,.047.139c0,.063.054.07.116.079a.26.26,0,0,0,.172-.046l.075-.036a.194.194,0,0,1,.081-.021.208.208,0,0,1,.133.069l.042.034c.039.029.026.072,0,.134a.2.2,0,0,0-.019.082.939.939,0,0,1-.036.4c-.047.037-.036.244-.036.246,0,.043.059.043.09.043h.113a.611.611,0,0,1,.086.005c.106.015.14.207.14.207,0,.024-.01.584-.01.618a.105.105,0,0,1-.074.106,2.788,2.788,0,0,0-.374.267c-.093.072-.181.139-.2.15-.051.027-.249.2-.249.259a.211.211,0,0,1-.018.092.247.247,0,0,0-.127.07,6.026,6.026,0,0,1-.336.538,1.281,1.281,0,0,0-.214.272,2.706,2.706,0,0,1-.183.3.064.064,0,0,0-.016.068c.015.031.06.032.069.032a.338.338,0,0,0,.2-.062.332.332,0,0,1,.2-.038h.016c.037.03.23.185.268.209a.235.235,0,0,1,.072.1.115.115,0,0,0-.012.127.132.132,0,0,0,.14.084.109.109,0,0,0,.08-.071.119.119,0,0,1,.035-.048.014.014,0,0,1,.009,0c.016,0,.039.028.052.051a.761.761,0,0,0,.256.2,1.11,1.11,0,0,1,.324.231.393.393,0,0,0,.167.093c.01,0,.03.029.046.089a.684.684,0,0,0,.145.182c.024.025.047.05.053.059.027.039.116.05.133.052h.012l.008-.009a.328.328,0,0,1,.049-.05.328.328,0,0,0,.089-.18.246.246,0,0,1,.051-.116.715.715,0,0,1,.071.152.211.211,0,0,1-.109.123.705.705,0,0,0-.194.3,2.254,2.254,0,0,0-.039.329c-.009.02-.028.072-.009.1a.044.044,0,0,0,.039.02.118.118,0,0,0,.049-.013,1.938,1.938,0,0,0,.453-.614L28,42.565l.054-.183c.006-.021.056-.053.078-.06a.674.674,0,0,0,.135-.149c0-.006.483-.573.52-.612l.023-.023a.264.264,0,0,0,.11-.2,1.175,1.175,0,0,1,.12-.352l0-.006a2.335,2.335,0,0,1,.573-.78c.059-.028.112-.164.118-.179a.331.331,0,0,0,0-.16.369.369,0,0,1-.005-.137l0-.008.005-.019a.107.107,0,0,0,.035,0c.106-.014.165-.075.161-.168v-.021a.234.234,0,0,0-.024-.121.117.117,0,0,0-.073-.047.154.154,0,0,1-.035-.014l.006-.014c0-.009.009-.02.015-.035.025-.061-.012-.141-.052-.226s-.079-.169-.041-.209a.064.064,0,0,1,.031,0,.1.1,0,0,0,.061,0,.154.154,0,0,0,.05-.157.117.117,0,0,0-.063-.056c-.022-.011-.039-.02-.048-.044a.309.309,0,0,1,.01-.142.694.694,0,0,1,.026-.084c.006-.015.012-.032.018-.053.015-.045.035-.07.044-.07.075.008.118-.058.157-.115.011-.016.022-.032.033-.046a1.492,1.492,0,0,1,.12-.127l.046-.046c.1-.105.217-.206.327-.3l.021-.019.076-.067a5.026,5.026,0,0,1,.542-.326.2.2,0,0,1,.051-.008.077.077,0,0,1,.053.018l0,0,0,.01a.1.1,0,0,0,.067.069.174.174,0,0,0,.152-.045.05.05,0,0,0,.015-.039.166.166,0,0,0-.029-.08.307.307,0,0,1-.022-.041.016.016,0,0,1,0-.017.379.379,0,0,1,.209-.086.269.269,0,0,0,.16-.049.177.177,0,0,0,.01-.093.47.47,0,0,1,0-.057c0-.009.02-.01.025-.01H31.9a.184.184,0,0,1,.012.073.048.048,0,0,0,0,.05.117.117,0,0,0,.1.053c.018,0,.077-.007.079-.092a.152.152,0,0,0-.039-.087l-.028-.038a.046.046,0,0,1,.023,0l.033,0,.005.014c.017.047.04.111.1.111l.016,0c.024-.006.038-.03.05-.051s.015-.027.02-.029l.054,0c.118,0,.135-.056.135-.089,0-.062.02-.068.04-.068a.112.112,0,0,1,.026,0c.058.014.047.105.047.106l0,.017.016.007a2.032,2.032,0,0,0,.39.087.2.2,0,0,0,.19-.038.218.218,0,0,0,.03-.17.186.186,0,0,1,0-.052,1.548,1.548,0,0,1,.452-.361c.117-.029.108-.224.1-.353,0-.024,0-.045,0-.062a1.553,1.553,0,0,1,.348-.477.234.234,0,0,0,.083-.189c0-.011,0-.022,0-.034a1.882,1.882,0,0,1,.263-.428,1.673,1.673,0,0,0,.055-.534c.006-.168.024-.2.058-.249l.018-.028c.044-.074.207-.322.209-.324l0-.006v-.007s-.007-.352-.007-.422a1.71,1.71,0,0,1,.164-.413,5.976,5.976,0,0,0,.034-.9c0-.01,0-.979.011-1.059,0-.019,0-.041,0-.064,0-.078,0-.133.039-.133h.022a.142.142,0,0,1,0,.02.383.383,0,0,0,.012.12c.016.064.051.077.078.077a.2.2,0,0,0,.109-.056l.01-.008c.016-.009.287-.281.291-.366a2.261,2.261,0,0,1,.155-.356c.045-.093.092-.19.127-.268a6.678,6.678,0,0,1,.754-.905l.02-.02c.28-.275.32-.341.322-.372a3.112,3.112,0,0,1,.181-.478A5.077,5.077,0,0,0,37.168,26.849Zm-.052-.014c0,.011.007.018.008.023s0,.136,0,.292l-.29,0a.091.091,0,0,0-.063.038.565.565,0,0,0-.056.078l-.019.029a.421.421,0,0,1-.09.089l-.032.027c-.014.012-.024.012-.048.01h-.016l-.164,0h-.022a1.1,1.1,0,0,0-.118,0c-.083.008-.093.113-.095.141a.347.347,0,0,1-.125.132.047.047,0,0,1-.046,0,.1.1,0,0,1-.036-.07.175.175,0,0,0-.057-.1.212.212,0,0,1-.035-.046.426.426,0,0,1,.094-.155.341.341,0,0,0,.043-.21.069.069,0,0,0-.054-.056.175.175,0,0,0-.154.026l-.014.018a.1.1,0,0,1-.023.025.333.333,0,0,1-.062.031.459.459,0,0,0-.055.026.392.392,0,0,0-.054.041l-.005,0c-.043.036-.084.075-.123.113-.014.013-.058.027-.067.016a.075.075,0,0,0-.037-.066.092.092,0,0,0-.085,0,.09.09,0,0,0-.024.022l-.011.013c-.011,0-.093,0-.177-.011a.427.427,0,0,0,.044-.324.441.441,0,0,0-.023-.078.461.461,0,0,1-.019-.06.176.176,0,0,1,.032-.142l.007-.012a.41.41,0,0,0,.06-.146c0-.017,0-.039,0-.062v-.007a.259.259,0,0,0,.115.048l.04.011a.21.21,0,0,0,.171,0,1.229,1.229,0,0,0,.139-.114c.028-.025.055-.05.084-.073a.147.147,0,0,1,.105-.021.063.063,0,0,1,.046.036c.017.037-.021.086-.035.1-.03.038-.109.137-.062.224a.156.156,0,0,0,.15.085l.108,0h.092a.4.4,0,0,0,.112-.01c.032-.009.036-.056.036-.1v-.008c-.005-.093.013-.132.028-.149s.042-.015.069-.016a.241.241,0,0,1,.054,0,.1.1,0,0,1,.045.032.178.178,0,0,0,.052.039.2.2,0,0,0,.088.005l.027,0h.177a1.814,1.814,0,0,1,.251.017l.053.006A1.01,1.01,0,0,0,37.116,26.836Zm-.833-1.185h.153c.067,0,.207,0,.24.044.011.014.029.035.052.061a1.052,1.052,0,0,1,.314.617,1.749,1.749,0,0,0,.008.175l-.042,0a1.9,1.9,0,0,0-.258-.017h-.176l-.031,0a.183.183,0,0,1-.067,0,.144.144,0,0,1-.038-.03.136.136,0,0,0-.069-.044.291.291,0,0,0-.064,0h-.029a.092.092,0,0,0-.07.029.273.273,0,0,0-.04.188.232.232,0,0,1,0,.057.356.356,0,0,1-.1.008H36.03c-.05,0-.1,0-.167,0a.112.112,0,0,1-.112-.061c-.033-.06.033-.143.058-.175s.069-.086.039-.149a.109.109,0,0,0-.076-.061.189.189,0,0,0-.143.029c-.03.024-.058.049-.086.075a1.185,1.185,0,0,1-.134.11c-.032.021-.088.005-.134-.008l-.043-.011c-.06-.013-.1-.03-.12-.071,0-.022.007-.04.013-.044.035-.014.208-.138.216-.187,0-.013,0-.026.006-.04a.331.331,0,0,1,.024-.1A.156.156,0,0,1,35.395,26l.018-.022a.363.363,0,0,0,.034-.061l.008-.016a.742.742,0,0,0,.034-.086.735.735,0,0,1,.03-.079.228.228,0,0,1,.045-.067.161.161,0,0,1,.047-.027l.025-.011a.209.209,0,0,0,.048-.037l.008-.007a.953.953,0,0,0,.1-.11l.007-.008h0a.787.787,0,0,0,.37.175C36.2,25.65,36.235,25.651,36.284,25.651ZM33.591,24.4a.308.308,0,0,1,.226-.058l.069,0H33.9a.376.376,0,0,0,.1-.03.734.734,0,0,1,.073-.026,2.365,2.365,0,0,1,.7.335c.087.075.255.212.433.357.242.2.516.421.546.457l0,0h0l-.007.009a.9.9,0,0,1-.094.1l-.008.008a.174.174,0,0,1-.038.03l-.022.01a.2.2,0,0,0-.06.036.267.267,0,0,0-.055.08.792.792,0,0,0-.032.083.707.707,0,0,1-.031.081l-.008.016a.325.325,0,0,1-.029.054l-.015.019a.192.192,0,0,0-.03.043.367.367,0,0,0-.028.117c0,.013,0,.025-.005.037a.75.75,0,0,1-.188.154c-.041.016-.043.085-.046.158,0,.022,0,.042,0,.059a.376.376,0,0,1-.055.13L35,26.683a.223.223,0,0,0-.036.174.517.517,0,0,0,.021.066.408.408,0,0,1,.021.071.35.35,0,0,1-.061.319.182.182,0,0,1-.177.03,2.168,2.168,0,0,1-.231-.189c-.049-.043-.075-.066-.085-.073-.038-.025-.072,0-.115.028l-.013.009a.106.106,0,0,1-.081.012A.068.068,0,0,1,34.2,27.1c-.021-.035-.063-.03-.094-.026s-.039,0-.044,0a.787.787,0,0,1-.01-.177.422.422,0,0,0-.012-.164.97.97,0,0,0-.1-.1c-.037-.037-.075-.075-.09-.094a1.99,1.99,0,0,1-.064-.5v-.013a.869.869,0,0,0-.057-.158,1.106,1.106,0,0,1-.069-.193,1.742,1.742,0,0,0-.049-.473.5.5,0,0,1-.068-.137.724.724,0,0,0-.053-.286,1.185,1.185,0,0,1-.014-.324.085.085,0,0,0,.025,0A.117.117,0,0,0,33.591,24.4Zm-.179.006.021.019a1.033,1.033,0,0,0,.025.38.775.775,0,0,1,.041.251.447.447,0,0,0,.077.169,1.882,1.882,0,0,1,.041.438.663.663,0,0,0,.071.218,1.122,1.122,0,0,1,.054.145v.013c.037.482.063.515.073.528s.054.059.094.1a1.2,1.2,0,0,1,.089.094A.789.789,0,0,1,34,26.9c0,.051,0,.091,0,.123a.084.084,0,0,0-.044.038.356.356,0,0,0-.034.174v.017a.138.138,0,0,0,.006.056.068.068,0,0,0,.033.034l.011.007a.073.073,0,0,1,.015.025.4.4,0,0,1,.016.046l.009.028a3.973,3.973,0,0,1-.368.434s-.339.3-.387.332a.3.3,0,0,1-.066.032,1.206,1.206,0,0,0-.241.129.464.464,0,0,1-.376.042s-.1-.049-.187-.089-.224.064-.259.1a.067.067,0,0,0-.017.052.259.259,0,0,0,.074.154c.036.031.038.163.039.22,0,.013,0,.024,0,.029a1.607,1.607,0,0,1-.527.373.225.225,0,0,1-.249-.042c-.025-.029-.243-.283-.275-.308s-.083-.006-.128.012a.528.528,0,0,0,.07-.2c0-.039,0-.078,0-.117a1.947,1.947,0,0,0-.018-.286.308.308,0,0,0-.03-.084.248.248,0,0,1-.028-.082A.385.385,0,0,1,31.056,28a3.662,3.662,0,0,1,.236-.553.508.508,0,0,1,.16-.15l.036-.025c.034-.025.066-.046.1-.067l.083-.057a4.288,4.288,0,0,0,.379-.316.707.707,0,0,1,.091-.076,1.168,1.168,0,0,1,.165,0c.191,0,.244,0,.259-.028,0-.008.019-.029.035-.051.087-.123.124-.184.111-.215s-.034-.075-.052-.113l-.009-.019c-.008-.017-.018-.033-.028-.049a.274.274,0,0,1-.042-.094.213.213,0,0,1,.017-.127.6.6,0,0,0,.1-.243,1.247,1.247,0,0,0,0-.228c0-.021,0-.043-.005-.065a.382.382,0,0,0-.046-.192c-.046-.07-.06-.125-.038-.152a.611.611,0,0,0,.063-.1c.009-.017.018-.035.028-.051.05-.083.1-.164.158-.248a.5.5,0,0,1,.127-.129.628.628,0,0,1,.077-.043.519.519,0,0,0,.1-.064.41.41,0,0,0,.04-.038l.014-.015c.011-.011.014-.032.019-.079a.562.562,0,0,1,.01-.064l.044.015A.475.475,0,0,1,33.412,24.407Zm-2.723,5.316a.068.068,0,0,0,.066.036.3.3,0,0,1,.07.009c.015,0,.033.01.039.023s-.006.042-.013.056l0,.006c-.017.034.007.057.048.094l.021.019c.01.009.009.015.009.018s-.025.037-.04.048a.138.138,0,0,0-.09.024c-.035.027-.012.088.008.141.005.014.013.034.013.038a.644.644,0,0,0,.031.243l.062.069v.1a.292.292,0,0,1-.162-.045.1.1,0,0,0-.082-.022.151.151,0,0,0-.087.066,2.461,2.461,0,0,1-.232.178c-.027.014-.054-.012-.088-.049l-.017-.018a.1.1,0,0,0-.105-.016.06.06,0,0,0-.038.06.047.047,0,0,1-.017.035.087.087,0,0,1-.064.027c-.029,0-.041-.015-.07-.051l-.019-.023a.07.07,0,0,0-.056-.028.177.177,0,0,0-.054.012.248.248,0,0,1-.079.016c-.049,0-.066-.028-.091-.076a.433.433,0,0,0-.025-.044c-.028-.043-.051-.04-.078-.031a.143.143,0,0,1-.068.006.07.07,0,0,1-.062-.034.1.1,0,0,0-.053-.043c-.058-.019-.122.028-.174.067l-.025.019c-.044.031-.041.1-.039.148a.274.274,0,0,0,0,.042.066.066,0,0,1-.034-.012.076.076,0,0,1-.031-.03c-.006-.029-.04-.058-.086-.1-.014-.012-.027-.022-.036-.031a.3.3,0,0,0-.184-.038.259.259,0,0,1,0-.092.5.5,0,0,0,.007-.067.146.146,0,0,0-.073-.123.051.051,0,0,0-.053-.006.11.11,0,0,0-.054.093.184.184,0,0,1-.083.117h0v-.008a1.1,1.1,0,0,1,0-.113,2.215,2.215,0,0,0-.072-.315,2.365,2.365,0,0,1,.087-1.1,1.022,1.022,0,0,1,.086-.258,4,4,0,0,1,.3-.529c.049-.075.1-.148.147-.217.015-.022.033-.043.051-.064a.437.437,0,0,0,.114-.2.442.442,0,0,0-.042-.276.6.6,0,0,1-.056-.376.721.721,0,0,1,.151-.266l.011-.014a1.283,1.283,0,0,1,.191-.208.353.353,0,0,0,.14-.249.946.946,0,0,0,.006-.153c0-.014,0-.029,0-.043a.273.273,0,0,0-.121-.2l.075,0H29.6a.569.569,0,0,0,.058,0,.458.458,0,0,1,.088,0l.034,0a.142.142,0,0,1,.082.028.6.6,0,0,0,.114.064c.023.01.026.034.029.074v.012a.25.25,0,0,1,0,.042.223.223,0,0,0,0,.068.353.353,0,0,0,.03.077l.011.023c0,.01.01.02.016.03a.154.154,0,0,1,.021.051.446.446,0,0,1,0,.064v.006c0,.065,0,.134-.011.2,0,.03-.007.06-.011.09a.09.09,0,0,1-.02.041.215.215,0,0,0-.021.034l-.02.041a.231.231,0,0,0-.041.162.256.256,0,0,0,.049.1l.007.011a1.193,1.193,0,0,0,.08.107,1.451,1.451,0,0,0,.112.116c.05.046.22.2.286.193a.071.071,0,0,0,.06-.036.055.055,0,0,1,.021-.021.043.043,0,0,1,.033,0,.061.061,0,0,1,.033.032.108.108,0,0,1,0,.075.169.169,0,0,1-.065.076c-.021,0-.1.013-.117.055a.166.166,0,0,0,0,.075.252.252,0,0,1,0,.031v.023a.48.48,0,0,1,0,.068c0,.006-.007.01-.02.019a.141.141,0,0,0-.039.033.185.185,0,0,0,.021.2c.011.011.024.02.037.03.029.022.053.041.053.062s0,.015,0,.022c0,.036,0,.084.053.094a.071.071,0,0,1,.067.079.217.217,0,0,0,.03.152.09.09,0,0,0,.061.026.332.332,0,0,1,.018.169.07.07,0,0,0,.021.053.2.2,0,0,0,.142.024.37.37,0,0,1,.08,0,.024.024,0,0,1,.02.022.121.121,0,0,1-.021.084c-.053.016-.182.249-.183.251a.694.694,0,0,1-.111.161C30.621,29.541,30.652,29.673,30.689,29.723Zm3.3,3.575a.456.456,0,0,0,.038.052.239.239,0,0,1,.05.08.883.883,0,0,1,0,.163A.434.434,0,0,0,34,33.6a.3.3,0,0,1-.075.008c-.075-.006-.133.084-.161.127l-.01.015a.131.131,0,0,0-.038.037l-.009.01-.015.015c-.027.026-.068.065-.043.115a.5.5,0,0,0,.082.111.049.049,0,0,1,.009.043.076.076,0,0,1-.037.053.1.1,0,0,0-.05.056.088.088,0,0,0,.018.069l0,.006a1.117,1.117,0,0,0,.064.093.5.5,0,0,1-.039.24.14.14,0,0,0-.067.124.872.872,0,0,1-.115.289.912.912,0,0,0-.192.07.906.906,0,0,0-.115.351.1.1,0,0,1-.018.03l0,.007a.84.84,0,0,1-.1.112.212.212,0,0,0-.051.133c0,.011,0,.022-.005.033l-.006.036a.3.3,0,0,1-.064.172.56.56,0,0,1-.241.117l-.049.015a2.037,2.037,0,0,1-.381.09,4.075,4.075,0,0,0-.576.13l-.153.042a.152.152,0,0,0-.046.012l-.265.142a1.589,1.589,0,0,1-.18.075.2.2,0,0,1-.09.017.111.111,0,0,1-.074-.052l-.031-.046a1.046,1.046,0,0,1-.069-.11.758.758,0,0,1-.071-.185l0-.013a.35.35,0,0,1,.025-.282c.029-.059.035-.1.019-.126s-.058-.032-.09-.033h-.01c-.044,0-.063-.01-.135-.08-.031-.03-.068-.1-.068-.277,0-.011,0-.026,0-.042a.345.345,0,0,0-.02-.183.327.327,0,0,1-.075-.144.1.1,0,0,0-.043-.07.129.129,0,0,0-.094-.018h0c-.007,0-.026-.017-.033-.024l-.015-.013a.086.086,0,0,0-.108-.009.111.111,0,0,0-.049.064.038.038,0,0,1-.012.027.07.07,0,0,1-.05.007.066.066,0,0,1-.021-.011.119.119,0,0,0-.12-.06.073.073,0,0,0-.054.046.081.081,0,0,1-.034.036l-.224,0a.083.083,0,0,0-.084.059.017.017,0,0,1-.013.011.045.045,0,0,1-.036-.011.141.141,0,0,1-.03-.062c0-.009-.005-.018-.009-.027a.211.211,0,0,0-.143-.134s-.222-.027-.237.019a.139.139,0,0,1-.077.032l-.012,0h-.011a.205.205,0,0,1-.025-.026l-.024-.027c-.076-.082-.21.006-.215.009l-.184.11c-.007-.094-.025-.333-.032-.4a2.522,2.522,0,0,0,.253-.256l0-.006c.018-.041.071-.164.166-.183a.626.626,0,0,0,.157-.065.341.341,0,0,1,.167-.058.441.441,0,0,1,.07.015.148.148,0,0,0,.154-.021.461.461,0,0,0,.082-.083c.017-.021.02-.024.029-.024h.063c.082,0,.3-.006.322,0l.007.009c.022.031.052.063.15.047a.53.53,0,0,0,.258-.167l0-.006c.028-.068.116-.294.078-.355a.041.041,0,0,0-.033-.02c-.029,0-.045-.046-.048-.085s.012-.086.028-.09a.055.055,0,0,0,.036-.031.8.8,0,0,0,0-.392.128.128,0,0,0-.055-.053.144.144,0,0,1-.034-.027.232.232,0,0,1-.03-.179.252.252,0,0,1,.209-.17.1.1,0,0,0,.072-.033.2.2,0,0,0,.047-.131.835.835,0,0,1,.01-.18.3.3,0,0,1,.3-.292A.319.319,0,0,1,31,31.8l.038.028a.118.118,0,0,0,.049.066.093.093,0,0,0,.085,0,2.3,2.3,0,0,0,.21-.128,1.82,1.82,0,0,1,.311-.181.335.335,0,0,0,.217-.183.064.064,0,0,1,.039-.038.084.084,0,0,1,.063,0c.052.03.187.126.2.177l.005.027c.011.055.023.118.1.123l.023,0c.048.005.114.012.146-.027a.07.07,0,0,0,.012-.026.068.068,0,0,1,.023,0,.134.134,0,0,1,.065.014l.009.007a.443.443,0,0,0,.156.092.746.746,0,0,1,.218.11c.033.05.165.065.166.065a.515.515,0,0,0,.07,0c.044,0,.126-.007.143.01a1.022,1.022,0,0,1,.1.163l.019.036a.331.331,0,0,0,.235.161c.037,0,.069,0,.1,0a.19.19,0,0,1,.095.01.246.246,0,0,1,.032.031c.014.016.026.029.044.029h.018a.633.633,0,0,1,.172,0,.8.8,0,0,0,.1.121c.056.052.085.1.078.133a.129.129,0,0,1-.094.095c-.071.012-.1.056-.1.139a.446.446,0,0,1-.023.16.177.177,0,0,0-.13.105A.2.2,0,0,0,33.987,33.3ZM31.02,31.757a.323.323,0,0,0-.153-.079.345.345,0,0,0-.345.33.869.869,0,0,0-.011.19.158.158,0,0,1-.036.1.052.052,0,0,1-.039.019.3.3,0,0,0-.253.206.274.274,0,0,0,.037.214.168.168,0,0,0,.046.038c.015.01.034.022.037.031a.825.825,0,0,1,.006.352c0,.01-.008.012-.008.012-.049.011-.067.078-.063.136s.04.122.087.125a.737.737,0,0,1-.08.311.482.482,0,0,1-.228.149c-.078.013-.093-.01-.106-.029a.061.061,0,0,0-.027-.025,2.1,2.1,0,0,0-.34,0h-.062c-.032,0-.047.019-.064.041a.41.41,0,0,1-.074.076c-.041.033-.067.026-.114.013a.5.5,0,0,0-.076-.016.365.365,0,0,0-.193.063.6.6,0,0,1-.145.061c-.118.024-.179.163-.2.209l0,.006a2.8,2.8,0,0,1-.239.238.6.6,0,0,0-.179-.033,1.128,1.128,0,0,1-.271-.175.867.867,0,0,0-.085-.062,2.064,2.064,0,0,1-.209-.154.228.228,0,0,0-.137-.05l-.087-.015a.329.329,0,0,1-.227-.2c-.008-.015-.014-.032-.02-.048a.28.28,0,0,0-.048-.088,2.78,2.78,0,0,0,.035-.5.289.289,0,0,1,.139-.219.207.207,0,0,0,.085-.13v-.006a.3.3,0,0,1,.219-.328l.033-.015a.418.418,0,0,0,.232-.309c0-.116.253-.362.3-.4a.784.784,0,0,0,.179-.363,1.95,1.95,0,0,1,.089-.484,1.348,1.348,0,0,0,.075-.342.064.064,0,0,0,.021-.006.227.227,0,0,0,.114-.157.069.069,0,0,1,.027-.056.007.007,0,0,1,.008,0,.1.1,0,0,1,.055.087.485.485,0,0,1-.007.06c-.01.064-.014.105.006.128a.039.039,0,0,0,.031.014.294.294,0,0,1,.156.027c.01.009.024.021.039.034s.067.055.07.071a.135.135,0,0,0,.108.078.04.04,0,0,0,.041-.034.267.267,0,0,0,0-.056c0-.039,0-.093.02-.109l.027-.019c.041-.03.1-.071.133-.06a.053.053,0,0,1,.03.026.112.112,0,0,0,.093.054.186.186,0,0,0,.087-.008l.013,0s0-.009.015.016a.4.4,0,0,1,.022.04c.024.047.052.1.131.1a.287.287,0,0,0,.093-.018c.039-.013.048-.014.062,0l.018.022a.137.137,0,0,0,.1.068h.007a.136.136,0,0,0,.092-.04.09.09,0,0,0,.029-.07s0-.01.012-.016a.053.053,0,0,1,.054.007l.016.017c.033.035.082.088.141.059a2.6,2.6,0,0,0,.244-.186l0-.006a.109.109,0,0,1,.06-.048.057.057,0,0,1,.046.014.321.321,0,0,0,.188.054c-.014.522.018.547.031.556.03.021.075.054.081.082s0,.119,0,.2C31.018,31.633,31.016,31.727,31.02,31.757Zm-.307-8.389a.179.179,0,0,0,.167.056H30.9c.056,0,.156.016.17.077,0,.014.006.028.009.042.015.074.03.152.1.143a.124.124,0,0,0,.092-.079.275.275,0,0,1,.016-.028.252.252,0,0,1,.1-.061.387.387,0,0,1,.1.125c.043.091.086.174.139.194.022.009.014.1.011.136,0,.018,0,.034,0,.045a.21.21,0,0,0,.02.072.169.169,0,0,1,.016.131c-.119.237-.115.292-.094.316a.07.07,0,0,0,.053.028c.029,0,.056-.021.091-.071a.486.486,0,0,1,.062-.068c.042-.041.081-.08.06-.123s-.049-.135-.028-.164.092-.015.094.022,0,.057,0,.085c0,0,0,.008,0,.012a.085.085,0,0,0,.006.046l.008.017.018,0a.146.146,0,0,0,.1-.079c.034-.113.062-.123.072-.123h0c.014,0,.04,0,.075,0a.857.857,0,0,1,.374.057.444.444,0,0,0,.271.094,1.154,1.154,0,0,1,.339.037.21.21,0,0,0,.036.018.444.444,0,0,0-.013.074c0,.019-.006.049-.007.053l-.014.015a.377.377,0,0,1-.036.035.475.475,0,0,1-.1.058.688.688,0,0,0-.082.047.55.55,0,0,0-.138.141c-.057.085-.11.166-.16.25-.01.017-.02.035-.029.053a.577.577,0,0,1-.058.1c-.036.044-.024.115.035.2a.343.343,0,0,1,.039.17c0,.023,0,.046.006.068a1.2,1.2,0,0,1,0,.22.571.571,0,0,1-.1.22.255.255,0,0,0-.024.16.311.311,0,0,0,.048.11c.009.015.018.03.026.046l.009.019c.018.037.036.073.051.108a.78.78,0,0,1-.105.174c-.017.024-.029.041-.036.052a1.186,1.186,0,0,1-.221.008,1.058,1.058,0,0,0-.176,0c-.008,0-.021,0-.111.087a4.254,4.254,0,0,1-.376.312l-.081.056c-.031.021-.063.042-.1.068l-.035.025a.55.55,0,0,0-.173.165,3.7,3.7,0,0,0-.239.559.427.427,0,0,0-.016.176.285.285,0,0,0,.032.1.274.274,0,0,1,.026.072,1.92,1.92,0,0,1,.017.28c0,.04,0,.079,0,.118a.608.608,0,0,1-.079.2l-.007,0a.4.4,0,0,0-.091,0c-.043,0-.092,0-.108-.012a.023.023,0,0,1-.007-.018c0-.026.011-.157-.03-.2a.05.05,0,0,0-.038-.017.03.03,0,0,1-.024-.009c-.024-.026-.019-.1-.018-.118v-.006a.113.113,0,0,0-.1-.121c-.014,0-.017,0-.016-.048,0-.008,0-.016,0-.024,0-.044-.036-.071-.071-.1-.011-.009-.023-.017-.034-.027a.147.147,0,0,1-.016-.138.1.1,0,0,1,.027-.023.073.073,0,0,0,.04-.052.518.518,0,0,0,0-.074v-.022a.3.3,0,0,0,0-.037.148.148,0,0,1,0-.053.134.134,0,0,1,.075-.026c.037,0,.09-.063.107-.1a.152.152,0,0,0,.006-.1.1.1,0,0,0-.057-.062.084.084,0,0,0-.072,0,.1.1,0,0,0-.039.035c-.008.012-.011.016-.026.017h0a.838.838,0,0,1-.251-.181,1.389,1.389,0,0,1-.109-.112,1.157,1.157,0,0,1-.077-.1l-.008-.011A.219.219,0,0,1,30,27.086c-.007-.045,0-.064.037-.135l.02-.042a.178.178,0,0,1,.017-.027.132.132,0,0,0,.028-.06c0-.031.009-.062.012-.093.007-.072.01-.142.011-.208v-.006a.486.486,0,0,0,0-.07.188.188,0,0,0-.027-.067c0-.009-.01-.018-.014-.027l-.011-.024a.307.307,0,0,1-.026-.067.181.181,0,0,1,0-.055.283.283,0,0,0,0-.05v-.011c0-.041-.006-.091-.056-.112a.555.555,0,0,1-.106-.059.186.186,0,0,0-.1-.036l-.033,0a.487.487,0,0,0-.1,0,.493.493,0,0,1-.053,0h-.032c-.031,0-.066,0-.1,0A4.337,4.337,0,0,1,30,25.473l.034-.03a.186.186,0,0,0,.047-.138.375.375,0,0,1,.006-.053.536.536,0,0,1,.059-.138c.011-.02.022-.041.031-.061.107-.227.207-.434.308-.635,0,0,.146-.387.209-.541a1.386,1.386,0,0,0,.01-.519Zm-4.872-1.923a.084.084,0,0,1,.042.029.134.134,0,0,0,.092.047.843.843,0,0,0,.153.015.21.21,0,0,0,.14-.032.324.324,0,0,1,.167-.036.317.317,0,0,1,.125.022.443.443,0,0,0,.176.036.21.21,0,0,0,.145-.041.361.361,0,0,0,.133-.3,1.137,1.137,0,0,1,.124-.281.641.641,0,0,0,.144-.272.237.237,0,0,1,.088-.185.324.324,0,0,0,.125-.193.153.153,0,0,0-.026-.119.07.07,0,0,1-.019-.058.053.053,0,0,1,.021-.028.863.863,0,0,1,.119.136c0,.014.019.026.042.046a.36.36,0,0,1,.152.283,1.746,1.746,0,0,0,.025.329c0,.011,0,.021,0,.029a.873.873,0,0,0,.076.169,1.45,1.45,0,0,1,.111.25c0,.026.008.046.011.062.008.047.012.072.045.072a.088.088,0,0,0,.033-.01.185.185,0,0,1,.066-.019.033.033,0,0,1,.034.023l.005.013c.031.072.036.088,0,.118a.1.1,0,0,0-.046.084.059.059,0,0,0,.031.046.128.128,0,0,0,.069,0,.611.611,0,0,1,.073-.006c.051,0,.081.013.1.04a.841.841,0,0,0,.046.075c.043.064.068.106.047.152a.383.383,0,0,0-.026.113.172.172,0,0,1-.042.118,1.528,1.528,0,0,0-.312.35,1.859,1.859,0,0,1-.3.333,1.535,1.535,0,0,0-.169.2l-.056.072-.015.018a.959.959,0,0,0-.192.3.469.469,0,0,1-.018.059.375.375,0,0,1-.17-.036.251.251,0,0,1-.095-.157l0-.009A.608.608,0,0,0,27,23.091a1.476,1.476,0,0,1-.178-.272l-.029-.053a.711.711,0,0,1-.068-.277.2.2,0,0,0-.087-.158.154.154,0,0,1-.081-.1.569.569,0,0,0-.027-.059A1.09,1.09,0,0,0,26.415,22a.184.184,0,0,0-.172-.079l-.064,0c-.064-.006-.07-.021-.079-.043a.1.1,0,0,0-.043-.055.5.5,0,0,0-.218-.025H25.8a.283.283,0,0,1-.04-.137A2.13,2.13,0,0,0,25.7,21.4l.064.021C25.788,21.427,25.815,21.436,25.841,21.445Zm-2.222.791a.139.139,0,0,0,.02-.028.156.156,0,0,1,.131-.092L23.9,22.1l.005,0a.244.244,0,0,0,.05-.066c.017-.028.086-.041.13-.041.019,0,.05-.013.178-.168l0,0a.453.453,0,0,1,.184-.035.248.248,0,0,1,.111.021.451.451,0,0,0,.189.027,2.766,2.766,0,0,0,.3-.021l.014,0,0-.013c0-.013.04-.125,0-.185-.082-.114-.077-.144-.078-.145a2.961,2.961,0,0,1,.337-.021h.007a.923.923,0,0,0,.135-.062.25.25,0,0,1,.111-.02.214.214,0,0,1,.072.009,2.606,2.606,0,0,1,.075.292c0,.033.022.17.075.178a.382.382,0,0,0,.048,0,.523.523,0,0,1,.194.019.056.056,0,0,1,.024.033c.014.034.032.064.116.071l.066,0c.071,0,.092,0,.14.062a1.011,1.011,0,0,1,.112.16.5.5,0,0,1,.025.055.2.2,0,0,0,.1.124.152.152,0,0,1,.062.118.755.755,0,0,0,.074.3l.029.052a1.521,1.521,0,0,0,.183.28.566.566,0,0,1,.1.2l0,.009a.292.292,0,0,0,.115.182.387.387,0,0,0,.178.041.187.187,0,0,0-.006.158.112.112,0,0,0,.094.042h.013a.462.462,0,0,0,.338-.19.27.27,0,0,1,.063-.092,1.179,1.179,0,0,1,.179.272.244.244,0,0,1-.178.054.311.311,0,0,1-.044,0,1.067,1.067,0,0,0-.13-.013c-.021,0-.085,0-.093.054a.4.4,0,0,0,.023.223.049.049,0,0,0,.035.02h.007c.051,0,.068-.041.081-.074,0-.009.008-.019.012-.029.022-.043.027-.051.062-.051h.19c.038,0,.076,0,.114.005h.013a.1.1,0,0,1,.026,0,.047.047,0,0,1,.019.014.108.108,0,0,0,.026.021.19.19,0,0,0,.085.016c.028,0,.121,0,.136-.067.005-.022.048-.036.111-.036a.4.4,0,0,1,.182.037.125.125,0,0,0,.079.027.333.333,0,0,0,.222-.132.1.1,0,0,1,.083-.051.694.694,0,0,0,.166-.015l.01-.006c.113-.065.168-.111.179-.149a.54.54,0,0,0,.016-.119.282.282,0,0,1,.045-.169c.093-.117.153-.159.179-.159h0a1.558,1.558,0,0,0,.235-.018,1.141,1.141,0,0,1,.485.12l.006,0a.7.7,0,0,0,.156.027.113.113,0,0,1,.068.027,1.583,1.583,0,0,1,0,.551c-.063.155-.208.539-.208.54-.1.2-.2.407-.308.634-.009.02-.02.039-.03.059a.573.573,0,0,0-.063.15.411.411,0,0,0-.006.06A.15.15,0,0,1,30,25.41l-.032.029c-.221.169-.588.462-.57.537a.035.035,0,0,0,.03.026c.1.017.138.15.138.172s0,.029,0,.043a.924.924,0,0,1-.006.146.31.31,0,0,1-.124.221,1.341,1.341,0,0,0-.2.215l-.011.014a.764.764,0,0,0-.16.285.645.645,0,0,0,.06.407.4.4,0,0,1,.037.247.4.4,0,0,1-.1.178c-.019.022-.037.044-.053.067-.049.07-.1.143-.148.219a4.033,4.033,0,0,0-.3.535l-.009.021-2.348-.076c-.481-.012-1.214-.034-1.256-.045a.586.586,0,0,1-.056-.059.55.55,0,0,0-.154-.141l-.084-.03c-.023-.016-.186-.13-.219-.16s-.019-.106-.02-.166c0-.034,0-.066,0-.093a.133.133,0,0,0-.074-.113.076.076,0,0,1-.019-.014,1.112,1.112,0,0,1-.033-.235c0-.052-.123-.184-.162-.225-.023-.034-.045-.07-.066-.1l-.028-.045-.026-.04c-.068-.1-.144-.22-.052-.323a.627.627,0,0,0,.1-.206c.007-.021.014-.04.021-.059.144-.369.266-.67.385-.948l.015-.034.027-.064.469-1.167c.005-.009.051-.09.018-.148a.122.122,0,0,0-.116-.05.219.219,0,0,1-.174-.106.658.658,0,0,0-.071-.075.3.3,0,0,0-.169-.085,1.143,1.143,0,0,1-.265-.09.7.7,0,0,1-.08-.07c-.061-.059-.118-.114-.169-.105a.112.112,0,0,0-.065.035l0,0c-.079-.03-.107-.1-.137-.178a.406.406,0,0,0-.1-.174.882.882,0,0,1-.194-.25c0-.056,0-.733,0-.866l.032,0A.247.247,0,0,0,23.618,22.236Zm-2.876-.651a.771.771,0,0,0-.084,0h-.053c-.059,0-.065-.008-.067-.032s0-.039,0-.062a.339.339,0,0,0-.074-.263.723.723,0,0,1-.133-.155c0-.018.017-.064.053-.067l.009,0c.012-.006.051-.028.053-.059a.043.043,0,0,0-.021-.039l-.411-.285c-.013-.024-.027-.064-.018-.081s.02-.011.032-.011a.227.227,0,0,1,.057.009,1.486,1.486,0,0,1,.226.085.37.37,0,0,0,.188.053.179.179,0,0,0,.063-.029.092.092,0,0,1,.049-.02.155.155,0,0,1,.083.038.126.126,0,0,0,.113.03c.06-.007.112.043.16.1a.14.14,0,0,0,.108.047.149.149,0,0,0,.105-.039.427.427,0,0,0,.032-.19l0-.009a.021.021,0,0,1,0-.017c0-.007.021-.011.043-.011.089,0,.353-.014.364-.015h.006a.525.525,0,0,0,.11-.052.358.358,0,0,1,.167-.056.281.281,0,0,0,.177-.1c.009-.01.03-.03.057-.057a1.07,1.07,0,0,0,.224-.252.307.307,0,0,0,0-.057c0-.08.009-.12.045-.12a.641.641,0,0,0,.079-.007.676.676,0,0,1,.082-.007.109.109,0,0,1,.091.032c.015.018.032.035.048.053.045.047.092.1.082.132a.194.194,0,0,1-.045.072.117.117,0,0,0-.035.059.13.13,0,0,0,.074.117c.025.01.158.132.161.168a.128.128,0,0,0,.022.054c.021.036.038.064-.015.116-.093.089-.131.137-.126.2a.259.259,0,0,0,.013.055c.015.049.022.08-.006.106-.057.054-.066.062-.071.123s.021.325.022.337v.009l.007.006a.341.341,0,0,1,.116.178.383.383,0,0,0,.054.227l.016.018c.206.233.334.344.4.352H23.4c0,.077,0,.355,0,.578-.1,0-.529-.009-.617,0-.111.017-.143.244-.146.27,0,0-.02.192-.026.281s-.036.119-.087.123a.115.115,0,0,1-.116-.082c-.016-.068-.086-.074-.141-.078l-.04,0a.234.234,0,0,0-.187.053.269.269,0,0,0-.1.2.868.868,0,0,0,.006.11.6.6,0,0,1,0,.138.046.046,0,0,1-.007.024c-.006,0-.029-.006-.1-.094l-.016-.019a.655.655,0,0,0-.093-.077l-.005,0a.784.784,0,0,0-.187-.11.037.037,0,0,1-.025-.023.086.086,0,0,1,.007-.06.265.265,0,0,0,.025-.2.446.446,0,0,0-.09-.159.45.45,0,0,1-.054-.08.678.678,0,0,1,.052-.295.483.483,0,0,0,0-.172c0-.023,0-.049,0-.053a1.81,1.81,0,0,0-.133-.3.616.616,0,0,1-.037-.222l0-.026a.219.219,0,0,0-.126-.175l-.01-.006a.823.823,0,0,0-.311-.109A.107.107,0,0,0,20.742,21.585Zm-5.453,6.077a.4.4,0,0,0,.044-.018.18.18,0,0,1,.111-.025.059.059,0,0,0,.021,0,.075.075,0,0,0,.059-.033.163.163,0,0,0,.037-.1c-.008-.036-.1-.1-.131-.106a.011.011,0,0,1-.008-.006c-.009-.016.006-.059.012-.079l.006-.018c0-.01.005-.021.008-.034.008-.04.019-.1.05-.1.09-.025.111-.068.113-.1s.005-.294.005-.313.018-.1.065-.127.422-.322.438-.334a1.473,1.473,0,0,1,.288-.2.192.192,0,0,0,.145.052.1.1,0,0,0,.055-.043A.157.157,0,0,1,16.755,26h.005l0,0a.393.393,0,0,0,.1-.048.172.172,0,0,0,.015-.019c.021-.029.06-.086.107-.077a.584.584,0,0,0,.059.008c.05,0,.077.009.1.042.031.05.077.1.144.074s.084-.123.088-.139.03-.879.082-1.187c.014-.076.137-.744.033-.878-.085-.109-.085-.134-.085-.181,0-.074-.149-.14-.151-.14l-.014,0c-.057-.017-.132-.049-.132-.126l-.01-.2a1.09,1.09,0,0,1,.013-.261l.039,0c.03,0,.067,0,.1,0a.169.169,0,0,0,.07-.009.094.094,0,0,0,.027-.024.077.077,0,0,1,.059-.035.176.176,0,0,1,.09.035l.01,0h.008a.126.126,0,0,0,.128-.091.217.217,0,0,0-.019-.176.123.123,0,0,0-.1-.046,1.29,1.29,0,0,0-.134.009c-.032,0-.059.006-.082.006-.053,0-.057-.016-.057-.038s0-.071,0-.106c0-.107-.009-.208.033-.252a.116.116,0,0,1,.108-.021.586.586,0,0,1,.167.056c.009.007.032.024.226.024a1.926,1.926,0,0,0,.313-.02c.013-.009.013-.025.015-.062,0-.054.007-.153.058-.146a.2.2,0,0,1,.082.029.078.078,0,0,0,.09,0,.422.422,0,0,0,.061-.048c.058-.051.133-.116.176-.068l.032.034a.5.5,0,0,1,.172.307l0,.051c0,.117.006.156.082.161a.593.593,0,0,1,.277.165c.024.039.083.058.178.058a.945.945,0,0,0,.106-.007.113.113,0,0,0,.057-.038.153.153,0,0,1,.11-.059.122.122,0,0,1,.065.026.13.13,0,0,0,.123.018,2.543,2.543,0,0,0,.427-.319l.005,0,0-.006c.008-.031.036-.095.067-.095a.046.046,0,0,1,.028.013.111.111,0,0,0,.186-.062v-.014c0-.082,0-.147.065-.189a.7.7,0,0,1,.09-.048l.053-.026c.05-.026.122-.063.141-.123a.776.776,0,0,1,.289.1l.015.009a.173.173,0,0,1,.1.139l0,.026a.618.618,0,0,0,.042.241,2.663,2.663,0,0,1,.128.276.517.517,0,0,0,0,.062.772.772,0,0,1,0,.149.679.679,0,0,0-.053.333.48.48,0,0,0,.059.089.406.406,0,0,1,.082.142.22.22,0,0,1-.02.163.128.128,0,0,0-.011.1.083.083,0,0,0,.052.05.751.751,0,0,1,.176.1l.005,0a.622.622,0,0,1,.087.071l.013.016c.045.057.092.111.134.111l.012,0c.022-.006.035-.027.04-.061a.643.643,0,0,0,0-.148.817.817,0,0,1-.006-.1.224.224,0,0,1,.079-.165.191.191,0,0,1,.152-.043l.043,0c.058,0,.093.01.1.044a.161.161,0,0,0,.163.116c.073-.006.121-.067.128-.165s.026-.278.026-.279c.007-.057.042-.221.108-.231.083-.013.51-.006.61,0,0,.127,0,.227,0,.248,0,.078.194.268.21.281a.367.367,0,0,1,.091.156.3.3,0,0,0,.163.2.045.045,0,0,0,.052-.014.068.068,0,0,1,.042-.022c.027,0,.086.052.13.093a.736.736,0,0,0,.085.075,1.14,1.14,0,0,0,.285.1.274.274,0,0,1,.146.074.628.628,0,0,1,.066.07.261.261,0,0,0,.208.122c.041,0,.066.009.077.027s-.007.085-.019.106l-.471,1.169-.027.064-.015.034c-.119.279-.242.58-.385.95-.007.019-.014.039-.022.06a.6.6,0,0,1-.093.191c-.115.129-.02.272.048.377l.026.039.028.045c.022.036.045.072.066.1a.464.464,0,0,1-.108.227.1.1,0,0,0-.044.071.164.164,0,0,0,.054.124c.035.037.008.166-.006.195a.292.292,0,0,0,0,.241.017.017,0,0,1,0,.018c-.049.062-.377.064-.575.05l-1.186.055-.011-.005-.02-.01a.235.235,0,0,0-.17.011.636.636,0,0,1-.065.016.081.081,0,0,1-.093-.052.88.88,0,0,0-.18-.2c-.022-.014-.022-.015-.031-.041a.741.741,0,0,0-.039-.1c-.065-.139-.475-.089-.542-.07s-.072.069-.085.109c0,.013-.013.041-.019.043a.352.352,0,0,0-.151.227.664.664,0,0,1-.143.251.254.254,0,0,1-.2.066c-.126,0-.146.109-.156.159a.163.163,0,0,1-.006.026c-.007.015-.016.017-.068.021l-.033,0a.484.484,0,0,0-.185.087c-.029.018-.058.037-.089.054a.151.151,0,0,1-.176-.024l-.006,0A.124.124,0,0,0,19.61,29a1.083,1.083,0,0,1-.263.223c-.021,0-.172-.046-.293-.083a2.77,2.77,0,0,0-.354-.1,2.667,2.667,0,0,1-.388-.15l-.041-.018c-.067-.029-.947-.469-1.034-.517a7.429,7.429,0,0,0-1.087-.172c-.083,0-.6-.134-.873-.208A1.061,1.061,0,0,1,15.289,27.662Zm7.31,3.665a1.618,1.618,0,0,1-.326-.017c-.01-.008-.032-.029-.058-.053a.775.775,0,0,0-.272-.205l-.093-.009a.817.817,0,0,1-.173-.023.334.334,0,0,1-.043-.041c-.048-.051-.107-.114-.168-.114h0l-.051,0c-.031,0-.066.006-.1.006a.173.173,0,0,1-.132-.037.2.2,0,0,0-.164-.059c-.029,0-.056,0-.078,0l-.022,0c-.039,0-.075-.05-.089-.069l-.005-.007a1.121,1.121,0,0,0-.216-.117,6.044,6.044,0,0,1-.423-.463s-.09-.134-.018-.2a.138.138,0,0,0,.052-.1.15.15,0,0,0-.052-.1.232.232,0,0,1-.03-.255c.068-.14.07-.151.067-.2,0,0-.016-.168-.1-.168a.092.092,0,0,0-.069.043.14.14,0,0,1-.058.037c-.028-.005-.286-.01-.338-.01h-.007l-.006,0a1.172,1.172,0,0,0-.223.17,2.673,2.673,0,0,1-.365.284,1.252,1.252,0,0,0-.234.218.528.528,0,0,1-.123.058.216.216,0,0,0-.116.092.638.638,0,0,1-.138.155l-.029.006a.329.329,0,0,1-.075.012.068.068,0,0,1-.076-.057c0-.005-.025-.05-.065-.05l-.466,0h-.01l-.007.007c-.031.034-.031.047-.031.052s-.026.038-.137.04h-.13c-.108,0-.151-.017-.154-.059-.007-.091-.01-.643-.01-.7a.182.182,0,0,0,.021-.119.047.047,0,0,0-.029-.027.106.106,0,0,0-.134.077.6.6,0,0,1-.186.165.13.13,0,0,0-.039.027.4.4,0,0,1-.306.1h0l0,0a.44.44,0,0,1-.123.024c-.054,0-.058-.022-.059-.029-.018-.1-.086-.263-.228-.285a1.237,1.237,0,0,0-.172-.008c-.151,0-.329.011-.333.011h-.022a.08.08,0,0,1-.063-.019.05.05,0,0,1,0-.042c.008-.022.033-.07.059-.07a.175.175,0,0,0,.148-.09c.017-.047.017-.153-.06-.183l-.021-.008c-.062-.023-.166-.061-.174-.131a.432.432,0,0,0-.163-.227l-.006,0c-.107-.084-.115-.113-.115-.12,0-.068-.124-.106-.125-.106a.1.1,0,0,1-.042-.065.054.054,0,0,1,.022-.053,1.284,1.284,0,0,1,.176-.115l.008,0,0-.009a.3.3,0,0,0,.011-.079c.148.04.768.205.868.205a7.737,7.737,0,0,1,1.065.167c.093.052.966.488,1.038.519l.041.018a2.117,2.117,0,0,0,.406.153c.028,0,.2.053.341.095a2.584,2.584,0,0,0,.306.085c.015,0,.059,0,.295-.236a.081.081,0,0,1,.087,0l.006,0a.2.2,0,0,0,.224.027c.032-.018.062-.037.091-.055a.462.462,0,0,1,.165-.08l.032,0c.053,0,.087-.007.105-.048a.177.177,0,0,0,.009-.035c.012-.064.03-.121.113-.123a.3.3,0,0,0,.227-.078.675.675,0,0,0,.157-.284.335.335,0,0,1,.118-.184c.029-.008.039-.039.05-.072s.025-.072.054-.08c.086-.023.443-.053.49.046a.717.717,0,0,1,.037.093.093.093,0,0,0,.05.066.865.865,0,0,1,.164.179.127.127,0,0,0,.139.075.657.657,0,0,0,.07-.018c.05-.015.107-.031.136-.015l.025.012c.017.007.018.008.024.154,0,.078.006.164.008.245,0,.119.007.232.011.289,0,.033,0,.073,0,.113a.4.4,0,0,0,.025.2.126.126,0,0,1,.021.123.2.2,0,0,0,0,.169.087.087,0,0,0,.082.045c.092,0,.451,0,.455,0h.012l.007-.01c.01-.015.031-.036.044-.036s.006,0,.012.01c.036.054.07.105.145.1a.149.149,0,0,0,.059-.025.085.085,0,0,1,.08-.017.08.08,0,0,1,.04.065.062.062,0,0,1-.02.063l-.031.018a.126.126,0,0,0-.077.089.247.247,0,0,0,.088.237.194.194,0,0,1,.066.15.172.172,0,0,1-.045.139.183.183,0,0,0-.042.177.473.473,0,0,1,0,.064c0,.02,0,.037,0,.052,0,.045,0,.055-.024.073a.249.249,0,0,0-.088.175.184.184,0,0,1,0,.024.3.3,0,0,1-.028.03.4.4,0,0,0-.122.182.208.208,0,0,0-.067-.016C22.766,31.327,22.685,31.327,22.6,31.327Zm2,2.222a1.275,1.275,0,0,0-.237-.038.156.156,0,0,1-.063-.125c0-.094-.011-.387-.012-.419a.09.09,0,0,0-.017-.069.151.151,0,0,0-.125-.045c-.141,0-.453.007-.457.007h-.009l-.006.006a.132.132,0,0,1-.064.036l-.032,0c-.032,0-.086.007-.14.007-.115,0-.183-.021-.184-.058,0-.114.015-.329.015-.331v-.006l0-.005a1,1,0,0,0-.1-.182l-.018-.016c-.023-.019-.091-.075-.088-.1a.323.323,0,0,0,.107-.148,1.17,1.17,0,0,0-.014-.437c-.005-.007-.013-.019-.023-.035a.724.724,0,0,0-.192-.22c0-.062.069-.131.111-.173a.18.18,0,0,0,.037-.044.154.154,0,0,0,.008-.036.2.2,0,0,1,.071-.146c.042-.032.042-.061.042-.109,0-.014,0-.03,0-.05a.507.507,0,0,0,0-.071c-.006-.055-.011-.107.026-.137a.213.213,0,0,0,.062-.176.235.235,0,0,0-.086-.185.2.2,0,0,1-.069-.189.082.082,0,0,1,.055-.061.369.369,0,0,0,.035-.02.105.105,0,0,0,.039-.106.122.122,0,0,0-.071-.1.129.129,0,0,0-.117.022.109.109,0,0,1-.041.019c-.046.006-.064-.019-.1-.076a.058.058,0,0,0-.049-.03h0a.107.107,0,0,0-.074.046c-.063,0-.361,0-.446,0a.041.041,0,0,1-.041-.022.152.152,0,0,1,0-.123.168.168,0,0,0-.024-.176.52.52,0,0,1-.015-.174c0-.04,0-.082,0-.116,0-.056-.007-.168-.011-.287,0-.081,0-.168-.008-.245a1.1,1.1,0,0,0-.01-.145l1.156-.054c.054,0,.531.034.61-.067a.062.062,0,0,0,.01-.059.25.25,0,0,1,0-.211c.011-.023.055-.182,0-.242a.124.124,0,0,1-.041-.088.052.052,0,0,1,.025-.038.476.476,0,0,0,.12-.22.629.629,0,0,1,.117.162.966.966,0,0,0,.041.258.1.1,0,0,0,.033.026.089.089,0,0,1,.053.078c0,.025,0,.057,0,.089,0,.1,0,.171.035.2s.219.16.226.166l.006,0s.026.008.085.03a.612.612,0,0,1,.136.129.451.451,0,0,0,.065.067c.029.018.711.038,1.278.052l2.33.076a.884.884,0,0,0-.06.2,2.35,2.35,0,0,0-.086,1.119,2.311,2.311,0,0,1,.07.3,1.056,1.056,0,0,0,0,.115.086.086,0,0,0,0,.015h0a1.634,1.634,0,0,1-.072.36,1.883,1.883,0,0,0-.1.51.8.8,0,0,1-.16.327c-.025.018-.318.282-.318.432,0,.124-.142.237-.207.269l-.03.013a.342.342,0,0,0-.247.369.158.158,0,0,1-.064.1.337.337,0,0,0-.161.26,3.237,3.237,0,0,1-.028.475.12.12,0,0,0-.036-.01.919.919,0,0,1-.188-.035.335.335,0,0,1,0-.061.377.377,0,0,0-.031-.215c-.021-.034-.042-.051-.065-.051h0c-.033,0-.052.034-.067.061a.185.185,0,0,1-.012.019c-.024.032-.154.141-.237.111a.187.187,0,0,0-.151,0,.608.608,0,0,1-.1.027c-.122.021-.262-.1-.386-.213l-.006-.006a.286.286,0,0,0-.386-.009c-.026.018-.079.049-.13.079s-.084.049-.105.063a.579.579,0,0,0-.106.147.7.7,0,0,1-.085.123,1.193,1.193,0,0,1-.308,0C24.652,33.627,24.626,33.561,24.6,33.549Zm2.1,3.874a.248.248,0,0,0-.162-.079.236.236,0,0,0-.1.025l-.076.036c-.075.036-.1.049-.146.042-.074-.011-.078-.015-.078-.045V37.39l-.009-.007a.105.105,0,0,1-.04-.1A.788.788,0,0,0,26.079,37c0-.009-.006-.027-.01-.051a1.337,1.337,0,0,0-.133-.474.65.65,0,0,0-.3-.119.277.277,0,0,0-.123-.036.125.125,0,0,0-.09.034c-.063.06-.094.069-.119.069h-.008a.915.915,0,0,1-.2-.039c-.007-.016-.031-.033-.229-.033h-.038c-.035,0-.043-.01-.044-.031,0-.063,0-.657,0-.663v-.008a1.292,1.292,0,0,0-.086-.191l-.008-.009c-.023-.026-.084-.1-.079-.154a.078.078,0,0,1,.031-.054c.011-.014.063-.09.048-.142a.059.059,0,0,0-.035-.039c-.061-.026-.066-.038-.071-.07a.738.738,0,0,1,.039-.324.233.233,0,0,0,.129-.1.206.206,0,0,0-.025-.15,2.829,2.829,0,0,1-.006-.479c-.007-.046-.019-.118-.035-.188a.969.969,0,0,0,.322-.007.554.554,0,0,0,.1-.137.7.7,0,0,1,.093-.133c.02-.014.061-.037.1-.062s.106-.062.133-.081a.247.247,0,0,1,.331.006l.006.006c.138.122.28.248.423.224a.639.639,0,0,0,.111-.029.143.143,0,0,1,.121,0c.112.041.261-.09.288-.127a.215.215,0,0,0,.015-.024c.005-.009.022-.038.029-.038s.009,0,.026.029a.343.343,0,0,1,.025.189.21.21,0,0,0,0,.085c0,.009.015.036.224.058.046,0,.062.04.084.1.007.017.014.035.022.052a.37.37,0,0,0,.259.221l.088.015a.19.19,0,0,1,.115.04,2.044,2.044,0,0,0,.217.16c.009,0,.043.03.078.057a.871.871,0,0,0,.3.184.584.584,0,0,1,.162.028c.006.057.031.373.034.424l-.038.037a.988.988,0,0,0-.124.134c-.012.017-.037.049-.067.085a1.06,1.06,0,0,0-.247.386.347.347,0,0,1-.094.218.214.214,0,0,0-.04.1.2.2,0,0,1-.026.078.417.417,0,0,1-.1.11c-.023.015-.367.351-.438.421a2.768,2.768,0,0,0-.484.9ZM29,40.968a1.211,1.211,0,0,0-.123.372c.005.07-.053.125-.1.165l-.025.024c-.037.04-.5.59-.522.615a1.093,1.093,0,0,1-.114.134c-.019.006-.093.044-.107.089-.007.021-.03.1-.054.183l-.036.121a1.954,1.954,0,0,1-.429.586.076.076,0,0,1-.03.009h0a.117.117,0,0,1,.013-.063l0-.008a2.211,2.211,0,0,1,.036-.319.692.692,0,0,1,.175-.276.239.239,0,0,0,.13-.161c0-.02-.072-.2-.118-.2h0c-.034,0-.091.106-.094.166a.313.313,0,0,1-.066.144.287.287,0,0,0-.053.051.179.179,0,0,1-.09-.031.761.761,0,0,0-.058-.064.838.838,0,0,1-.134-.163c-.013-.048-.037-.109-.078-.121a.349.349,0,0,1-.147-.082,1.228,1.228,0,0,0-.344-.242.706.706,0,0,1-.23-.183c0-.007-.04-.07-.089-.07a.059.059,0,0,0-.036.013.161.161,0,0,0-.047.064c-.012.025-.019.039-.05.047a.087.087,0,0,1-.089-.059.072.072,0,0,1,0-.079.042.042,0,0,0,.008-.035.254.254,0,0,0-.09-.135c-.031-.019-.19-.146-.269-.21l-.006,0h-.033a.359.359,0,0,0-.229.053.3.3,0,0,1-.17.047.051.051,0,0,1-.028-.007s0-.006.011-.022a2.46,2.46,0,0,0,.191-.319,1.438,1.438,0,0,1,.2-.246,5.109,5.109,0,0,0,.349-.553.281.281,0,0,1,.089-.048c.062,0,.062-.132.062-.137a.8.8,0,0,1,.225-.22c.024-.012.095-.067.209-.155a3.46,3.46,0,0,1,.361-.26.142.142,0,0,0,.089-.074,5.474,5.474,0,0,1,.606.031c.007,0,.162.026.211.03a.252.252,0,0,1,.151.065.328.328,0,0,0,.17.088.259.259,0,0,1,.143.065l.068.074c.28.3.387.409.424.411h.076a1.2,1.2,0,0,1,.22.011.223.223,0,0,1-.009.119.12.12,0,0,0-.088.043.054.054,0,0,0,0,.052.509.509,0,0,0,.023.045.118.118,0,0,1,.01.02.051.051,0,0,1-.02.041c-.024.014-.1.077-.111.084l-.006.005,0,.008a.055.055,0,0,0,.011.043.064.064,0,0,0,.052.021h.237A1.2,1.2,0,0,0,29,40.968Zm.788-2.306c.021.011.035.018.042.035a.116.116,0,0,1-.031.1.065.065,0,0,1-.032,0,.077.077,0,0,0-.071.014c-.059.063-.012.163.034.259.034.072.069.147.052.19-.006.014-.011.024-.015.033-.011.024-.023.05.008.069a.188.188,0,0,0,.048.02.075.075,0,0,1,.048.028.205.205,0,0,1,.016.1v.022c0,.087-.064.114-.122.122a.063.063,0,0,1-.027,0l-.012,0c-.023,0-.028.018-.038.055l0,.008a.4.4,0,0,0,0,.156.3.3,0,0,1,0,.137.376.376,0,0,1-.1.155,2.313,2.313,0,0,0-.33.356H29a.025.025,0,0,1-.018,0h0c.028-.022.081-.064.1-.073a.092.092,0,0,0,.04-.094.156.156,0,0,0-.013-.028c-.005-.009-.012-.022-.021-.042s0-.01,0-.011a.08.08,0,0,1,.054-.021.045.045,0,0,0,.034-.023.253.253,0,0,0,.011-.16c-.011-.03-.059-.037-.26-.036h-.071a3.769,3.769,0,0,1-.4-.4l-.07-.075a.3.3,0,0,0-.171-.077.282.282,0,0,1-.144-.076.3.3,0,0,0-.178-.077c-.046,0-.2-.029-.2-.029a5.514,5.514,0,0,0-.6-.032.176.176,0,0,0,0-.029c0-.022,0-.278.007-.455a.865.865,0,0,1,.234.01.346.346,0,0,1,.05.034.147.147,0,0,0,.073.038c.032,0,.383,0,.4,0a.215.215,0,0,1,.076.01l0,0a.1.1,0,0,0,.075.039h.189a.2.2,0,0,1,.053,0,.056.056,0,0,0,.044.044.109.109,0,0,0,.026,0,.089.089,0,0,0,.065-.022.1.1,0,0,0,.017-.086.079.079,0,0,1,0-.032c.006-.023.026-.05.044-.048a1,1,0,0,0,.129-.01c.022,0,.042-.027.063-.054l0-.006a.294.294,0,0,0,.025-.038c.005-.009.01-.018.016-.026.021-.03.066-.03.105-.031h.231a.115.115,0,0,1,.043.021.1.1,0,0,0,.072.045h.16a.12.12,0,0,0,.134-.083c.01-.03.02-.034.04-.035s.165,0,.254,0a.146.146,0,0,0,.006.038A.119.119,0,0,0,29.788,38.663Zm.071-.478c-.046,0-.074.063-.086.1-.007.02-.012.036-.018.051a.731.731,0,0,0-.028.089.608.608,0,0,0-.014.084c-.06,0-.23,0-.257,0a.081.081,0,0,0-.08.066c-.016.048-.043.051-.093.052h-.006c-.025,0-.061,0-.094,0h-.059c-.011,0-.023-.008-.036-.026a.149.149,0,0,0-.07-.038h-.24a.16.16,0,0,0-.142.05c-.007.01-.013.02-.018.03a.241.241,0,0,1-.021.032l0,.006a.172.172,0,0,1-.034.037.923.923,0,0,1-.121.009.1.1,0,0,0-.089.082.117.117,0,0,0,0,.05c0,.022,0,.035-.007.049a.071.071,0,0,1-.05,0c-.007,0-.007-.005-.007-.007-.008-.044-.079-.041-.1-.039H28c-.017,0-.027-.01-.043-.026l-.005-.005a.191.191,0,0,0-.107-.023c-.126,0-.37,0-.395,0a.132.132,0,0,1-.049-.029.39.39,0,0,0-.056-.038.816.816,0,0,0-.254-.015c0-.069,0-.119,0-.122s-.039-.228-.178-.248a.665.665,0,0,0-.092-.006H26.71c-.036,0-.045,0-.045,0a.578.578,0,0,1,.019-.208c.08-.063.054-.439.053-.443a.19.19,0,0,1,.017-.062.238.238,0,0,0,.022-.123c-.02-.287.473-.927.475-.931l.016-.016a.616.616,0,0,1,.133,0l.008.009a.082.082,0,0,0,.074.032h.258a.169.169,0,0,0,.07-.025.2.2,0,0,1,.046-.019,1.342,1.342,0,0,1,.3,0c.043,0,.085.005.121.006a.12.12,0,0,1,.059.028.229.229,0,0,0,.1.1.58.58,0,0,1,.079.046c.009.006.011.007.171,0,.089,0,.237-.007.253,0a.085.085,0,0,0,.028.012.237.237,0,0,1,.18.221,1.285,1.285,0,0,1,.016.238c0,.065,0,.109.033.135a.762.762,0,0,1,.193.29c0,.018,0,.032,0,.043,0,.04,0,.066.04.071h.038c.046,0,.155-.007.186.023a.02.02,0,0,1,.007.015c0,.01,0,.02,0,.031,0,.066,0,.147.068.152h.007c.041-.01.131-.019.153.016a.217.217,0,0,1,.018.184.068.068,0,0,1-.039.014Zm1.583-1.157a.06.06,0,0,0-.006.06.358.358,0,0,0,.025.047.123.123,0,0,1,.023.059.115.115,0,0,1-.09.04l-.022,0c-.02-.005-.028-.022-.037-.043a.058.058,0,0,0-.023-.032.121.121,0,0,0-.08-.027.238.238,0,0,0-.063.01,5.247,5.247,0,0,0-.557.333l-.078.069-.021.019c-.11.1-.223.2-.329.3l-.046.045a1.528,1.528,0,0,0-.124.131c-.012.015-.023.032-.035.049l-.011.016a.27.27,0,0,0-.037-.142c-.042-.067-.169-.043-.2-.037s-.023-.049-.023-.107c0-.011,0-.021,0-.031a.065.065,0,0,0-.021-.047.339.339,0,0,0-.219-.035h-.03c0-.006,0-.017,0-.027s0-.026,0-.044a.765.765,0,0,0-.211-.323c-.016-.012-.016-.039-.016-.1a1.317,1.317,0,0,0-.017-.245.283.283,0,0,0-.212-.257l-.013,0c-.014-.011-.049-.013-.282-.006-.062,0-.132,0-.149,0a.6.6,0,0,0-.08-.047.184.184,0,0,1-.08-.075c-.015-.034-.073-.05-.095-.054l-.124-.006a1.361,1.361,0,0,0-.31,0,.221.221,0,0,0-.059.024.153.153,0,0,1-.05.02h-.258c-.027,0-.031-.006-.04-.016l-.013-.014a.222.222,0,0,0-.113-.014c.156-.152.348-.337.364-.349a.464.464,0,0,0,.113-.122.242.242,0,0,0,.033-.095.177.177,0,0,1,.03-.083.394.394,0,0,0,.1-.244,1.214,1.214,0,0,1,.237-.36c.032-.039.057-.07.07-.088a.95.95,0,0,1,.118-.127.38.38,0,0,0,.046-.047l.211-.127s.109-.07.158-.017l.024.027c.033.037.04.044.075.039h.011a.17.17,0,0,0,.11-.053.755.755,0,0,1,.189,0,.165.165,0,0,1,.111.105c0,.008.005.016.008.024a.173.173,0,0,0,.042.082.089.089,0,0,0,.076.022.061.061,0,0,0,.044-.038c.013-.032.031-.032.045-.031l.228,0h.006l0,0a.126.126,0,0,0,.057-.057c.009-.018.012-.021.023-.023a.075.075,0,0,1,.074.04l.006.008a.107.107,0,0,0,.131.007.082.082,0,0,0,.029-.057.075.075,0,0,1,.029-.032c.016-.011.03-.013.056.007l.011.01c.019.018.046.042.076.034a.087.087,0,0,1,.057.012.051.051,0,0,1,.023.038.373.373,0,0,0,.087.17.555.555,0,0,1,.007.15c0,.017,0,.032,0,.043a.438.438,0,0,0,.082.309c.076.074.1.09.164.092H30.7c.02,0,.046,0,.053.011s.009.023-.021.083a.389.389,0,0,0-.029.311l0,.013a.8.8,0,0,0,.075.2,1.086,1.086,0,0,0,.071.115l.031.046a.155.155,0,0,0,.106.072.246.246,0,0,0,.112-.019,1.569,1.569,0,0,0,.187-.08l.261-.14a.105.105,0,0,1,.129.038c.058.078.086.086.126.09h.014c.041.006.084.025.086.036s0,.012-.039.032a.454.454,0,0,1-.1.037c-.039.011-.072.02-.088.064a.512.512,0,0,0,.009.223A.4.4,0,0,0,31.441,37.029Zm2.183-.865a1.522,1.522,0,0,0-.482.387.163.163,0,0,0,0,.074.184.184,0,0,1-.018.136c-.025.027-.076.035-.15.024a2.4,2.4,0,0,1-.365-.079.126.126,0,0,0-.082-.137c-.08-.019-.121.019-.121.108,0,.029-.031.044-.091.044l-.054,0c-.03,0-.046.029-.059.052s-.016.028-.021.029c-.03.007-.046-.046-.059-.081,0-.01-.007-.02-.011-.028l0-.011-.011,0a.3.3,0,0,0-.053-.006.066.066,0,0,0-.059.022.041.041,0,0,0,0,.04.243.243,0,0,0,.031.051.13.13,0,0,1,.031.06c0,.048-.026.048-.035.048a.077.077,0,0,1-.052-.024c-.005-.006-.006-.01-.006-.01a.15.15,0,0,0,0-.094c-.008-.029-.016-.038-.024-.042a.1.1,0,0,0-.037-.007c-.04,0-.066.018-.07.049a.472.472,0,0,0,0,.063.4.4,0,0,1,0,.066.223.223,0,0,1-.081.027.482.482,0,0,1-.012-.2c.008-.021.02-.026.058-.036a.488.488,0,0,0,.1-.04c.017-.009.069-.037.062-.079s-.119-.072-.124-.072l-.016,0c-.026,0-.044,0-.094-.072a.165.165,0,0,0-.046-.042l.07-.019a4.05,4.05,0,0,1,.57-.128,2.084,2.084,0,0,0,.39-.091l.048-.015a.6.6,0,0,0,.26-.128.343.343,0,0,0,.076-.2l.006-.035c0-.012,0-.023.005-.035a.174.174,0,0,1,.038-.107.875.875,0,0,0,.1-.119l0-.006.008-.011a.7.7,0,0,1,.11.134c.007.044.089.134.133.137l.211.01a.122.122,0,0,0-.006.033c0,.017,0,.039,0,.064C33.7,35.965,33.706,36.144,33.624,36.164Zm.774-1.53a1.839,1.839,0,0,0-.275.454c0,.012,0,.024,0,.036a.193.193,0,0,1-.069.159,2.08,2.08,0,0,0-.339.433l-.226-.011a.217.217,0,0,1-.091-.1.642.642,0,0,0-.137-.173.046.046,0,0,0,0-.005,1.142,1.142,0,0,1,.094-.307.879.879,0,0,1,.178-.064c.055-.007.15-.283.15-.332a.094.094,0,0,1,.045-.085c.028-.017.054-.146.055-.152a.219.219,0,0,0,0-.154,1.061,1.061,0,0,1-.062-.089l0-.006c-.007-.012-.015-.025-.013-.034a.054.054,0,0,1,.026-.027.12.12,0,0,0,.062-.084.091.091,0,0,0-.02-.082.454.454,0,0,1-.075-.1c-.009-.018,0-.033.034-.063l.017-.017.011-.013a.123.123,0,0,1,.023-.025c.01,0,.014-.011.027-.031s.074-.109.12-.106a.345.345,0,0,0,.087-.009c.063-.012.1-.018.136.025a.8.8,0,0,0,.315.273.772.772,0,0,0-.022.187A1.686,1.686,0,0,1,34.4,34.635Zm1.256-4.69a1.834,1.834,0,0,0-.16.373,1.434,1.434,0,0,1-.269.33l-.016.012a.17.17,0,0,1-.081.045c-.006,0-.023,0-.035-.044a.339.339,0,0,1-.011-.107.064.064,0,0,0-.011-.051.073.073,0,0,0-.056-.015c-.083,0-.083.1-.084.178,0,.021,0,.042,0,.06-.007.081-.011,1.022-.011,1.063a7.891,7.891,0,0,1-.025.868,1.712,1.712,0,0,0-.173.44c0,.065.006.366.007.416-.026.039-.165.251-.206.32l-.017.027c-.009.015-.018.028-.025.042a.7.7,0,0,1-.3-.257.119.119,0,0,0-.068-.047.836.836,0,0,0,0-.18.277.277,0,0,0-.058-.1.419.419,0,0,1-.035-.047.151.151,0,0,1,0-.145.13.13,0,0,1,.1-.08c.055-.007.057-.184.057-.2,0-.077.033-.089.066-.1a.173.173,0,0,0,.13-.13c.013-.064-.042-.131-.091-.176a.74.74,0,0,1-.093-.114c-.012-.021-.046-.03-.211-.022h-.012a.123.123,0,0,1-.015-.015.275.275,0,0,0-.037-.036.2.2,0,0,0-.123-.019c-.027,0-.058,0-.094,0a.285.285,0,0,1-.2-.138l-.019-.035a.942.942,0,0,0-.107-.174c-.029-.029-.092-.028-.177-.023a.5.5,0,0,1-.063,0,.252.252,0,0,1-.133-.045.711.711,0,0,0-.25-.129.424.424,0,0,1-.134-.083l-.009-.007a.165.165,0,0,0-.1-.023.074.074,0,0,0-.049.013.051.051,0,0,0-.015.026l0,.006c-.017.021-.071.015-.106.011l-.025,0c-.045,0-.052-.029-.064-.087l-.006-.028c-.019-.087-.218-.205-.22-.206a.124.124,0,0,0-.1,0,.105.105,0,0,0-.065.067.3.3,0,0,1-.177.15,1.392,1.392,0,0,0-.332.188,2.381,2.381,0,0,1-.2.125.05.05,0,0,1-.045,0c-.014-.008-.033-.032-.043-.1,0-.025,0-.128,0-.219a2.029,2.029,0,0,0,0-.211c-.009-.045-.061-.082-.1-.108a2.959,2.959,0,0,1-.014-.524h0v-.164l-.006-.006s-.045-.048-.067-.074a.749.749,0,0,1-.021-.206.137.137,0,0,0-.016-.061c-.008-.021-.03-.078-.023-.089a.1.1,0,0,1,.065-.014h.008l.007,0c.006,0,.063-.039.068-.085a.064.064,0,0,0-.023-.055l-.021-.019a.212.212,0,0,1-.038-.039l-.022,0h.025a.112.112,0,0,0,.014-.1.094.094,0,0,0-.069-.048.343.343,0,0,0-.079-.011c-.018,0-.018,0-.032-.018-.028-.037-.05-.144-.01-.179a.73.73,0,0,0,.121-.175,1.374,1.374,0,0,1,.153-.227c.034-.005.054-.066.057-.1a.113.113,0,0,0,0-.045.227.227,0,0,1,.11-.029c.022.017.173.19.268.3a.245.245,0,0,0,.184.075.353.353,0,0,0,.113-.02c.161-.054.561-.341.557-.415,0-.007,0-.018,0-.03,0-.1-.007-.212-.054-.253a.216.216,0,0,1-.059-.122.027.027,0,0,1,0-.019c.013-.013.13-.126.209-.09s.186.088.188.089a.5.5,0,0,0,.419-.046,1.145,1.145,0,0,1,.233-.125.33.33,0,0,0,.076-.038c.028-.021.144-.12.242-.206.072,0,.178,0,.2.033a.827.827,0,0,0,.059.068c.03.032.075.081.075.1a.177.177,0,0,1-.009.042.1.1,0,0,0,0,.08.044.044,0,0,0,.032.02l.014,0a.237.237,0,0,0,.227-.043c.02-.022.035-.042.048-.06.031-.041.047-.06.076-.064a.357.357,0,0,1,.044,0c.034,0,.08,0,.084-.049.011-.122.04-.165.064-.165a.15.15,0,0,0,.132-.095.141.141,0,0,0,.009-.024s0-.008,0-.008h.012a.389.389,0,0,1,.141.01.083.083,0,0,0,.057.066,1.06,1.06,0,0,0,.123.031.422.422,0,0,1,.052.048.14.14,0,0,0,.093.077l.025,0c.048-.009.077-.009.085.016a.328.328,0,0,0,.091.152.213.213,0,0,1,.077.129c0,.063.018.2.019.2l0,.007a.554.554,0,0,0,.044.079c.011.014.049.077.063.1l.006.006a.121.121,0,0,1,.045.072.064.064,0,0,1-.025.05.166.166,0,0,0-.065.116.086.086,0,0,0,.028.063.127.127,0,0,1,.03.071.015.015,0,0,1-.007.011c-.046.031-.159.093-.16.093-.088.048-.081.076-.078.085s.253.362.343.383l.152.035C35.709,29.832,35.682,29.889,35.655,29.945Zm.126-.267-.027.059-.162-.037a1.5,1.5,0,0,1-.308-.346.248.248,0,0,1,.054-.039s.116-.063.164-.1a.06.06,0,0,0,.026-.042.167.167,0,0,0-.041-.108.045.045,0,0,1-.016-.033.129.129,0,0,1,.051-.083.107.107,0,0,0,.039-.086.159.159,0,0,0-.06-.1c-.011-.018-.05-.084-.065-.1A.491.491,0,0,1,35.4,28.6c0-.01,0-.038-.007-.071a.219.219,0,0,1,.1.055.163.163,0,0,0,.136.054.2.2,0,0,1,.077.041l.017.012a.537.537,0,0,0,.138.044,4.008,4.008,0,0,1,.379.354A3.521,3.521,0,0,0,35.78,29.678ZM36.874,28.4c0,.017-.046.084-.309.343l-.021.02s-.126.131-.273.295a2.918,2.918,0,0,0-.4-.366.513.513,0,0,1-.123-.038l-.015-.01a.214.214,0,0,0-.1-.049.12.12,0,0,1-.1-.04.275.275,0,0,0-.139-.072c0-.029-.005-.058-.006-.079a.2.2,0,0,0-.031-.089.813.813,0,0,1,.242-.131h0a.454.454,0,0,1,.169.064.442.442,0,0,1,.058.042.267.267,0,0,0,.128.069,1.142,1.142,0,0,0,.125.006h.167a.188.188,0,0,0,.168-.086c.01-.011.019-.022.029-.031a1.716,1.716,0,0,1,.144-.124l.007-.006a.124.124,0,0,1,.026-.018c.023,0,.267.011.355.014A1.7,1.7,0,0,0,36.874,28.4Zm.185-.494c-.021.045-.045.1-.069.16-.127,0-.349-.013-.369-.015a.1.1,0,0,0-.058.028l-.006,0a1.755,1.755,0,0,0-.148.128c-.011.01-.021.022-.032.034a.147.147,0,0,1-.132.07H36.16a1.6,1.6,0,0,1-.2,0,.237.237,0,0,1-.105-.06.476.476,0,0,0-.065-.046.489.489,0,0,0-.187-.069.792.792,0,0,0-.273.139.232.232,0,0,0-.038-.037.294.294,0,0,1-.074-.128c-.021-.068-.1-.053-.136-.047l-.016,0a.13.13,0,0,1-.05-.043c0-.006-.006-.022-.071-.076l-.01,0a1.07,1.07,0,0,1-.122-.03c-.019-.009-.028-.016-.028-.03a.034.034,0,0,0-.011-.025c-.02-.02-.07-.027-.176-.024h-.011c-.032,0-.04.026-.044.041a.1.1,0,0,1-.006.017.108.108,0,0,1-.092.07c-.059,0-.1.069-.108.206,0,.005,0,.008-.04.008a.4.4,0,0,0-.049,0c-.049.006-.074.039-.106.081-.013.017-.028.036-.046.057-.049.055-.137.038-.185.029l-.016,0A.13.13,0,0,1,33.9,28.3a.2.2,0,0,0,.011-.055c0-.033-.033-.071-.087-.129a.839.839,0,0,1-.056-.064c-.032-.043-.12-.052-.184-.052l.1-.084c.4-.429.386-.462.381-.476s-.007-.021-.01-.031a.431.431,0,0,0-.018-.052.1.1,0,0,0-.027-.041L33.99,27.3c-.009-.005-.012-.008-.014-.012a.113.113,0,0,1,0-.042v-.015A.319.319,0,0,1,34,27.084a.051.051,0,0,1,.01-.012.068.068,0,0,0,.016.038.1.1,0,0,0,.081.013c.026,0,.045,0,.05,0a.11.11,0,0,0,.073.047.149.149,0,0,0,.116-.019l.014-.009c.041-.029.053-.035.064-.028s.043.036.08.069a1.274,1.274,0,0,0,.25.2.369.369,0,0,0,.082.01.189.189,0,0,0,.129-.045c.08.006.207.016.221.013a.071.071,0,0,0,.039-.028.076.076,0,0,1,.012-.012.048.048,0,0,1,.041,0,.03.03,0,0,1,.014.028.047.047,0,0,0,.029.045.133.133,0,0,0,.114-.029c.039-.037.079-.076.121-.111l.005,0a.352.352,0,0,1,.048-.036.426.426,0,0,1,.05-.024.366.366,0,0,0,.07-.035.14.14,0,0,0,.034-.035l.012-.015a.137.137,0,0,1,.107-.013c.014,0,.022.011.023.019a.309.309,0,0,1-.032.174s-.122.142-.1.2a.209.209,0,0,0,.044.062c.02.022.046.052.046.068a.14.14,0,0,0,.055.107.088.088,0,0,0,.051.016A.1.1,0,0,0,36,27.735a.4.4,0,0,0,.151-.157l0-.011s0-.1.055-.1a1.055,1.055,0,0,1,.113,0h.022l.163,0h.015a.1.1,0,0,0,.08-.021l.031-.026a.462.462,0,0,0,.1-.1l.019-.03a.523.523,0,0,1,.052-.073c.007-.008.02-.023.029-.023l.289,0A3.157,3.157,0,0,1,37.059,27.9Z" transform="translate(-15.015 -19.803)"/></g></g></g></svg>