<svg xmlns="http://www.w3.org/2000/svg" width="64.805" height="68.765" viewBox="0 0 64.805 68.765"><defs><style>.a{fill:#4a154b;}.b{fill:#f2efdf;}</style></defs><g transform="translate(-15.015 -19.803)"><g transform="translate(15.015 19.803)"><g transform="translate(0.066 0.066)"><path class="a" d="M249.914,74.929a.653.653,0,0,0-.211.433v.907s.317.514.35.579.284.361.437.361.623-.022.842,0,.754.076.885-.131c.145-.229.46-.281.7-.363a.877.877,0,0,0,.341-.186,1.155,1.155,0,0,0,.172-.411c.053-.128.189-.214.24-.346a.85.85,0,0,0,.015-.328c0-.131.013-.5-.12-.585s-.122-.338-.3-.383a1.532,1.532,0,0,0-.721.109c-.273.12-.231.158-.394.169s-1.081.017-1.081.017-.426-.251-.645-.175A1.406,1.406,0,0,0,249.914,74.929Z" transform="translate(-211.632 -65.646)"/><path class="a" d="M255.666,65.966c-.087.04-.289.076-.217.278a.344.344,0,0,0,.4.17C256.052,66.308,255.923,65.847,255.666,65.966Z" transform="translate(-216.432 -58.514)"/><path class="a" d="M261.149,71.54s.2-.306.284-.3.131.076.284.147.076.3,0,.3-.568.075-.568.075S261.006,71.731,261.149,71.54Z" transform="translate(-221.165 -62.951)"/><path class="a" d="M251.039,69.052c-.04-.059-.2-.086-.225.023s-.022.142-.088.208-.229.186-.35.066.065-.4.186-.4.24-.251.24-.251.022-.306.164-.219.251.186.251.252-.044.163.044.186.24-.054.24-.087.229-.219.339-.055.109.24.055.317-.23.262-.328.252a2.665,2.665,0,0,1-.332-.032c-.168-.04-.131-.1-.189-.239A.091.091,0,0,0,251.039,69.052Z" transform="translate(-212.164 -60.618)"/><path class="a" d="M240.231,75.98c0-.013,0-.026,0-.038a.209.209,0,0,1,.13-.192c.164-.065.328-.536.175-.536-.095,0-.195.12-.255.178-.1.1-.184.2-.275.3a1.018,1.018,0,0,0-.158.469.758.758,0,0,1-.317.311.633.633,0,0,0-.317.224c-.066.114-.218.514-.218.514s-.063.153,0,.153c.142,0,.472-.434.525-.546.042-.089.131-.077.142-.033.054.216.32.074.251-.082-.052-.118,0-.4.175-.322a.239.239,0,0,1,.129.1c.028.055.025.1.1.089.055,0,.121-.034.121-.1a.509.509,0,0,0-.051-.274C240.329,76.109,240.232,76.113,240.231,75.98Z" transform="translate(-202.643 -66.276)"/><path class="a" d="M80.085,40.765a3.447,3.447,0,0,1-.24-1.41,3.607,3.607,0,0,0-1.082-2.022c-.175-.24-.995-.12-1.541-.164a2.513,2.513,0,0,1-1.159-.59C75.92,36.4,73.819,34.73,73.2,34.2a6.728,6.728,0,0,0-2.11-.995c-.109.022-.416.164-.492.164s-.765-.066-.962.186c-.177.226-.317.12-.426.011s-.59-.208-.733-.306a3.447,3.447,0,0,0-1.027-.12,1.226,1.226,0,0,1-.754-.262c-.3-.219-1.191-.164-1.345-.186s-.251.3-.284.4a.366.366,0,0,1-.239.187.3.3,0,0,1-.008-.141c0-.084,0-.169,0-.253-.011-.175-.306-.219-.394-.1s.011.416.076.547-.208.284-.351.492-.228.219-.316.12.175-.634.284-.853-.1-.481-.1-.623.077-.536-.065-.59-.273-.328-.372-.536a1.036,1.036,0,0,0-.35-.4.762.762,0,0,0-.35.208c-.076.109-.109.262-.273.284s-.186-.262-.24-.492-.4-.284-.612-.273a.464.464,0,0,1-.437-.142.636.636,0,0,0-.426-.273,2,2,0,0,1-.437-.077A3.383,3.383,0,0,0,59,29.812a4.688,4.688,0,0,1-.678.055c-.166-.028-.5.376-.586.489-.2.252-.108.577-.19.866-.044.153-.492.394-.525.415a2.263,2.263,0,0,1-.448.033.37.37,0,0,0-.3.175c-.153.2-.539.492-.788.295-.143-.114-.9-.219-.961.033-.039.167-.43.171-.549.106-.059-.032-.073-.083-.141-.106a.565.565,0,0,0-.13-.014c-.112-.009-.226-.013-.338-.016-.186,0-.372,0-.558,0-.142,0-.175.055-.24.186s-.077.273-.229.262-.131-.492-.109-.634.262-.109.579-.065.689-.077.721-.2a2.836,2.836,0,0,0-.558-.875c-.077-.055-.24.219-.273.306a1.281,1.281,0,0,1-.962.514c-.481-.022-.153-.536-.1-.809a3.1,3.1,0,0,1,.59-.907,9.626,9.626,0,0,1,.645-.787,5.079,5.079,0,0,0,.9-1.015,4.589,4.589,0,0,1,.89-.985c.186-.153.109-.459.219-.7s-.131-.448-.273-.721-.645-.087-.721-.131-.1-.142.055-.273.1-.23,0-.459-.394-.022-.448-.022-.044-.055-.1-.339-.525-1.071-.546-1.224a5.15,5.15,0,0,1-.087-1.039c0-.634-.536-.885-.568-.984a3.061,3.061,0,0,0-.4-.459s-.268.109-.071.372-.055.667-.273.82a.761.761,0,0,0-.284.59,1.828,1.828,0,0,1-.4.754,3.647,3.647,0,0,0-.383.864c.087.372-.252.711-.372.832a.973.973,0,0,1-.864,0,1.167,1.167,0,0,0-.929.053,1.319,1.319,0,0,1-.8.033c-.284-.055-.175-.142-.383-.219a3.613,3.613,0,0,1-.547-.2.883.883,0,0,0-.623.022,2.634,2.634,0,0,1-.383.175,9.564,9.564,0,0,0-1.006.066c-.131.044.087.372.2.525s0,.481,0,.481a4.186,4.186,0,0,1-1.388-.011,1.278,1.278,0,0,0-.94.054c-.055.066-.394.481-.481.481s-.361.022-.437.153a.677.677,0,0,1-.131.175l-.35.033c-.35.033-.415.306-.481.372a1.135,1.135,0,0,1-.645.055c-.3-.033-1.071-.94-1.181-1.06a1.072,1.072,0,0,1-.142-.623c-.011-.262-.361-.567-.361-.567s-.077-.821-.065-.975.022-.164.186-.317.011-.372,0-.525.077-.273.35-.536.011-.4,0-.547-.426-.514-.514-.546a.319.319,0,0,1-.175-.273c.011-.1.175-.186.229-.372s-.219-.394-.393-.6-.536-.077-.787-.077-.175.426-.208.568a6.735,6.735,0,0,1-.809.875.753.753,0,0,1-.47.262,1.108,1.108,0,0,0-.525.175,1.493,1.493,0,0,1-.306.142s-.8.044-1.06.044-.186.175-.186.175a1.416,1.416,0,0,1-.077.514.387.387,0,0,1-.525-.022c-.164-.186-.328-.328-.525-.306a.315.315,0,0,1-.273-.066c-.372-.284-.416-.033-.634.011s-.612-.251-1.181-.4-.273.35-.273.35l1.213.842c.109.077-.087.175-.087.175-.186.011-.219.273-.219.273a2.2,2.2,0,0,0,.415.492c.245.2.175.678.2.907s.262.12.656.164a.26.26,0,0,1,.235.305c-.008.186-.243.3-.4.383a4.147,4.147,0,0,0-.416.215c-.232.152-.219.39-.219.649a.267.267,0,0,1-.437.131c-.252-.208-.383.273-.383.273a7.635,7.635,0,0,1-1.224.918c-.284.087-.273-.109-.525-.131s-.4.273-.5.284-.645.077-.765-.12a1.776,1.776,0,0,0-.864-.514c-.186-.011-.164-.087-.186-.557a1.721,1.721,0,0,0-.612-1.039c-.23-.251-.6.23-.776.328s-.153-.055-.459-.1-.219.59-.262.623a5.742,5.742,0,0,1-1.5-.011,1.849,1.849,0,0,0-.514-.175c-.634-.109-.481.558-.481,1.17,0,.292.39.131.864.131.328,0,.361.328.3.568a.315.315,0,0,1-.328.219c-.414-.273-.492.022-.579.065a2.712,2.712,0,0,1-.6,0c-.109,0-.08.833-.08.833l.029.576c0,.335.416.416.466.437s.4.2.4.35.007.241.262.568c.295.378-.109,2.514-.109,2.514-.153.918-.24,3.483-.24,3.483s-.076.3-.214.347-.233-.015-.342-.19-.284-.131-.5-.175-.372.255-.415.3a1.341,1.341,0,0,1-.27.124c-.4-.044-.488.313-.612.335a.5.5,0,0,1-.379-.146c-.087-.087-.918.6-.918.6s-1.093.882-1.268.969-.226.379-.226.43-.007.809-.014.911-.1.182-.284.233c-.161.045-.177.32-.213.45-.026.093-.136.339.017.381a.82.82,0,0,1,.335.262c.015.066-.1.372-.255.313s-.371.087-.5.124-.109.9-.08,1.027a.7.7,0,0,1-.022.3,3.8,3.8,0,0,0-.525.343c-.211.175.007.437.08.459s.321.124.321.248.306.357.379.416.422.35.452.62.423.386.612.459.175.35.139.452a.457.457,0,0,1-.372.219c-.146,0-.233.248-.233.248-.124.321.314.263.314.263a11.367,11.367,0,0,1,1.457-.007c.372.058.561.51.612.78s.619.065.619.065a1.381,1.381,0,0,0,1.035-.379c.1-.029.561-.394.59-.532a.238.238,0,0,1,.306-.175c.131.044-.022.35-.022.35s.007,1.793.029,2.077.452.233.9.226.466-.153.466-.182.073-.109.073-.109l1.363-.015c.08,0,.131.109.131.109.087.335.5.16.591.153s.357-.343.452-.481a.608.608,0,0,1,.284-.241,1.228,1.228,0,0,0,.416-.2,3.867,3.867,0,0,1,.656-.612,7.548,7.548,0,0,0,1.093-.853,3.586,3.586,0,0,1,.634-.481s.9.014.976.029.226-.124.226-.124c.262-.335.372.2.379.321s.014.124-.189.546a.739.739,0,0,0,.1.824.319.319,0,0,1,0,.51c-.255.233.044.67.044.67s1.159,1.348,1.268,1.377a3.524,3.524,0,0,1,.6.321c.029.036.168.262.343.248s.532-.073.707.131.67.109.882.1.481.386.583.444a4.7,4.7,0,0,0,.8.1c.233.029.809.649.933.743a10.968,10.968,0,0,0,1.647.073c.466.029.809.721.9.838a3.576,3.576,0,0,1,.029,1.217.872.872,0,0,1-.291.4c-.145.109.227.378.307.451a3.252,3.252,0,0,1,.284.51s-.058.634-.044.977,1.006.2,1.108.2a.464.464,0,0,0,.233-.124s.918-.022,1.334-.022.35.262.35.262.037.939.037,1.231a.522.522,0,0,0,.226.43,3.985,3.985,0,0,1,.692.109c.16.066.313,1.085.313,1.085a8.706,8.706,0,0,0,.029,1.428.547.547,0,0,1,.065.379.628.628,0,0,1-.335.262c-.167.051-.182.9-.16,1.02s.058.175.248.255-.066.43-.066.43c-.284.24.1.634.168.714a4.211,4.211,0,0,1,.241.539s-.022,1.756-.008,1.946.211.146.306.146.591,0,.612.065.532.139.641.146.219-.022.422-.219.562.022.562.022a1.8,1.8,0,0,1,.86.335,7.706,7.706,0,0,1,.394,1.494,2.245,2.245,0,0,1,.022.8.369.369,0,0,0,.139.357c0,.153.087.168.284.2s.277-.044.685-.233.576.065.816.248-.036.51-.022.678a4.3,4.3,0,0,1-.131,1.239c-.095.058-.087.539-.08.663s.422.022.787.073.466.67.466.67-.029,1.705-.029,1.807a.371.371,0,0,1-.263.371c-.209.067-1.508,1.129-1.676,1.216s-.692.568-.692.7-.037.335-.117.335a.784.784,0,0,0-.313.168,17.013,17.013,0,0,1-1.006,1.6,3.965,3.965,0,0,0-.6.757,7.666,7.666,0,0,1-.546.911c-.146.189.1.189.1.189s.408-.007.547-.16.692-.131.692-.131.678.546.794.619.277.343.226.4c-.17.194.071.566.309.51.209-.049.156-.216.311-.335.131-.1.269.146.269.146s.438.5.715.567a3.342,3.342,0,0,1,.976.692,1.087,1.087,0,0,0,.46.255c.074.022.138.153.179.306a4.756,4.756,0,0,0,.571.684c.066.095.343.124.343.124a1.075,1.075,0,0,1,.16-.16.928.928,0,0,0,.226-.474.671.671,0,0,1,.218-.423,1.455,1.455,0,0,1,.27.532.652.652,0,0,1-.35.416,2.065,2.065,0,0,0-.539.838,7.372,7.372,0,0,0-.109.955s-.175.386.138.24a5.7,5.7,0,0,0,1.29-1.755c.095-.321.233-.794.262-.889s.2-.2.27-.219a2.9,2.9,0,0,0,.364-.416s1.414-1.676,1.523-1.793.393-.32.372-.6a3.681,3.681,0,0,1,.357-1.064,6.919,6.919,0,0,1,1.712-2.332c.153-.073.313-.488.313-.488.087-.227-.084-.6-.016-.862.056-.213.022-.1.177-.124.219-.029.426-.143.414-.425a.82.82,0,0,0-.061-.382c-.077-.115-.195-.093-.3-.16-.058-.036-.022-.058.044-.219.136-.331-.524-1.012-.261-1.294.068-.073.2.02.286-.027a.391.391,0,0,0,.119-.376c-.069-.154-.264-.117-.325-.3a1.007,1.007,0,0,1,.029-.452c.037-.154.262-.64.335-.618s.306-.248.306-.248a17.921,17.921,0,0,1,1.924-1.887,15.989,15.989,0,0,1,1.6-.962c.262-.073.343.029.379.051s.043.182.182.219c.186.049.417-.092.408-.175-.016-.157-.079-.183-.146-.335-.093-.211.525-.394.678-.394a.761.761,0,0,0,.415-.117,2.233,2.233,0,0,0,.022-.408c.014-.109.19-.087.219-.073a.457.457,0,0,1,.051.306c-.084.134.379.376.391,0,0-.116-.142-.241-.183-.349-.055-.142.263-.077.263-.077.053.125.11.4.278.356.092-.022.125-.247.225-.236.295.032.48-.022.48-.186s.044-.306.273-.252.186.383.186.383a5.9,5.9,0,0,0,1.126.252c.831.131.5-.568.568-.722A4.479,4.479,0,0,1,69.8,68.06c.35-.088.241-.853.241-1.148s.8-1.224,1.038-1.443a.729.729,0,0,0,.23-.612,5.441,5.441,0,0,1,.787-1.29,5.642,5.642,0,0,0,.142-1.519,1.189,1.189,0,0,1,.23-.842c.131-.219.612-.951.612-.951s-.022-1.027-.022-1.235a5.014,5.014,0,0,1,.492-1.246,23.657,23.657,0,0,0,.087-2.58s.011-2.864.033-3.1-.044-.637.186-.637.066.077.164.459.426.033.481,0,.809-.809.82-1.017a19.148,19.148,0,0,1,.831-1.847,19.483,19.483,0,0,1,2.219-2.667,6.6,6.6,0,0,0,.984-1.1,8.948,8.948,0,0,1,.536-1.421A15.383,15.383,0,0,0,80.085,40.765ZM55.592,82.7c-.328.255-.286.308-.3.488a.48.48,0,0,1-.146.335c-.09.079-.3.2-.3.423s0,.277-.109.342a3.826,3.826,0,0,0-.593.533c-.085.08-.171.16-.255.241-.025.024-.093.067-.106.1,0,0-.043.154-.059.248a1.431,1.431,0,0,1-.051.211s-.117.182-.1,0c0-.062-.007-.394-.007-.394a.767.767,0,0,1-.03-.342.512.512,0,0,1,.19-.269c.1-.095.153-.087.153-.175s-.037-.248.051-.27a.807.807,0,0,0,.42-.285c.192-.233.126-.212.156-.395.014-.081.1-.157.145-.224s.1-.117.124-.16a1.923,1.923,0,0,0,.022-.255c.007-.083-.039-.126.044-.175s.146-.19.073-.233-.386-.19-.168-.3c.084-.042.214-.131.305-.067.135.094.059.315.277.315.182,0,.168-.138.3-.029S55.716,82.6,55.592,82.7Z" transform="translate(-15.419 -20.207)"/></g><g transform="translate(0 0)"><path class="b" d="M251.807,74.36c-.148.01-.931.016-1.059.016a1.409,1.409,0,0,0-.566-.189.358.358,0,0,0-.118.018,1.472,1.472,0,0,0-.536.349.71.71,0,0,0-.229.478v.926l.01.016c.088.142.321.523.347.574s.3.4.5.4l.185,0c.111,0,.248-.006.375-.006s.212,0,.278.01c.092.009.231.023.377.023.3,0,.489-.06.567-.185a.87.87,0,0,1,.517-.29c.051-.015.1-.03.146-.046a.923.923,0,0,0,.366-.2.647.647,0,0,0,.143-.3,1.222,1.222,0,0,1,.043-.133.588.588,0,0,1,.106-.149.674.674,0,0,0,.134-.2.654.654,0,0,0,.024-.278c0-.025,0-.05,0-.074v-.055c0-.237-.014-.5-.15-.584a.329.329,0,0,1-.1-.152.35.35,0,0,0-.216-.238,1.645,1.645,0,0,0-.764.113,1.745,1.745,0,0,0-.223.116A.245.245,0,0,1,251.807,74.36Zm.425-.044a1.565,1.565,0,0,1,.679-.106c.062.016.089.072.128.163a.436.436,0,0,0,.148.211c.087.055.089.36.089.475v.057c0,.026,0,.053,0,.08a.539.539,0,0,1-.015.223.57.57,0,0,1-.11.159.691.691,0,0,0-.128.186,1.3,1.3,0,0,0-.048.148.54.54,0,0,1-.111.242.812.812,0,0,1-.315.17c-.045.015-.092.03-.141.045a.977.977,0,0,0-.59.345c-.036.056-.144.123-.456.123-.139,0-.275-.013-.367-.023-.067-.007-.162-.01-.288-.01s-.266,0-.378.006l-.182,0c-.109,0-.343-.254-.379-.325s-.283-.471-.343-.569v-.889a.6.6,0,0,1,.193-.387,1.358,1.358,0,0,1,.485-.316.229.229,0,0,1,.074-.011,1.352,1.352,0,0,1,.516.18l.016.009h.018c.038,0,.921-.006,1.085-.017a.372.372,0,0,0,.209-.067A1.585,1.585,0,0,1,252.232,74.316Z" transform="translate(-211.228 -65.252)"/><path class="b" d="M255.3,65.576l-.042.017c-.088.033-.292.111-.209.342a.412.412,0,0,0,.377.231.241.241,0,0,0,.113-.025.305.305,0,0,0,.125-.353A.262.262,0,0,0,255.3,65.576Zm.178.449a.112.112,0,0,1-.052.01.292.292,0,0,1-.254-.144c-.034-.094,0-.126.133-.175l.051-.021a.131.131,0,0,1,.054-.013c.064,0,.109.069.126.138A.182.182,0,0,1,255.477,66.025Z" transform="translate(-216.027 -58.117)"/><path class="b" d="M260.793,71.493l.013,0,.013,0c.188-.028.507-.074.559-.074.077,0,.13-.079.147-.158a.228.228,0,0,0-.119-.267,1.048,1.048,0,0,1-.144-.082.362.362,0,0,0-.173-.072c-.109,0-.256.2-.332.322a.259.259,0,0,0-.068.235A.156.156,0,0,0,260.793,71.493Zm.071-.256a1.032,1.032,0,0,1,.221-.265.248.248,0,0,1,.1.05,1.171,1.171,0,0,0,.16.091.083.083,0,0,1,.05.078.217.217,0,0,1-.022.1c-.073,0-.459.057-.559.072a.019.019,0,0,1-.006-.007S260.8,71.32,260.865,71.237Z" transform="translate(-220.761 -62.547)"/><path class="b" d="M251.1,68.462a.291.291,0,0,1-.145.05h-.022a.185.185,0,0,1,0-.061.456.456,0,0,0,.006-.062c0-.11-.154-.228-.283-.307a.156.156,0,0,0-.082-.025c-.142,0-.174.213-.18.282-.049.1-.131.2-.176.2-.107,0-.214.121-.261.235a.249.249,0,0,0,.029.281.231.231,0,0,0,.166.071.441.441,0,0,0,.277-.136.33.33,0,0,0,.1-.2l.008-.039c0-.007.005-.023.041-.023a.1.1,0,0,1,.068.026.708.708,0,0,1,.028.085.228.228,0,0,0,.206.193,1.2,1.2,0,0,0,.223.025c.039,0,.078,0,.133.009.163,0,.371-.277.373-.279.089-.125.043-.247-.053-.391a.2.2,0,0,0-.175-.1A.35.35,0,0,0,251.1,68.462Zm.345.006c.111.166.082.207.056.243-.069.1-.213.224-.268.224s-.083-.007-.125-.009a1.063,1.063,0,0,1-.2-.022c-.088-.021-.09-.032-.11-.1a.845.845,0,0,0-.034-.1.151.151,0,0,0-.015-.026.214.214,0,0,0-.174-.08.162.162,0,0,0-.169.126l-.009.041a.207.207,0,0,1-.061.134c-.065.065-.185.137-.257.066-.038-.038-.01-.116,0-.139a.255.255,0,0,1,.141-.154c.154,0,.277-.24.3-.289l.007-.023c.006-.085.034-.164.064-.168.162.1.219.175.22.2a.308.308,0,0,1,0,.043c-.008.052-.026.175.1.206a.21.21,0,0,0,.051.006c.085,0,.243-.056.268-.136C251.253,68.476,251.392,68.386,251.447,68.469Z" transform="translate(-211.759 -60.215)"/><path class="b" d="M239.446,74.5a.73.73,0,0,0,.314-.637.142.142,0,0,0-.141-.127.505.505,0,0,0-.313.192l-.035.035c-.087.084-.166.176-.242.264l-.079.091a.846.846,0,0,0-.17.432c-.009.047-.018.094-.029.14a.866.866,0,0,1-.308.3.794.794,0,0,0-.415.294c-.079.135-.25.585-.257.6a.277.277,0,0,0-.018.235.1.1,0,0,0,.088.046c.225,0,.626-.572.674-.674a.06.06,0,0,1,.028-.031.212.212,0,0,0,.2.164.253.253,0,0,0,.206-.115.22.22,0,0,0,.017-.213.314.314,0,0,1,.021-.247c.021-.033.041-.033.048-.033a.1.1,0,0,1,.034.008.2.2,0,0,1,.11.081c.006.011.01.021.014.031a.154.154,0,0,0,.154.114h.022a.2.2,0,0,0,.21-.188.648.648,0,0,0-.071-.356.413.413,0,0,0-.1-.108c-.046-.036-.065-.051-.065-.11,0-.013,0-.025,0-.037A.166.166,0,0,1,239.446,74.5Zm-.133.423a.276.276,0,0,1,.07.07.531.531,0,0,1,.047.275c0,.021-.041.035-.082.042a.19.19,0,0,1-.012-.026c-.006-.013-.011-.026-.019-.041a.348.348,0,0,0-.186-.152.208.208,0,0,0-.267.082.46.46,0,0,0-.033.39.067.067,0,0,1-.006.069c-.036.055-.119.067-.141-.023a.135.135,0,0,0-.134-.1.192.192,0,0,0-.171.12,2.11,2.11,0,0,1-.484.565.439.439,0,0,1,.018-.053s.174-.457.247-.581a.666.666,0,0,1,.316-.223.9.9,0,0,0,.423-.414c.012-.049.022-.1.031-.149a.721.721,0,0,1,.135-.36l.08-.091c.077-.09.15-.175.233-.254l.037-.038c.054-.055.144-.147.194-.154a.309.309,0,0,1-.023.184.535.535,0,0,1-.2.295.317.317,0,0,0-.2.285c0,.016,0,.033,0,.051A.26.26,0,0,0,239.313,74.922Z" transform="translate(-201.543 -64.972)"/><path class="b" d="M251.528,400.723a.194.194,0,0,1-.12.037c-.078,0-.091-.028-.121-.116a.338.338,0,0,0-.119-.188c-.095-.066-.238-.009-.335.043l-.037.02a.169.169,0,0,0-.113.143c0,.116.154.2.247.254l.029.016c.009.016-.018.089-.072.121a.149.149,0,0,0-.079.172.237.237,0,0,1,0,.053c0,.012,0,.036,0,.064,0,.045-.007.15-.009.163a.811.811,0,0,1-.058.075c-.021.026-.044.054-.064.081s-.027.035-.042.053a.454.454,0,0,0-.114.2.865.865,0,0,0-.011.119c0,.066,0,.091-.131.246a.748.748,0,0,1-.385.262c-.122.031-.111.177-.1.274,0,.022,0,.042,0,.059s0,.025-.041.054a.887.887,0,0,0-.1.08.547.547,0,0,0-.2.3.851.851,0,0,0,.029.365c0,.132.011.334.007.376a.157.157,0,0,0,.026.126l.031.026h.029c.016,0,.066,0,.144-.125a1.467,1.467,0,0,0,.054-.222c.015-.086.054-.232.054-.234a.348.348,0,0,1,.054-.048c.015-.012.028-.022.037-.031l.161-.153.094-.088c.051-.049.1-.1.155-.154a2.309,2.309,0,0,1,.428-.37c.141-.085.141-.17.141-.4a.443.443,0,0,1,.221-.329c.021-.016.04-.031.055-.045a.535.535,0,0,0,.168-.38c0-.023,0-.044,0-.063,0-.122.007-.173.271-.378a.317.317,0,0,0,.142-.237.252.252,0,0,0-.1-.2A.171.171,0,0,0,251.528,400.723Zm.1.357c-.3.232-.315.318-.321.477,0,.018,0,.038,0,.059a.411.411,0,0,1-.123.291l-.05.04a.564.564,0,0,0-.271.432c0,.229,0,.242-.077.286a2.409,2.409,0,0,0-.454.391c-.051.052-.1.1-.151.15l-.093.088-.162.153-.027.022a.272.272,0,0,0-.1.109c0,.007-.044.159-.06.254-.007.042-.015.079-.022.109,0-.112-.007-.26-.008-.283l0-.021a.7.7,0,0,1-.026-.309.46.46,0,0,1,.169-.231.753.753,0,0,1,.078-.063.174.174,0,0,0,.1-.16c0-.02,0-.044,0-.069a.357.357,0,0,1,.005-.137.874.874,0,0,0,.455-.307c.143-.174.157-.221.161-.324a.734.734,0,0,1,.01-.1.365.365,0,0,1,.086-.136c.017-.021.034-.041.048-.06s.039-.05.058-.074a.86.86,0,0,0,.068-.09c.015-.025.02-.065.028-.225,0-.026,0-.048,0-.059a.352.352,0,0,0,0-.082.2.2,0,0,1,0-.028.053.053,0,0,1,.018-.013.287.287,0,0,0,.138-.225.136.136,0,0,0-.065-.121l-.033-.019c-.153-.085-.178-.122-.18-.136s.006-.013.04-.03l.041-.021a.411.411,0,0,1,.161-.061.063.063,0,0,1,.037.011.227.227,0,0,1,.07.122.239.239,0,0,0,.245.2.325.325,0,0,0,.189-.057.171.171,0,0,1,.025-.014s.012,0,.042.027a.128.128,0,0,1,.056.1A.2.2,0,0,1,251.631,401.08Z" transform="translate(-211.433 -338.576)"/><path class="b" d="M79.811,40.413a.77.77,0,0,0-.03-.087,3.365,3.365,0,0,1-.209-1.309,3.188,3.188,0,0,0-.951-1.891c-.063-.072-.114-.13-.143-.17-.111-.153-.391-.184-.807-.184l-.223,0-.224,0c-.138,0-.245,0-.335-.011a2.466,2.466,0,0,1-1.113-.566c-.082-.1-.69-.6-1.608-1.348-.52-.424-1.012-.825-1.264-1.043A6.855,6.855,0,0,0,70.758,32.8l-.021,0a1.9,1.9,0,0,0-.241.083,1.558,1.558,0,0,1-.238.08l-.041,0c-.047,0-.121-.006-.209-.006a.97.97,0,0,0-.763.219c-.056.072-.11.108-.158.108a.284.284,0,0,1-.17-.1,1.278,1.278,0,0,0-.42-.186,1.671,1.671,0,0,1-.322-.127,3.592,3.592,0,0,0-1.065-.132,1.171,1.171,0,0,1-.715-.25,2.5,2.5,0,0,0-1.171-.191c-.092,0-.172,0-.2-.006l-.024,0c-.176,0-.274.258-.332.452a.247.247,0,0,1-.122.114v0c0-.014,0-.029,0-.043,0-.086,0-.173,0-.259a.275.275,0,0,0-.3-.228.26.26,0,0,0-.216.095c-.115.158.012.5.071.614.02.04-.07.128-.15.206a1.561,1.561,0,0,0-.2.22c-.094.137-.141.152-.157.152a.088.088,0,0,1-.054-.036c-.008-.017-.032-.134.292-.782a.6.6,0,0,0-.042-.491.571.571,0,0,1-.049-.161c0-.031,0-.073.008-.121.018-.209.041-.47-.116-.53-.12-.046-.255-.332-.336-.5-.09-.19-.323-.442-.409-.442a.78.78,0,0,0-.4.236.947.947,0,0,0-.056.094c-.051.094-.087.152-.181.164-.067,0-.1-.175-.132-.316-.009-.043-.018-.086-.027-.127-.057-.24-.36-.325-.625-.325h-.054a.4.4,0,0,1-.386-.121.686.686,0,0,0-.475-.294,1.878,1.878,0,0,1-.41-.071,3.415,3.415,0,0,0-1.49-.365,4.572,4.572,0,0,1-.658.055c-.171-.029-.451.265-.648.513a.938.938,0,0,0-.161.57,1.451,1.451,0,0,1-.041.319c-.012.04-.087.14-.462.358l-.029.018h0a2.808,2.808,0,0,1-.419.026.436.436,0,0,0-.347.2.859.859,0,0,1-.545.334.232.232,0,0,1-.15-.051,1.239,1.239,0,0,0-.614-.136c-.264,0-.421.071-.453.206-.013.054-.129.095-.269.095a.444.444,0,0,1-.185-.031.194.194,0,0,1-.045-.038.259.259,0,0,0-.106-.073.375.375,0,0,0-.113-.016l-.033,0c-.114-.01-.228-.013-.342-.016s-.229,0-.344,0h-.215c-.179,0-.23.084-.3.222-.016.031-.028.063-.041.093-.042.106-.06.133-.114.133L52,32.251,52,32.177a1.116,1.116,0,0,1-.039-.55c0-.012.007-.047.143-.047a3,3,0,0,1,.362.037,1.085,1.085,0,0,0,.148.01c.278,0,.6-.1.646-.254.047-.174-.519-.9-.583-.945a.1.1,0,0,0-.061-.019c-.154,0-.311.352-.312.355a1.236,1.236,0,0,1-.866.472h-.031a.21.21,0,0,1-.173-.066c-.059-.088.01-.283.066-.439a1.75,1.75,0,0,0,.07-.225,2.812,2.812,0,0,1,.534-.826l.043-.053c.039-.049.1-.125.166-.212a5.776,5.776,0,0,1,.464-.561,4.879,4.879,0,0,0,.931-1.058,4.828,4.828,0,0,1,.867-.947.61.61,0,0,0,.171-.43,1.018,1.018,0,0,1,.066-.293c.094-.207-.029-.392-.148-.571a2.326,2.326,0,0,1-.127-.208.4.4,0,0,0-.4-.188,1.887,1.887,0,0,0-.229.018c-.045.006-.084.01-.122.012a.046.046,0,0,1-.026-.033c0-.012,0-.057.091-.133.181-.155.122-.292.033-.5l-.016-.036a.226.226,0,0,0-.22-.148.65.65,0,0,0-.245.067l-.028.012c-.005-.022-.011-.058-.017-.095s-.018-.107-.033-.184a4.142,4.142,0,0,0-.336-.767,3.313,3.313,0,0,1-.21-.455c0-.026-.009-.056-.014-.089a4.968,4.968,0,0,1-.072-.94,1.182,1.182,0,0,0-.489-.928.805.805,0,0,1-.083-.077,2.6,2.6,0,0,0-.415-.485l-.031-.03-.04.016a.317.317,0,0,0-.175.188.324.324,0,0,0,.077.284.315.315,0,0,1,.052.248.816.816,0,0,1-.311.479.82.82,0,0,0-.312.64,1.773,1.773,0,0,1-.387.713,3.613,3.613,0,0,0-.4.889l-.006.017,0,.018c.078.333-.234.649-.354.771a.508.508,0,0,1-.329.079,1.177,1.177,0,0,1-.461-.093,1.054,1.054,0,0,0-.42-.076.993.993,0,0,0-.582.143.565.565,0,0,1-.316.055,2.328,2.328,0,0,1-.423-.04c-.137-.026-.163-.056-.2-.094a.371.371,0,0,0-.177-.122c-.077-.028-.16-.054-.239-.078a1.3,1.3,0,0,1-.291-.11.6.6,0,0,0-.3-.06.885.885,0,0,0-.394.078,2.483,2.483,0,0,1-.361.165,8.557,8.557,0,0,0-1.014.069.121.121,0,0,0-.078.078c-.02.061-.016.184.243.547a.55.55,0,0,1,0,.383,7.668,7.668,0,0,1-.816.054,1.185,1.185,0,0,1-.492-.063.839.839,0,0,0-.384-.076,1.214,1.214,0,0,0-.636.147l-.012.014a2.125,2.125,0,0,1-.418.443c-.039,0-.389.005-.494.185a.79.79,0,0,1-.1.145l-.327.031a.59.59,0,0,0-.484.334.364.364,0,0,1-.037.057.682.682,0,0,1-.334.051,2.374,2.374,0,0,1-.258-.015c-.111-.012-.39-.193-1.092-.986l-.048-.054a1.072,1.072,0,0,1-.125-.582,1.086,1.086,0,0,0-.363-.6c-.022-.244-.071-.821-.063-.938s.009-.128.165-.274a.4.4,0,0,0,.052-.444.674.674,0,0,1-.032-.133c-.009-.123.062-.227.33-.484a.345.345,0,0,0,.066-.5.284.284,0,0,1-.046-.1c-.014-.183-.464-.568-.556-.6a.259.259,0,0,1-.133-.2.285.285,0,0,1,.07-.1.684.684,0,0,0,.157-.258c.052-.177-.112-.348-.27-.514-.047-.049-.094-.1-.136-.148a.453.453,0,0,0-.365-.141,2.045,2.045,0,0,0-.257.022,1.808,1.808,0,0,1-.214.019c-.251,0-.258.3-.262.48a.874.874,0,0,1-.009.139,4.8,4.8,0,0,1-.62.672c-.083.081-.148.145-.174.173a.7.7,0,0,1-.421.241,1.169,1.169,0,0,0-.562.187,1.376,1.376,0,0,1-.281.131c-.089,0-.805.043-1.048.043a.261.261,0,0,0-.235.093.186.186,0,0,0-.017.159,1.27,1.27,0,0,1-.06.459.315.315,0,0,1-.21.07.282.282,0,0,1-.217-.092.719.719,0,0,0-.581-.328.265.265,0,0,1-.226-.052.571.571,0,0,0-.331-.147.386.386,0,0,0-.214.079.41.41,0,0,1-.141.066,1.043,1.043,0,0,1-.47-.147,4.513,4.513,0,0,0-.681-.257.8.8,0,0,0-.2-.031.217.217,0,0,0-.207.1c-.078.137.045.356.059.38l.019.021s1.1.765,1.218.837a.2.2,0,0,1-.074.062c-.224.026-.263.317-.265.329l0,.022.012.019a2.254,2.254,0,0,0,.43.509c.166.137.167.444.168.669,0,.074,0,.14.006.194.02.213.2.213.327.213h.156a2.087,2.087,0,0,1,.232.011c.154.017.181.139.177.237-.007.144-.216.252-.363.328-.049.025-.1.047-.141.069a2.136,2.136,0,0,0-.281.15.684.684,0,0,0-.248.663v.035a.237.237,0,0,1-.191.146.225.225,0,0,1-.14-.06.258.258,0,0,0-.164-.067c-.194,0-.293.273-.318.354a6.969,6.969,0,0,1-1.186.892.241.241,0,0,1-.249-.036.484.484,0,0,0-.251-.1.553.553,0,0,0-.424.208.351.351,0,0,1-.1.077,2.6,2.6,0,0,1-.288.018c-.217,0-.365-.039-.407-.108a1.814,1.814,0,0,0-.916-.545c-.1-.006-.1-.006-.118-.344l-.006-.151a1.562,1.562,0,0,0-.539-.983l-.091-.1a.267.267,0,0,0-.2-.093.9.9,0,0,0-.5.283,1.237,1.237,0,0,1-.157.125c-.058.033-.069.032-.131,0a.705.705,0,0,0-.286-.1c-.3-.044-.312.349-.32.552,0,.027,0,.059,0,.081-.1.014-.455.034-.823.034a1.734,1.734,0,0,1-.582-.043,1.82,1.82,0,0,0-.542-.187.459.459,0,0,0-.433.1c-.16.167-.147.49-.133.832,0,.1.008.2.008.3,0,.241.224.241.3.241s.161-.009.253-.019a3.625,3.625,0,0,1,.378-.025.231.231,0,0,1,.2.084.5.5,0,0,1,.034.4.239.239,0,0,1-.245.17.605.605,0,0,0-.317-.115.347.347,0,0,0-.272.148.272.272,0,0,1-.039.039.412.412,0,0,1-.145.013c-.089,0-.194-.006-.279-.012-.111-.007-.169-.02-.209.022a2.215,2.215,0,0,0-.08.873l.029.572c0,.343.361.453.48.489l.026.008c.127.055.361.206.361.29,0,.167.012.27.276.609a6.28,6.28,0,0,1-.122,2.463c-.152.912-.24,3.466-.239,3.478-.028.109-.1.275-.173.3a.181.181,0,0,1-.063.013c-.045,0-.1-.021-.2-.175a.434.434,0,0,0-.385-.183,1.609,1.609,0,0,1-.161-.021c-.219-.044-.376.177-.447.278a.439.439,0,0,1-.028.038,1.2,1.2,0,0,1-.232.1.58.58,0,0,0-.531.255c-.028.033-.067.079-.084.082a.438.438,0,0,1-.321-.128.1.1,0,0,0-.07-.027,3.564,3.564,0,0,0-.936.62c-.3.244-1.118.893-1.256.962a.647.647,0,0,0-.262.489c0,.055-.007.807-.014.906s-.132.146-.236.175c-.167.047-.208.254-.239.405-.007.034-.013.065-.02.09s-.009.028-.015.046a.46.46,0,0,0-.027.335.164.164,0,0,0,.1.081.927.927,0,0,1,.288.211.411.411,0,0,1-.093.207.084.084,0,0,1-.074.033.628.628,0,0,0-.424.076,1.039,1.039,0,0,1-.113.046c-.211.062-.136,1.059-.126,1.1a.592.592,0,0,1-.014.241,3.677,3.677,0,0,0-.51.336.291.291,0,0,0-.107.292.408.408,0,0,0,.21.28c.11.033.274.125.274.185,0,.1.116.239.387.453l.017.013a1.122,1.122,0,0,1,.428.576c.031.284.383.413.593.491l.06.023c.143.055.13.286.1.369a.4.4,0,0,1-.31.175c-.187,0-.284.262-.294.29a.253.253,0,0,0,.008.244.349.349,0,0,0,.292.112.656.656,0,0,0,.078,0c.018,0,.529-.031.96-.031a3.491,3.491,0,0,1,.483.023c.343.054.515.5.558.727.014.072.071.193.3.193a1.378,1.378,0,0,0,.39-.073,1.272,1.272,0,0,0,.975-.329.573.573,0,0,1,.07-.053c.111-.034.6-.41.635-.581a.172.172,0,0,1,.168-.135.127.127,0,0,1,.057.013.47.47,0,0,1-.064.254l-.007.014v.016c0,.073.007,1.8.029,2.082s.386.295.582.295c.071,0,.146,0,.223,0l.158,0c.479-.008.531-.176.529-.236a.306.306,0,0,1,.039-.056l1.333-.014c.024,0,.058.043.068.06a.322.322,0,0,0,.344.254,1.064,1.064,0,0,0,.251-.039.537.537,0,0,1,.064-.014c.159-.012.5-.5.5-.509a.657.657,0,0,1,.23-.212c.037,0,.449-.149.475-.243a4.145,4.145,0,0,1,.624-.579,7.283,7.283,0,0,0,1.118-.874,3.235,3.235,0,0,1,.6-.454c.346.006.893.018.946.028l.024,0a.5.5,0,0,0,.265-.15c.059-.075.094-.083.106-.083.075,0,.148.245.156.377.006.094.007.109-.184.5a.805.805,0,0,0,.118.9.313.313,0,0,1,.107.209.28.28,0,0,1-.108.2c-.294.269.02.736.038.761a13.055,13.055,0,0,0,1.3,1.4,3.861,3.861,0,0,1,.57.3l.012.016c.05.07.184.257.366.257l.078-.006c.062-.006.137-.013.215-.013a.475.475,0,0,1,.38.127.615.615,0,0,0,.486.153c.108,0,.213-.009.307-.018.054,0,.1-.009.144-.011.115,0,.28.175.389.291a.851.851,0,0,0,.155.145,1.884,1.884,0,0,0,.56.086c.1.008.194.016.266.025a2.629,2.629,0,0,1,.722.565c.084.08.144.138.179.165a2.874,2.874,0,0,0,1.035.076c.249,0,.484,0,.648.011.351.022.64.479.78.7.034.053.06.094.077.115a3.927,3.927,0,0,1,.018,1.155.808.808,0,0,1-.269.369.141.141,0,0,0-.06.113c0,.126.153.266.312.4l.049.041a2.852,2.852,0,0,1,.261.473,9.639,9.639,0,0,0-.042.967c.013.294.507.294.67.294s.326-.013.422-.022l.082-.006a.471.471,0,0,0,.259-.124c.148,0,.936-.021,1.308-.021a.333.333,0,0,1,.261.079.13.13,0,0,1,.025.1l0,.009V58.3c0,.009.037.941.037,1.228a.586.586,0,0,0,.257.486l.029.009a3.748,3.748,0,0,1,.672.1,3.069,3.069,0,0,1,.274,1.023,6.545,6.545,0,0,0,.042,1.47.5.5,0,0,1,.057.317.582.582,0,0,1-.293.223c-.247.075-.215,1.044-.206,1.094.027.155.089.22.286.3a.039.039,0,0,1,.027.028.516.516,0,0,1-.11.291.336.336,0,0,0-.125.236.861.861,0,0,0,.264.545l.021.025a3.714,3.714,0,0,1,.226.51c0,.171-.021,1.755-.007,1.939.007.1.058.211.26.211l.068,0,.043,0a1.914,1.914,0,0,1,.561.04c.1.12.682.171.688.172a.622.622,0,0,0,.473-.237.237.237,0,0,1,.174-.064.7.7,0,0,1,.308.094l.015.009h.018a1.78,1.78,0,0,1,.822.322,5.775,5.775,0,0,1,.338,1.305c.015.072.026.125.031.151a2.188,2.188,0,0,1,.023.769.415.415,0,0,0,.137.406c.014.183.159.2.339.231a.761.761,0,0,0,.5-.134c.061-.03.133-.065.219-.1a.568.568,0,0,1,.238-.061.608.608,0,0,1,.389.2c.04.034.08.068.122.1.113.085.077.211.009.393a.6.6,0,0,0-.057.238,2.747,2.747,0,0,1-.106,1.182c-.137.108-.105.713-.1.719.007.126.173.126.263.126l.144,0c.059,0,.121,0,.186,0a1.785,1.785,0,0,1,.251.015c.31.044.409.6.41.6,0,.071-.029,1.707-.029,1.808a.308.308,0,0,1-.217.309,8.154,8.154,0,0,0-1.1.781c-.272.209-.53.407-.591.44-.149.078-.728.576-.728.757a.617.617,0,0,1-.051.27.723.723,0,0,0-.373.206,17.624,17.624,0,0,1-.983,1.575,3.746,3.746,0,0,0-.625.8,7.915,7.915,0,0,1-.535.887.188.188,0,0,0-.046.2c.044.091.175.1.2.1a.989.989,0,0,0,.594-.182.972.972,0,0,1,.572-.111h.048c.109.088.674.542.783.61a.687.687,0,0,1,.211.3.337.337,0,0,0-.035.37.385.385,0,0,0,.409.247.318.318,0,0,0,.235-.207.348.348,0,0,1,.1-.14.041.041,0,0,1,.026-.011c.046,0,.114.082.153.148a2.227,2.227,0,0,0,.749.588,3.246,3.246,0,0,1,.946.676,1.149,1.149,0,0,0,.487.271c.028.008.086.084.134.26a2,2,0,0,0,.424.533c.071.075.137.145.156.172.079.114.338.146.39.152l.035,0,.022-.027a.96.96,0,0,1,.142-.145.959.959,0,0,0,.259-.527.719.719,0,0,1,.15-.34,2.092,2.092,0,0,1,.207.446.617.617,0,0,1-.318.359,2.063,2.063,0,0,0-.566.87,6.593,6.593,0,0,0-.113.964c-.026.059-.081.211-.026.3a.13.13,0,0,0,.114.058.346.346,0,0,0,.143-.039,5.668,5.668,0,0,0,1.325-1.8l.1-.354c.071-.241.139-.472.158-.535s.162-.154.228-.176a1.97,1.97,0,0,0,.394-.435c.014-.017,1.414-1.676,1.521-1.79.018-.02.042-.041.068-.066a.773.773,0,0,0,.322-.588,3.438,3.438,0,0,1,.35-1.03l.006-.018a6.829,6.829,0,0,1,1.676-2.283c.172-.082.329-.479.346-.524a.968.968,0,0,0,0-.467,1.08,1.08,0,0,1-.015-.4l.006-.022c.005-.021.01-.04.015-.055a.314.314,0,0,0,.1,0c.311-.041.483-.22.471-.493l0-.061a.685.685,0,0,0-.07-.355.342.342,0,0,0-.213-.136.451.451,0,0,1-.1-.04l.018-.04c.012-.026.028-.059.045-.1.074-.18-.036-.414-.153-.662s-.232-.493-.121-.613a.187.187,0,0,1,.091,0,.284.284,0,0,0,.18-.014.449.449,0,0,0,.146-.46.341.341,0,0,0-.184-.165c-.064-.032-.115-.058-.139-.13a.9.9,0,0,1,.03-.415,2.028,2.028,0,0,1,.077-.246c.016-.045.034-.093.054-.154.043-.133.1-.2.128-.2.218.022.346-.169.458-.337.032-.048.064-.094.1-.135a4.363,4.363,0,0,1,.352-.371l.135-.133c.3-.307.635-.6.955-.885l.061-.055.221-.195a14.7,14.7,0,0,1,1.585-.953.571.571,0,0,1,.15-.024.224.224,0,0,1,.154.052c.008.006.013.01.013.009s.009.02.013.03a.3.3,0,0,0,.2.2.509.509,0,0,0,.445-.131.147.147,0,0,0,.045-.114.487.487,0,0,0-.086-.234.9.9,0,0,1-.065-.12.047.047,0,0,1,.008-.05,1.11,1.11,0,0,1,.61-.252.787.787,0,0,0,.469-.144.518.518,0,0,0,.031-.272,1.375,1.375,0,0,1,0-.166c0-.026.057-.028.074-.028a.253.253,0,0,1,.039,0,.537.537,0,0,1,.036.215.141.141,0,0,0,0,.146.342.342,0,0,0,.279.154c.052,0,.224-.019.232-.269a.446.446,0,0,0-.115-.255c-.031-.044-.06-.084-.082-.111a.136.136,0,0,1,.067-.01.683.683,0,0,1,.1.008l.015.042c.049.137.116.325.278.325a.2.2,0,0,0,.047-.006c.071-.017.11-.087.145-.15.015-.027.044-.079.058-.085a1.444,1.444,0,0,0,.157.009c.345,0,.4-.163.4-.26,0-.182.058-.2.117-.2a.326.326,0,0,1,.075.01c.169.04.136.307.136.31l-.007.05.047.019a5.944,5.944,0,0,0,1.14.255.594.594,0,0,0,.556-.11.637.637,0,0,0,.087-.5.545.545,0,0,1,0-.153,4.528,4.528,0,0,1,1.322-1.055c.343-.086.315-.655.3-1.031,0-.07-.007-.131-.007-.18a4.543,4.543,0,0,1,1.017-1.394.686.686,0,0,0,.243-.554c0-.033,0-.066.007-.1a5.5,5.5,0,0,1,.77-1.252,4.894,4.894,0,0,0,.16-1.562c.017-.492.071-.576.168-.728.016-.026.033-.052.052-.083.129-.215.606-.941.611-.949l.011-.017v-.02c0-.01-.022-1.029-.022-1.234a5,5,0,0,1,.479-1.207,17.48,17.48,0,0,0,.1-2.619c0-.029.011-2.864.032-3.1.005-.056.006-.121.006-.188,0-.228.011-.389.114-.389a.412.412,0,0,0,.065,0,.413.413,0,0,1,0,.057,1.12,1.12,0,0,0,.036.352c.048.187.151.227.228.227a.577.577,0,0,0,.32-.163l.03-.024c.046-.027.838-.822.851-1.069a6.613,6.613,0,0,1,.455-1.04c.133-.273.27-.556.371-.785a19.534,19.534,0,0,1,2.205-2.647l.06-.059c.819-.8.937-1,.943-1.087a9.1,9.1,0,0,1,.53-1.4A14.851,14.851,0,0,0,79.811,40.413Zm-.152-.04c.012.031.021.053.024.067.007.043.009.4,0,.854l-.847-.007a.265.265,0,0,0-.184.112,1.654,1.654,0,0,0-.164.227l-.055.085a1.232,1.232,0,0,1-.262.259l-.094.078c-.04.035-.071.034-.14.03l-.047,0c-.16,0-.32,0-.48,0h-.065a3.21,3.21,0,0,0-.345.011c-.241.025-.273.332-.277.411a1.016,1.016,0,0,1-.366.387.138.138,0,0,1-.135-.012.281.281,0,0,1-.1-.2.513.513,0,0,0-.168-.287.62.62,0,0,1-.1-.134,1.247,1.247,0,0,1,.274-.454,1,1,0,0,0,.126-.613.2.2,0,0,0-.158-.165.511.511,0,0,0-.45.077c-.016.018-.029.035-.042.053a.293.293,0,0,1-.068.073.974.974,0,0,1-.181.091,1.345,1.345,0,0,0-.162.077,1.147,1.147,0,0,0-.159.119l-.016.013c-.126.105-.245.22-.361.331-.04.038-.169.078-.195.046a.219.219,0,0,0-.107-.193.27.27,0,0,0-.248-.008.265.265,0,0,0-.071.064L74,41.791c-.032,0-.272-.013-.518-.032a1.25,1.25,0,0,0,.13-.947,1.288,1.288,0,0,0-.068-.229,1.351,1.351,0,0,1-.056-.176.514.514,0,0,1,.092-.415l.02-.036a1.2,1.2,0,0,0,.176-.428c.006-.051.008-.115.011-.182,0-.006,0-.014,0-.022a.759.759,0,0,0,.337.141c.035.008.074.019.116.031a.614.614,0,0,0,.5.007,3.592,3.592,0,0,0,.408-.334c.081-.073.161-.146.246-.214a.429.429,0,0,1,.307-.06.185.185,0,0,1,.134.105c.051.108-.062.251-.1.3-.087.11-.318.4-.18.654a.457.457,0,0,0,.438.248c.114,0,.218.005.317.005l.179,0h.092a1.165,1.165,0,0,0,.328-.029c.094-.028.106-.163.106-.291v-.023c-.015-.272.037-.387.082-.435s.123-.043.2-.048a.7.7,0,0,1,.159,0,.3.3,0,0,1,.133.093.52.52,0,0,0,.152.115.58.58,0,0,0,.257.016c.03,0,.057,0,.08,0H78.2c.131,0,.264,0,.4,0a5.307,5.307,0,0,1,.735.05l.154.017A2.953,2.953,0,0,0,79.658,40.373Zm-2.436-3.466.226,0,.222,0c.2,0,.606,0,.7.13.031.042.084.1.151.179a3.078,3.078,0,0,1,.919,1.8,5.116,5.116,0,0,0,.024.512l-.123-.013a5.545,5.545,0,0,0-.754-.051c-.13,0-.261,0-.392,0h-.124c-.026,0-.057,0-.09.005a.534.534,0,0,1-.195-.006.42.42,0,0,1-.113-.088.4.4,0,0,0-.2-.128.85.85,0,0,0-.188,0c-.029,0-.058,0-.086,0a.27.27,0,0,0-.2.085.8.8,0,0,0-.117.549.678.678,0,0,1-.013.165,1.041,1.041,0,0,1-.289.024h-.1c-.145,0-.305,0-.488,0a.328.328,0,0,1-.326-.18c-.1-.176.1-.418.17-.513.049-.062.2-.253.116-.435a.318.318,0,0,0-.224-.177.553.553,0,0,0-.419.085c-.086.069-.169.144-.252.219a3.467,3.467,0,0,1-.392.322c-.094.063-.259.015-.391-.024-.045-.013-.088-.025-.125-.033-.175-.037-.294-.087-.351-.208.008-.063.019-.116.038-.128.1-.041.607-.4.631-.547.006-.038.011-.077.016-.116a.968.968,0,0,1,.071-.3.456.456,0,0,1,.07-.1c.018-.02.035-.041.052-.064a1.059,1.059,0,0,0,.1-.178l.022-.047a2.167,2.167,0,0,0,.1-.251,2.15,2.15,0,0,1,.089-.23.668.668,0,0,1,.132-.195.47.47,0,0,1,.137-.08c.024-.011.048-.021.072-.033a.611.611,0,0,0,.141-.109l.023-.021a2.789,2.789,0,0,0,.289-.321l.019-.024v0a2.3,2.3,0,0,0,1.081.511C76.971,36.9,77.081,36.907,77.223,36.907Zm-7.875-3.654a.9.9,0,0,1,.66-.168c.085,0,.157,0,.2.006l.048,0A1.1,1.1,0,0,0,70.544,33a2.146,2.146,0,0,1,.215-.076,6.917,6.917,0,0,1,2.059.98c.254.219.746.62,1.267,1.045.707.577,1.509,1.231,1.6,1.337l.014.013v0l-.021.026a2.635,2.635,0,0,1-.275.306l-.024.023a.51.51,0,0,1-.111.088l-.065.03a.57.57,0,0,0-.175.105.78.78,0,0,0-.159.233,2.32,2.32,0,0,0-.094.243,2.067,2.067,0,0,1-.092.237l-.023.048a.951.951,0,0,1-.085.157c-.014.019-.03.037-.045.055a.561.561,0,0,0-.089.125,1.072,1.072,0,0,0-.083.343c0,.037-.01.075-.015.108a2.192,2.192,0,0,1-.551.45c-.119.048-.126.248-.134.461,0,.064,0,.124-.01.172a1.1,1.1,0,0,1-.16.379l-.021.036a.652.652,0,0,0-.106.508,1.514,1.514,0,0,0,.061.192,1.192,1.192,0,0,1,.062.206,1.024,1.024,0,0,1-.177.934.532.532,0,0,1-.519.088,6.345,6.345,0,0,1-.676-.554c-.144-.127-.22-.194-.249-.213-.111-.074-.21,0-.335.083l-.039.027a.309.309,0,0,1-.236.036.2.2,0,0,1-.129-.076c-.06-.1-.184-.087-.274-.077-.048.006-.113.013-.127,0a2.3,2.3,0,0,1-.028-.518,1.233,1.233,0,0,0-.036-.479,2.839,2.839,0,0,0-.28-.3c-.108-.108-.22-.219-.264-.275a5.822,5.822,0,0,1-.186-1.473l0-.039a2.542,2.542,0,0,0-.166-.463,3.236,3.236,0,0,1-.2-.565,5.1,5.1,0,0,0-.144-1.385,1.453,1.453,0,0,1-.2-.4,2.117,2.117,0,0,0-.154-.838,3.467,3.467,0,0,1-.042-.949.249.249,0,0,0,.074.012A.344.344,0,0,0,69.348,33.253Zm-.524.017c.019.019.039.038.061.056a3.022,3.022,0,0,0,.075,1.113,2.266,2.266,0,0,1,.119.735,1.308,1.308,0,0,0,.226.495,5.5,5.5,0,0,1,.119,1.282,1.939,1.939,0,0,0,.208.637,3.283,3.283,0,0,1,.157.423l0,.039c.109,1.41.184,1.507.213,1.543.05.063.159.173.275.288a3.516,3.516,0,0,1,.261.273,2.309,2.309,0,0,1,.016.409c0,.15,0,.267,0,.358a.245.245,0,0,0-.128.11,1.04,1.04,0,0,0-.1.508v.051a.4.4,0,0,0,.018.165.2.2,0,0,0,.1.1.259.259,0,0,1,.031.02.213.213,0,0,1,.044.074,1.174,1.174,0,0,1,.046.135c.008.028.017.055.026.083a11.623,11.623,0,0,1-1.077,1.269c-.01.009-.991.863-1.133.97a.872.872,0,0,1-.194.1,3.528,3.528,0,0,0-.706.377,1.359,1.359,0,0,1-1.1.123s-.29-.142-.546-.259c-.3-.135-.655.188-.758.29a.2.2,0,0,0-.05.151.757.757,0,0,0,.217.451c.1.091.111.477.114.642,0,.038,0,.069,0,.084a4.7,4.7,0,0,1-1.541,1.09.657.657,0,0,1-.727-.123c-.072-.084-.71-.826-.8-.9-.078-.063-.243-.018-.376.034a1.545,1.545,0,0,0,.2-.572c0-.114-.006-.228-.007-.342a5.7,5.7,0,0,0-.051-.837.9.9,0,0,0-.088-.246.727.727,0,0,1-.081-.24,1.125,1.125,0,0,1,.041-.459,10.71,10.71,0,0,1,.69-1.617,1.487,1.487,0,0,1,.467-.439l.1-.074c.1-.073.192-.136.281-.2s.16-.108.241-.167a12.544,12.544,0,0,0,1.11-.923,2.066,2.066,0,0,1,.266-.223,3.416,3.416,0,0,1,.481-.01c.557.008.714,0,.756-.081.012-.022.056-.084.1-.149.256-.361.363-.537.323-.629-.048-.111-.1-.221-.153-.33l-.027-.055c-.024-.049-.052-.1-.081-.144a.8.8,0,0,1-.123-.274.622.622,0,0,1,.05-.372,1.751,1.751,0,0,0,.307-.711,3.646,3.646,0,0,0-.011-.668c-.008-.062-.012-.126-.016-.19a1.117,1.117,0,0,0-.136-.562c-.134-.2-.174-.366-.111-.444a1.787,1.787,0,0,0,.185-.3c.027-.051.053-.1.082-.148.145-.242.3-.479.463-.724a1.475,1.475,0,0,1,.371-.377,1.84,1.84,0,0,1,.225-.127,1.517,1.517,0,0,0,.306-.187,1.2,1.2,0,0,0,.116-.111l.041-.043c.032-.033.04-.094.057-.23a1.643,1.643,0,0,1,.029-.186l.128.044A1.388,1.388,0,0,1,68.824,33.27ZM60.86,48.818a.2.2,0,0,0,.194.106.879.879,0,0,1,.2.027c.043.01.1.03.113.067s-.018.123-.039.163l-.008.016c-.05.1.021.166.14.274l.06.055c.028.026.026.045.025.052,0,.049-.073.108-.118.139a.4.4,0,0,0-.264.07c-.1.08-.035.256.024.412.016.042.038.1.039.11a1.884,1.884,0,0,0,.091.709c.052.06.143.16.181.2v.3a.853.853,0,0,1-.474-.131.291.291,0,0,0-.239-.064.442.442,0,0,0-.255.192,7.2,7.2,0,0,1-.679.521c-.079.04-.157-.034-.257-.143l-.049-.052a.285.285,0,0,0-.307-.048.176.176,0,0,0-.11.176.138.138,0,0,1-.048.1.254.254,0,0,1-.187.079c-.086-.007-.12-.044-.2-.149l-.056-.068a.205.205,0,0,0-.164-.081.519.519,0,0,0-.157.034.727.727,0,0,1-.232.045c-.144,0-.192-.081-.266-.223a1.265,1.265,0,0,0-.073-.13c-.083-.125-.148-.116-.229-.091a.418.418,0,0,1-.2.019.2.2,0,0,1-.182-.1.282.282,0,0,0-.156-.126c-.169-.057-.357.083-.508.195l-.074.054c-.129.09-.121.28-.114.433a.8.8,0,0,0,.01.124.192.192,0,0,1-.1-.036.222.222,0,0,1-.09-.087c-.019-.084-.116-.169-.251-.28-.041-.034-.08-.065-.105-.091a.866.866,0,0,0-.539-.112.758.758,0,0,1,.013-.269,1.471,1.471,0,0,0,.021-.2.427.427,0,0,0-.212-.358.149.149,0,0,0-.156-.017.322.322,0,0,0-.156.272.539.539,0,0,1-.244.343v0l0-.011v-.011a3.221,3.221,0,0,1,0-.33,6.479,6.479,0,0,0-.21-.922,6.917,6.917,0,0,1,.254-3.206,2.99,2.99,0,0,1,.25-.755,11.7,11.7,0,0,1,.869-1.546c.142-.219.286-.432.43-.635.044-.063.1-.124.148-.187a1.277,1.277,0,0,0,.332-.581,1.293,1.293,0,0,0-.124-.808,1.748,1.748,0,0,1-.162-1.1,2.108,2.108,0,0,1,.443-.778l.032-.042a3.752,3.752,0,0,1,.559-.608,1.033,1.033,0,0,0,.41-.727,2.767,2.767,0,0,0,.018-.446c0-.042,0-.084,0-.125a.8.8,0,0,0-.355-.576c.078,0,.153-.007.22-.008.03,0,.06,0,.091,0a1.665,1.665,0,0,0,.169,0,1.341,1.341,0,0,1,.257.012l.1.01a.415.415,0,0,1,.241.081,1.767,1.767,0,0,0,.335.188c.066.028.075.1.084.216l0,.035a.73.73,0,0,1,0,.124.653.653,0,0,0,0,.2,1.032,1.032,0,0,0,.086.226l.032.068c.013.03.03.059.046.089a.449.449,0,0,1,.062.15,1.3,1.3,0,0,1,.007.188v.018c0,.19-.012.391-.031.6-.008.088-.019.175-.033.263a.264.264,0,0,1-.059.121.628.628,0,0,0-.063.1l-.059.121a.677.677,0,0,0-.121.474.747.747,0,0,0,.144.3l.022.032a3.489,3.489,0,0,0,.235.313,4.242,4.242,0,0,0,.329.338c.146.135.644.573.835.564a.207.207,0,0,0,.175-.1.16.16,0,0,1,.063-.06.127.127,0,0,1,.1.014.177.177,0,0,1,.1.093.316.316,0,0,1-.013.219.5.5,0,0,1-.191.221c-.063,0-.3.039-.342.162a.486.486,0,0,0,0,.219.738.738,0,0,1,.009.09v.066a1.4,1.4,0,0,1-.005.2c0,.018-.019.031-.059.057a.412.412,0,0,0-.114.1.541.541,0,0,0,.063.58c.034.031.071.059.107.086.084.064.156.119.156.182,0,.021,0,.043,0,.064,0,.1-.011.247.155.274a.208.208,0,0,1,.2.231.635.635,0,0,0,.087.444.264.264,0,0,0,.178.077.972.972,0,0,1,.052.5.2.2,0,0,0,.061.154.582.582,0,0,0,.414.07,1.082,1.082,0,0,1,.234,0,.071.071,0,0,1,.06.063.353.353,0,0,1-.062.247c-.156.046-.532.727-.535.734a2.028,2.028,0,0,1-.324.472C60.659,48.284,60.75,48.671,60.86,48.818Zm9.646,10.457a1.333,1.333,0,0,0,.112.153.7.7,0,0,1,.145.234,2.582,2.582,0,0,1-.011.476,1.269,1.269,0,0,0-.2.028.863.863,0,0,1-.22.025c-.219-.019-.388.245-.469.37-.013.019-.022.035-.029.044a.384.384,0,0,0-.111.108l-.025.031c-.013.014-.029.029-.045.044-.079.075-.2.19-.127.336a1.452,1.452,0,0,0,.24.324.143.143,0,0,1,.026.125.223.223,0,0,1-.108.154.284.284,0,0,0-.146.164.258.258,0,0,0,.053.2l.01.017a3.27,3.27,0,0,0,.188.272,1.472,1.472,0,0,1-.113.7.409.409,0,0,0-.2.362,2.552,2.552,0,0,1-.337.844,2.666,2.666,0,0,0-.561.2,2.649,2.649,0,0,0-.337,1.026.3.3,0,0,1-.052.088l-.014.02a2.457,2.457,0,0,1-.282.329.621.621,0,0,0-.149.388c0,.033-.009.065-.015.1s-.012.069-.017.1a.889.889,0,0,1-.187.5,1.639,1.639,0,0,1-.7.343l-.143.045a5.958,5.958,0,0,1-1.115.262,11.918,11.918,0,0,0-1.686.379c-.15.041-.3.083-.447.122a.446.446,0,0,0-.133.035l-.774.415a4.656,4.656,0,0,1-.526.221.576.576,0,0,1-.262.049.326.326,0,0,1-.217-.151c-.029-.045-.06-.09-.091-.136a3.059,3.059,0,0,1-.2-.322,2.218,2.218,0,0,1-.207-.54l-.008-.039a1.024,1.024,0,0,1,.074-.826c.086-.173.1-.291.055-.37s-.17-.094-.263-.1h-.029c-.128,0-.183-.028-.394-.233-.091-.088-.2-.3-.2-.811,0-.033,0-.076,0-.123a1.01,1.01,0,0,0-.058-.536.956.956,0,0,1-.218-.422.283.283,0,0,0-.126-.2.379.379,0,0,0-.274-.053h0c-.021,0-.076-.05-.1-.07s-.031-.028-.043-.037a.251.251,0,0,0-.316-.025.324.324,0,0,0-.143.188.111.111,0,0,1-.036.08.206.206,0,0,1-.147.021.194.194,0,0,1-.06-.032.349.349,0,0,0-.352-.176.213.213,0,0,0-.159.135.238.238,0,0,1-.1.106l-.655-.006a.243.243,0,0,0-.247.172.049.049,0,0,1-.037.033.131.131,0,0,1-.106-.033A.412.412,0,0,1,57,64.236c-.008-.027-.016-.053-.025-.078a.618.618,0,0,0-.419-.391c-.006,0-.648-.079-.692.056a.407.407,0,0,1-.226.094l-.036,0-.031,0a.6.6,0,0,1-.074-.076l-.071-.079c-.221-.241-.615.017-.629.026l-.537.322c-.02-.274-.072-.974-.093-1.158a7.375,7.375,0,0,0,.74-.748l.008-.018c.052-.118.209-.479.486-.534a1.832,1.832,0,0,0,.459-.191,1,1,0,0,1,.488-.169,1.29,1.29,0,0,1,.2.045.433.433,0,0,0,.451-.061,1.348,1.348,0,0,0,.239-.243c.049-.063.059-.07.085-.07l.184,0c.239,0,.875-.018.941,0a.188.188,0,0,1,.021.027c.063.091.153.184.439.138a1.551,1.551,0,0,0,.754-.488l.011-.018c.081-.2.338-.86.229-1.037a.121.121,0,0,0-.1-.059c-.084-.007-.131-.133-.14-.248-.01-.143.035-.251.083-.262a.16.16,0,0,0,.105-.089,2.348,2.348,0,0,0,0-1.148.375.375,0,0,0-.161-.155.421.421,0,0,1-.1-.078.68.68,0,0,1-.088-.524.738.738,0,0,1,.612-.5.286.286,0,0,0,.211-.1.594.594,0,0,0,.139-.382,2.442,2.442,0,0,1,.03-.526.883.883,0,0,1,.869-.854.933.933,0,0,1,.4.22c.039.03.075.057.11.081a.345.345,0,0,0,.143.193.271.271,0,0,0,.249,0,6.718,6.718,0,0,0,.613-.376,5.323,5.323,0,0,1,.91-.53.978.978,0,0,0,.634-.536.187.187,0,0,1,.114-.11.245.245,0,0,1,.184-.01c.152.087.547.368.581.518.006.026.011.052.016.078.031.161.067.344.306.36l.068.007c.14.015.332.036.427-.08a.2.2,0,0,0,.035-.077.2.2,0,0,1,.067-.007.393.393,0,0,1,.191.042l.026.02a1.3,1.3,0,0,0,.457.269,2.183,2.183,0,0,1,.637.321c.1.146.481.189.485.189a1.508,1.508,0,0,0,.206,0c.129-.007.369-.021.418.029a2.99,2.99,0,0,1,.289.478l.057.105a.967.967,0,0,0,.688.471c.108.005.2,0,.284,0a.557.557,0,0,1,.277.029.717.717,0,0,1,.092.09c.041.045.076.084.13.084l.051,0a1.852,1.852,0,0,1,.5.009,2.336,2.336,0,0,0,.291.355c.165.151.248.293.228.39a.377.377,0,0,1-.274.277c-.206.035-.3.164-.3.407a1.305,1.305,0,0,1-.068.469.518.518,0,0,0-.379.307A.571.571,0,0,0,70.506,59.275Zm-8.679-4.508a.944.944,0,0,0-.448-.232,1.01,1.01,0,0,0-1.009.966,2.541,2.541,0,0,0-.031.555.463.463,0,0,1-.1.283.153.153,0,0,1-.115.055.864.864,0,0,0-.741.6.8.8,0,0,0,.109.627.493.493,0,0,0,.135.112c.044.029.1.065.11.092a2.414,2.414,0,0,1,.017,1.029c-.013.029-.023.034-.023.034-.144.032-.2.229-.185.4.015.213.117.358.253.366a2.155,2.155,0,0,1-.234.909,1.409,1.409,0,0,1-.668.437c-.227.037-.273-.03-.31-.084a.178.178,0,0,0-.078-.073,6.137,6.137,0,0,0-.995-.008l-.181,0c-.093,0-.137.056-.188.121a1.2,1.2,0,0,1-.218.221c-.121.1-.2.075-.334.037a1.453,1.453,0,0,0-.224-.048,1.067,1.067,0,0,0-.565.183,1.74,1.74,0,0,1-.423.178c-.345.069-.522.477-.581.611l-.007.017a8.192,8.192,0,0,1-.7.7,1.761,1.761,0,0,0-.524-.1,3.3,3.3,0,0,1-.792-.512,2.534,2.534,0,0,0-.25-.181,6.038,6.038,0,0,1-.61-.451.667.667,0,0,0-.4-.146c-.067-.011-.149-.024-.253-.043a.961.961,0,0,1-.664-.577c-.022-.045-.041-.093-.059-.14a.818.818,0,0,0-.139-.259,8.132,8.132,0,0,0,.1-1.474.845.845,0,0,1,.405-.64.6.6,0,0,0,.25-.38v-.017a.867.867,0,0,1,.64-.958c.037-.016.07-.029.1-.043a1.223,1.223,0,0,0,.678-.9c0-.34.739-1.058.876-1.156a2.292,2.292,0,0,0,.523-1.063,5.7,5.7,0,0,1,.261-1.416,3.942,3.942,0,0,0,.22-1,.186.186,0,0,0,.06-.016.664.664,0,0,0,.333-.46.2.2,0,0,1,.08-.162.019.019,0,0,1,.023,0,.3.3,0,0,1,.16.254,1.419,1.419,0,0,1-.019.176c-.028.188-.04.307.017.374a.115.115,0,0,0,.09.04.86.86,0,0,1,.456.079c.028.028.07.062.115.1.073.06.2.161.206.207a.394.394,0,0,0,.316.227.116.116,0,0,0,.119-.1.783.783,0,0,0,0-.163c0-.115-.012-.272.058-.32l.078-.057c.12-.089.285-.209.389-.176a.155.155,0,0,1,.089.076.327.327,0,0,0,.273.157.544.544,0,0,0,.255-.023.221.221,0,0,1,.039-.01s-.006-.026.043.048a1.153,1.153,0,0,1,.066.117c.071.138.151.295.382.295a.841.841,0,0,0,.272-.052c.114-.037.141-.04.181.007l.054.066a.4.4,0,0,0,.3.2h.021a.4.4,0,0,0,.269-.118.264.264,0,0,0,.086-.205c0-.007,0-.029.035-.046a.154.154,0,0,1,.159.021l.046.048c.1.1.239.259.413.171a7.607,7.607,0,0,0,.712-.544l.014-.017a.32.32,0,0,1,.175-.141.168.168,0,0,1,.134.039.938.938,0,0,0,.551.158c-.041,1.527.054,1.6.092,1.626.088.063.221.157.237.239.009.047,0,.348,0,.589C61.822,54.4,61.816,54.681,61.827,54.767Zm-.9-24.538a.525.525,0,0,0,.489.163h.048c.165,0,.455.047.5.224.009.04.018.081.026.123.044.217.089.445.286.419a.363.363,0,0,0,.27-.23.8.8,0,0,1,.048-.081.736.736,0,0,1,.287-.177,1.131,1.131,0,0,1,.3.365c.126.266.252.509.407.569.064.025.041.295.032.4,0,.053-.009.1-.009.133a.615.615,0,0,0,.058.209.494.494,0,0,1,.047.384c-.347.694-.337.855-.275.926a.206.206,0,0,0,.154.082c.085,0,.164-.062.265-.208a1.419,1.419,0,0,1,.181-.2c.122-.12.237-.233.175-.358-.072-.143-.142-.4-.082-.479.047-.065.268-.044.275.064.005.083.006.165,0,.248,0,.012,0,.023,0,.035a.248.248,0,0,0,.017.135l.023.049L64.505,33a.426.426,0,0,0,.285-.232c.1-.33.182-.358.211-.358h0c.04.006.116.007.22.008a2.508,2.508,0,0,1,1.094.166,1.3,1.3,0,0,0,.793.275,3.377,3.377,0,0,1,.99.108.615.615,0,0,0,.105.054,1.3,1.3,0,0,0-.038.217c-.007.057-.017.142-.02.154l-.042.045a1.1,1.1,0,0,1-.105.1,1.389,1.389,0,0,1-.28.169,2.01,2.01,0,0,0-.241.137,1.608,1.608,0,0,0-.4.411c-.168.247-.32.486-.467.73-.029.049-.057.1-.085.155a1.687,1.687,0,0,1-.17.278c-.105.129-.07.336.1.6a1,1,0,0,1,.114.5c0,.067.009.133.017.2a3.516,3.516,0,0,1,.011.644,1.671,1.671,0,0,1-.284.644.746.746,0,0,0-.071.468.91.91,0,0,0,.14.321c.027.045.053.089.075.134l.026.055c.052.107.1.215.149.317a2.282,2.282,0,0,1-.308.509c-.049.069-.086.121-.1.152a3.468,3.468,0,0,1-.645.023,3.1,3.1,0,0,0-.514.014c-.023.005-.06.014-.324.253a12.441,12.441,0,0,1-1.1.914c-.08.058-.158.111-.238.165s-.184.124-.286.2l-.1.073a1.61,1.61,0,0,0-.506.482,10.828,10.828,0,0,0-.7,1.636,1.249,1.249,0,0,0-.048.516.833.833,0,0,0,.093.284.8.8,0,0,1,.077.211,5.615,5.615,0,0,1,.05.818c0,.116,0,.231.007.346a1.779,1.779,0,0,1-.232.587c-.008,0-.013-.007-.021-.009a1.168,1.168,0,0,0-.266-.006c-.126.006-.268.013-.317-.034a.068.068,0,0,1-.02-.053c.006-.076.033-.459-.087-.59a.146.146,0,0,0-.11-.05.089.089,0,0,1-.069-.028c-.071-.076-.057-.279-.052-.345V45.35A.329.329,0,0,0,60.508,45c-.041-.007-.051-.014-.046-.139,0-.022,0-.046,0-.069,0-.129-.105-.209-.207-.286-.033-.025-.067-.051-.1-.079a.429.429,0,0,1-.046-.4.3.3,0,0,1,.08-.066.214.214,0,0,0,.118-.151,1.515,1.515,0,0,0,.006-.217V43.52a.879.879,0,0,0-.011-.107.433.433,0,0,1-.005-.156.391.391,0,0,1,.219-.075c.109,0,.264-.184.312-.3a.444.444,0,0,0,.019-.3.3.3,0,0,0-.166-.182.245.245,0,0,0-.209-.014.283.283,0,0,0-.114.1c-.024.034-.033.047-.075.049h0a2.452,2.452,0,0,1-.735-.529,4.062,4.062,0,0,1-.319-.327,3.382,3.382,0,0,1-.226-.3l-.022-.032a.64.64,0,0,1-.122-.241c-.021-.132.006-.188.109-.4l.06-.122a.522.522,0,0,1,.051-.08.387.387,0,0,0,.082-.177c.015-.09.026-.18.034-.271.019-.211.03-.416.032-.609v-.018a1.423,1.423,0,0,0-.008-.206.551.551,0,0,0-.078-.2c-.014-.026-.029-.052-.041-.078l-.033-.071a.9.9,0,0,1-.076-.2.53.53,0,0,1,0-.161.828.828,0,0,0,0-.146l0-.034c-.008-.119-.018-.266-.163-.328a1.625,1.625,0,0,1-.31-.173.545.545,0,0,0-.306-.1l-.1-.009a1.425,1.425,0,0,0-.284-.011,1.442,1.442,0,0,1-.155,0h-.1c-.09,0-.193.006-.3.014a12.686,12.686,0,0,1,1.566-1.348l.1-.087a.545.545,0,0,0,.137-.4,1.1,1.1,0,0,1,.016-.155,1.567,1.567,0,0,1,.171-.4c.032-.059.064-.119.092-.179.312-.663.606-1.269.9-1.858,0-.011.428-1.13.611-1.584A4.054,4.054,0,0,0,60.9,30.2Zm-14.25-5.623a.245.245,0,0,1,.123.084.391.391,0,0,0,.27.138,2.466,2.466,0,0,0,.448.042.613.613,0,0,0,.409-.093.946.946,0,0,1,.489-.1.926.926,0,0,1,.367.065,1.3,1.3,0,0,0,.515.1.614.614,0,0,0,.425-.121,1.056,1.056,0,0,0,.39-.872,3.325,3.325,0,0,1,.363-.822,1.875,1.875,0,0,0,.422-.795.694.694,0,0,1,.256-.541.948.948,0,0,0,.365-.566.446.446,0,0,0-.077-.347.2.2,0,0,1-.055-.169.154.154,0,0,1,.063-.082,2.524,2.524,0,0,1,.348.4c.014.042.055.077.122.135a1.052,1.052,0,0,1,.443.828,5.107,5.107,0,0,0,.074.962c.006.032.011.06.014.086a2.552,2.552,0,0,0,.223.5,4.243,4.243,0,0,1,.324.732c.014.076.024.135.032.181.023.136.035.211.131.211a.256.256,0,0,0,.1-.03.542.542,0,0,1,.193-.056.1.1,0,0,1,.1.068l.016.037c.091.21.106.257,0,.347a.3.3,0,0,0-.136.245.172.172,0,0,0,.091.135.373.373,0,0,0,.2,0,1.787,1.787,0,0,1,.213-.017c.149,0,.238.037.279.117a2.46,2.46,0,0,0,.135.22c.125.188.2.31.137.444a1.122,1.122,0,0,0-.077.331.5.5,0,0,1-.124.345,4.468,4.468,0,0,0-.912,1.024,5.438,5.438,0,0,1-.875.973,4.489,4.489,0,0,0-.5.59c-.066.086-.125.162-.164.21l-.043.052a2.8,2.8,0,0,0-.561.884,1.371,1.371,0,0,1-.053.173,1.1,1.1,0,0,1-.5-.1.734.734,0,0,1-.277-.459l-.008-.026a1.779,1.779,0,0,0-.329-.641,4.317,4.317,0,0,1-.519-.8c-.031-.057-.059-.109-.085-.155a2.081,2.081,0,0,1-.2-.809.57.57,0,0,0-.255-.463.451.451,0,0,1-.238-.293,1.664,1.664,0,0,0-.078-.173,3.187,3.187,0,0,0-.34-.489.539.539,0,0,0-.5-.23c-.053,0-.114-.006-.187-.012-.186-.017-.2-.063-.23-.126a.288.288,0,0,0-.125-.16,1.447,1.447,0,0,0-.638-.074l-.11,0a.827.827,0,0,1-.117-.4,6.229,6.229,0,0,0-.19-.77c.055.02.119.04.188.061S46.6,24.578,46.679,24.606Zm-6.5,2.313a.405.405,0,0,0,.057-.083.456.456,0,0,1,.384-.27l.369-.035L41,26.519a.715.715,0,0,0,.147-.193c.048-.083.252-.12.381-.12.055,0,.145-.038.52-.49l.009-.012a1.325,1.325,0,0,1,.538-.1.726.726,0,0,1,.324.061,1.321,1.321,0,0,0,.552.078,8.088,8.088,0,0,0,.875-.06l.041-.006.013-.039c.012-.037.116-.365-.009-.54-.239-.334-.226-.422-.229-.425a8.657,8.657,0,0,1,.986-.062l.021,0a2.7,2.7,0,0,0,.394-.181.732.732,0,0,1,.325-.059.624.624,0,0,1,.209.027,7.622,7.622,0,0,1,.219.855c.006.1.065.5.22.52a1.118,1.118,0,0,0,.14,0,1.53,1.53,0,0,1,.568.055.163.163,0,0,1,.071.1c.04.1.094.186.34.208.074.007.137.01.192.013.207.01.27.013.408.182a2.956,2.956,0,0,1,.326.468,1.467,1.467,0,0,1,.072.16.581.581,0,0,0,.3.361.446.446,0,0,1,.182.346,2.209,2.209,0,0,0,.216.874c.026.045.054.1.084.152a4.449,4.449,0,0,0,.536.82,1.657,1.657,0,0,1,.3.594l.008.026a.853.853,0,0,0,.335.532,1.132,1.132,0,0,0,.52.121.547.547,0,0,0-.019.462.328.328,0,0,0,.276.124.162.162,0,0,0,.037,0,1.35,1.35,0,0,0,.989-.557.791.791,0,0,1,.183-.268,3.448,3.448,0,0,1,.523.8.715.715,0,0,1-.519.158.909.909,0,0,1-.13-.009,3.121,3.121,0,0,0-.38-.038c-.062,0-.249,0-.273.159a1.178,1.178,0,0,0,.066.652.144.144,0,0,0,.1.057h.021c.15,0,.2-.12.236-.216.011-.027.022-.056.036-.084.063-.126.078-.149.182-.149h.215c.114,0,.227,0,.341,0s.223.006.335.015l.039,0a.3.3,0,0,1,.075.008.137.137,0,0,1,.055.041.316.316,0,0,0,.075.061.555.555,0,0,0,.248.047c.082,0,.354-.014.4-.2.015-.065.14-.1.325-.1a1.173,1.173,0,0,1,.532.108.364.364,0,0,0,.232.079.974.974,0,0,0,.649-.385.3.3,0,0,1,.243-.15,2.03,2.03,0,0,0,.484-.044l.029-.017c.33-.191.491-.325.523-.435a1.58,1.58,0,0,0,.046-.348.826.826,0,0,1,.132-.5c.273-.343.449-.465.523-.465h0a4.557,4.557,0,0,0,.687-.054,3.337,3.337,0,0,1,1.419.35l.018.008a2.038,2.038,0,0,0,.456.079.331.331,0,0,1,.2.079,4.629,4.629,0,0,1,0,1.613c-.183.455-.608,1.575-.609,1.58-.293.584-.588,1.191-.9,1.855-.027.058-.058.115-.089.172a1.675,1.675,0,0,0-.184.438,1.2,1.2,0,0,0-.019.175.439.439,0,0,1-.094.314l-.095.084c-.646.493-1.721,1.352-1.667,1.571a.1.1,0,0,0,.089.076c.293.049.4.439.4.5q0,.064,0,.127a2.7,2.7,0,0,1-.017.426.906.906,0,0,1-.364.645,3.921,3.921,0,0,0-.578.629l-.032.042a2.235,2.235,0,0,0-.467.832,1.887,1.887,0,0,0,.176,1.189,1.156,1.156,0,0,1,.109.723,1.184,1.184,0,0,1-.3.52c-.054.065-.108.13-.154.195-.145.2-.29.419-.433.639a11.8,11.8,0,0,0-.878,1.564l-.026.061-6.868-.223c-1.407-.034-3.549-.1-3.672-.132a1.714,1.714,0,0,1-.163-.171,1.609,1.609,0,0,0-.45-.414c-.141-.053-.219-.079-.245-.087-.068-.047-.544-.38-.641-.468-.055-.049-.057-.311-.058-.484,0-.1,0-.194-.008-.271a.388.388,0,0,0-.217-.33.223.223,0,0,1-.057-.041,3.253,3.253,0,0,1-.1-.688c-.012-.152-.36-.537-.472-.658-.067-.1-.131-.2-.194-.306l-.082-.133c-.024-.038-.05-.077-.076-.118-.2-.3-.422-.642-.153-.944a1.833,1.833,0,0,0,.3-.6c.021-.06.041-.118.062-.171.42-1.078.778-1.96,1.125-2.773l.043-.1c.027-.062.054-.124.08-.188l1.373-3.412c.015-.026.15-.263.053-.434a.358.358,0,0,0-.339-.146.642.642,0,0,1-.508-.309,1.924,1.924,0,0,0-.207-.218.872.872,0,0,0-.495-.247,3.345,3.345,0,0,1-.775-.263,2.042,2.042,0,0,1-.233-.206c-.178-.172-.346-.334-.494-.307a.328.328,0,0,0-.191.1c-.006.006-.014.014-.014.011-.232-.087-.313-.3-.4-.519a1.187,1.187,0,0,0-.3-.508,2.579,2.579,0,0,1-.567-.73c-.01-.165-.013-2.144-.013-2.533.031,0,.062.005.092.005A.723.723,0,0,0,40.179,26.919Zm-8.412-1.9A2.255,2.255,0,0,0,31.52,25h-.156c-.172,0-.189-.024-.2-.094,0-.05,0-.113-.005-.182a.992.992,0,0,0-.215-.77,2.114,2.114,0,0,1-.388-.455c.011-.054.05-.188.154-.195l.025-.007c.035-.017.15-.082.156-.173a.125.125,0,0,0-.061-.114l-1.2-.833c-.039-.071-.079-.188-.052-.236.015-.026.059-.032.093-.032a.665.665,0,0,1,.166.027,4.346,4.346,0,0,1,.661.25,1.082,1.082,0,0,0,.549.155.523.523,0,0,0,.186-.084.268.268,0,0,1,.144-.059.453.453,0,0,1,.242.111.368.368,0,0,0,.33.087c.176-.019.328.126.468.284a.41.41,0,0,0,.315.137.436.436,0,0,0,.308-.115,1.249,1.249,0,0,0,.093-.557l-.005-.026a.063.063,0,0,1,0-.05c.014-.021.061-.033.125-.033.261,0,1.031-.042,1.064-.044l.017,0a1.536,1.536,0,0,0,.323-.151,1.047,1.047,0,0,1,.487-.163.821.821,0,0,0,.519-.284c.025-.028.088-.089.168-.167a3.129,3.129,0,0,0,.656-.737.9.9,0,0,0,.013-.166c.005-.233.027-.352.131-.352a1.874,1.874,0,0,0,.231-.02,1.978,1.978,0,0,1,.241-.021.318.318,0,0,1,.265.094c.043.052.092.1.141.154.133.139.27.282.24.386a.568.568,0,0,1-.131.209.343.343,0,0,0-.1.174.38.38,0,0,0,.217.342c.074.028.463.385.471.49a.373.373,0,0,0,.064.156c.063.105.112.188-.044.338-.272.261-.383.4-.37.588a.758.758,0,0,0,.037.162c.044.143.064.235-.016.31-.168.157-.194.181-.206.36-.011.157.062.951.066.985l0,.026.02.017a1,1,0,0,1,.338.52,1.12,1.12,0,0,0,.159.664l.047.052c.6.68.976,1.007,1.175,1.029l.049,0c0,.226,0,1.04,0,1.691-.3-.006-1.548-.026-1.8.013-.324.05-.417.714-.427.79,0,.006-.058.56-.077.822-.016.221-.106.349-.253.36a.336.336,0,0,1-.339-.24c-.047-.2-.25-.215-.414-.228-.04,0-.08-.006-.118-.012a.684.684,0,0,0-.546.155.787.787,0,0,0-.279.579,2.539,2.539,0,0,0,.017.321,1.749,1.749,0,0,1,.009.4.134.134,0,0,1-.022.071c-.017,0-.084-.017-.289-.275-.021-.026-.037-.046-.046-.056a1.916,1.916,0,0,0-.273-.225l-.015-.011a2.294,2.294,0,0,0-.547-.322.11.11,0,0,1-.074-.068.251.251,0,0,1,.02-.175.777.777,0,0,0,.073-.574,1.3,1.3,0,0,0-.263-.465,1.317,1.317,0,0,1-.157-.234,1.984,1.984,0,0,1,.152-.862,1.412,1.412,0,0,0,.012-.5c0-.067-.008-.143-.007-.156a5.294,5.294,0,0,0-.389-.891,1.8,1.8,0,0,1-.107-.648l-.005-.077A.639.639,0,0,0,33,25.667l-.03-.018a2.408,2.408,0,0,0-.91-.32A.312.312,0,0,0,31.767,25.015ZM15.816,42.79a1.175,1.175,0,0,0,.13-.052.528.528,0,0,1,.324-.074.171.171,0,0,0,.062.012.221.221,0,0,0,.172-.1.476.476,0,0,0,.108-.3c-.024-.106-.3-.289-.382-.311a.032.032,0,0,1-.023-.016c-.025-.047.016-.171.036-.231.007-.02.013-.038.017-.052s.015-.063.022-.1c.024-.118.056-.279.146-.3.262-.073.325-.2.332-.292s.015-.86.015-.916.052-.3.19-.371c.179-.09,1.235-.941,1.28-.977a4.308,4.308,0,0,1,.843-.589.561.561,0,0,0,.424.151.3.3,0,0,0,.162-.127.459.459,0,0,1,.432-.208l.015,0,.014,0a1.148,1.148,0,0,0,.294-.139.5.5,0,0,0,.043-.056c.061-.086.175-.252.313-.225a1.709,1.709,0,0,0,.174.023c.147.014.227.026.286.122.091.146.225.288.421.216.166-.061.246-.358.257-.406,0-.026.089-2.571.239-3.473.042-.222.4-2.176.1-2.567-.248-.318-.248-.393-.248-.528,0-.215-.436-.408-.441-.41l-.04-.013c-.166-.051-.387-.143-.387-.367l-.029-.575a3.187,3.187,0,0,1,.038-.765l.113.006c.088.005.2.012.287.012a.5.5,0,0,0,.2-.027.275.275,0,0,0,.079-.071.224.224,0,0,1,.173-.1.515.515,0,0,1,.262.1l.031.011h.022a.369.369,0,0,0,.374-.267.635.635,0,0,0-.057-.516.359.359,0,0,0-.3-.135,3.773,3.773,0,0,0-.391.026c-.093.01-.173.018-.24.018-.155,0-.167-.045-.167-.11,0-.1,0-.207-.009-.309-.013-.313-.025-.609.1-.736a.34.34,0,0,1,.314-.06,1.714,1.714,0,0,1,.487.163c.028.021.092.069.661.069A5.634,5.634,0,0,0,24,26.783c.037-.027.039-.073.043-.183.007-.157.02-.449.17-.428a.574.574,0,0,1,.238.084.229.229,0,0,0,.262.006,1.234,1.234,0,0,0,.18-.141c.17-.149.39-.338.516-.2l.092.1a1.459,1.459,0,0,1,.5.9l.006.15c.013.341.018.456.241.469a1.735,1.735,0,0,1,.811.483c.069.113.244.171.519.171a2.762,2.762,0,0,0,.309-.02.329.329,0,0,0,.168-.112.448.448,0,0,1,.322-.172.357.357,0,0,1,.189.076.379.379,0,0,0,.361.053,7.438,7.438,0,0,0,1.248-.932l.015-.013.005-.019c.025-.09.106-.277.2-.277a.134.134,0,0,1,.081.037.325.325,0,0,0,.545-.182v-.041c0-.24,0-.429.189-.553a2.042,2.042,0,0,1,.265-.141c.047-.022.1-.045.155-.075.146-.075.357-.185.412-.361a2.269,2.269,0,0,1,.844.295c.009.007.024.015.043.026a.506.506,0,0,1,.3.406l.005.077a1.809,1.809,0,0,0,.124.7,7.787,7.787,0,0,1,.374.808,1.512,1.512,0,0,0,.006.182,2.257,2.257,0,0,1,0,.436,1.987,1.987,0,0,0-.155.974,1.4,1.4,0,0,0,.172.261,1.187,1.187,0,0,1,.239.416.643.643,0,0,1-.058.476.374.374,0,0,0-.031.287.242.242,0,0,0,.153.147,2.2,2.2,0,0,1,.514.3l.015.011a1.819,1.819,0,0,1,.255.209c.007.008.021.025.038.046.131.166.268.325.391.325a.137.137,0,0,0,.035,0c.064-.018.1-.078.117-.18a1.88,1.88,0,0,0-.008-.434,2.389,2.389,0,0,1-.016-.3.655.655,0,0,1,.232-.483.557.557,0,0,1,.443-.127c.04.006.083.01.127.013.169.013.273.028.3.127a.471.471,0,0,0,.477.341c.214-.017.354-.2.374-.482.018-.26.076-.812.076-.816.021-.166.124-.646.317-.676.244-.038,1.491-.017,1.785-.011,0,.37,0,.665.008.726.013.229.567.783.613.822a1.075,1.075,0,0,1,.266.455.869.869,0,0,0,.475.595.13.13,0,0,0,.153-.042.2.2,0,0,1,.122-.065c.08-.015.253.151.379.273a2.153,2.153,0,0,0,.25.219,3.336,3.336,0,0,0,.832.285.8.8,0,0,1,.426.217,1.837,1.837,0,0,1,.193.2.762.762,0,0,0,.608.356c.119,0,.194.027.225.08.051.089-.02.248-.056.311l-1.377,3.421c-.026.062-.053.124-.079.186l-.043.1c-.348.815-.706,1.7-1.127,2.777-.021.055-.042.114-.064.175a1.74,1.74,0,0,1-.271.559c-.335.377-.06.8.142,1.1.026.04.051.078.075.116l.082.132c.065.106.13.211.194.3a1.357,1.357,0,0,1-.316.665.283.283,0,0,0-.128.207.479.479,0,0,0,.158.363c.1.107.024.486-.017.569a.855.855,0,0,0-.005.706.051.051,0,0,1-.009.052c-.143.182-1.1.187-1.681.147l-3.47.161-.032-.015A.486.486,0,0,1,36,44.95a.688.688,0,0,0-.5.032,1.862,1.862,0,0,1-.19.048.237.237,0,0,1-.271-.153,2.573,2.573,0,0,0-.526-.571c-.064-.039-.065-.043-.091-.121a2.168,2.168,0,0,0-.114-.288c-.191-.408-1.389-.259-1.585-.206-.16.043-.212.2-.25.319-.013.039-.039.121-.056.125a1.031,1.031,0,0,0-.442.665,1.942,1.942,0,0,1-.418.735.742.742,0,0,1-.579.194c-.367.01-.427.318-.456.466a.477.477,0,0,1-.018.075c-.019.044-.048.049-.2.062l-.1.009a1.415,1.415,0,0,0-.541.254c-.084.053-.17.108-.26.158a.443.443,0,0,1-.513-.07l-.018-.013a.362.362,0,0,0-.423.022,3.167,3.167,0,0,1-.77.651c-.062,0-.5-.134-.858-.241a8.1,8.1,0,0,0-1.037-.283,7.8,7.8,0,0,1-1.136-.437l-.121-.053c-.2-.084-2.77-1.371-3.025-1.513a21.728,21.728,0,0,0-3.18-.5c-.243,0-1.753-.392-2.554-.609A3.1,3.1,0,0,1,15.816,42.79ZM37.2,53.51a4.732,4.732,0,0,1-.955-.049c-.029-.022-.094-.084-.168-.155a2.266,2.266,0,0,0-.8-.6c-.073-.009-.17-.017-.271-.025a2.39,2.39,0,0,1-.506-.069.978.978,0,0,1-.125-.121c-.139-.148-.313-.332-.493-.332h0c-.04,0-.091.006-.148.011-.091.008-.193.017-.295.017a.506.506,0,0,1-.387-.107.6.6,0,0,0-.48-.173c-.084,0-.164.008-.228.014l-.065.006c-.114,0-.219-.147-.259-.2l-.016-.022a3.279,3.279,0,0,0-.633-.341,17.678,17.678,0,0,1-1.237-1.353s-.263-.393-.054-.585a.4.4,0,0,0,.151-.3.439.439,0,0,0-.151-.306.677.677,0,0,1-.086-.746c.2-.411.2-.443.2-.579,0,0-.046-.49-.286-.49a.269.269,0,0,0-.2.126.41.41,0,0,1-.169.107c-.081-.015-.837-.028-.987-.03h-.019l-.016.01a3.429,3.429,0,0,0-.653.5,7.82,7.82,0,0,1-1.068.832,3.663,3.663,0,0,0-.684.639,1.544,1.544,0,0,1-.359.171.632.632,0,0,0-.338.269,1.867,1.867,0,0,1-.4.453.629.629,0,0,0-.085.017.961.961,0,0,1-.219.035.2.2,0,0,1-.221-.167c-.007-.015-.072-.147-.191-.147l-1.364.014H22.9l-.019.021c-.09.1-.09.138-.09.153s-.077.111-.4.117l-.159,0c-.076,0-.15,0-.22,0-.315,0-.442-.049-.451-.174-.02-.265-.028-1.882-.029-2.057a.531.531,0,0,0,.061-.348.136.136,0,0,0-.084-.079.309.309,0,0,0-.391.224,1.744,1.744,0,0,1-.545.483.382.382,0,0,0-.115.078,1.157,1.157,0,0,1-.9.3h-.014l-.013,0a1.288,1.288,0,0,1-.359.07c-.158,0-.17-.065-.174-.086-.053-.279-.253-.768-.667-.833a3.618,3.618,0,0,0-.5-.025c-.441,0-.963.031-.973.032a.6.6,0,0,1-.065,0,.234.234,0,0,1-.184-.055.146.146,0,0,1,.007-.124c.023-.064.1-.2.171-.2a.513.513,0,0,0,.433-.262c.05-.139.049-.448-.177-.535l-.062-.023c-.182-.067-.487-.179-.508-.382a1.265,1.265,0,0,0-.476-.664l-.018-.014c-.312-.247-.337-.331-.337-.35,0-.2-.364-.309-.367-.31a.306.306,0,0,1-.122-.191.159.159,0,0,1,.064-.155,3.758,3.758,0,0,1,.514-.335l.024-.013.008-.026a.883.883,0,0,0,.033-.23c.434.117,2.245.6,2.537.6a22.629,22.629,0,0,1,3.116.487c.272.151,2.827,1.428,3.037,1.519l.12.052a6.192,6.192,0,0,0,1.188.448c.082,0,.59.154,1,.278a7.56,7.56,0,0,0,.9.247c.043,0,.173,0,.863-.69a.236.236,0,0,1,.254-.007l.016.012a.573.573,0,0,0,.655.079c.092-.051.181-.108.267-.162a1.35,1.35,0,0,1,.484-.234l.1-.009c.154-.013.256-.021.308-.139a.516.516,0,0,0,.027-.1c.036-.186.089-.354.331-.36a.868.868,0,0,0,.664-.229,1.975,1.975,0,0,0,.46-.831.979.979,0,0,1,.345-.538c.085-.023.115-.114.147-.211.04-.122.075-.21.159-.233.252-.068,1.3-.154,1.432.135a2.1,2.1,0,0,1,.108.273.271.271,0,0,0,.147.193,2.53,2.53,0,0,1,.48.522.371.371,0,0,0,.407.219,1.919,1.919,0,0,0,.2-.052c.147-.043.314-.091.4-.044a.642.642,0,0,0,.072.035c.051.021.053.023.07.451.009.227.016.478.023.716.01.348.02.678.032.845.007.1.007.215.007.33a1.175,1.175,0,0,0,.073.592.37.37,0,0,1,.061.361.57.57,0,0,0-.007.495.254.254,0,0,0,.24.13c.268-.01,1.32,0,1.33,0h.035l.02-.029c.03-.044.092-.105.129-.105.006,0,.017,0,.036.028.105.158.2.308.423.28a.435.435,0,0,0,.173-.073.25.25,0,0,1,.233-.05.234.234,0,0,1,.117.19.182.182,0,0,1-.057.183,1,1,0,0,1-.092.052.369.369,0,0,0-.227.261.723.723,0,0,0,.257.694.567.567,0,0,1,.193.438.5.5,0,0,1-.132.408.534.534,0,0,0-.123.517,1.382,1.382,0,0,1,.012.188c0,.06,0,.109,0,.152,0,.133,0,.16-.07.214a.728.728,0,0,0-.259.511.538.538,0,0,1-.013.071.868.868,0,0,1-.083.089,1.18,1.18,0,0,0-.356.531.608.608,0,0,0-.2-.048C37.686,53.51,37.449,53.51,37.2,53.51Zm5.845,6.5a3.729,3.729,0,0,0-.694-.113.457.457,0,0,1-.183-.366c0-.275-.033-1.132-.036-1.225a.264.264,0,0,0-.05-.2.442.442,0,0,0-.365-.131c-.411,0-1.326.022-1.335.022h-.025l-.018.017a.387.387,0,0,1-.188.106c-.015,0-.048,0-.093.007-.094.008-.251.021-.411.021-.338,0-.534-.062-.539-.169-.014-.334.043-.961.044-.968v-.018l-.007-.016a2.927,2.927,0,0,0-.3-.531l-.054-.045c-.066-.055-.267-.221-.258-.3a.945.945,0,0,0,.314-.433,3.423,3.423,0,0,0-.04-1.279c-.016-.02-.039-.056-.069-.1a2.116,2.116,0,0,0-.562-.645c.006-.183.2-.383.324-.505a.525.525,0,0,0,.11-.128.451.451,0,0,0,.023-.1.6.6,0,0,1,.208-.426c.124-.093.123-.179.123-.319,0-.041,0-.088,0-.146a1.483,1.483,0,0,0-.012-.206c-.017-.161-.033-.313.075-.4a.622.622,0,0,0,.181-.516.689.689,0,0,0-.251-.541.593.593,0,0,1-.2-.552.239.239,0,0,1,.16-.178,1.081,1.081,0,0,0,.1-.059.308.308,0,0,0,.115-.31.357.357,0,0,0-.207-.3.376.376,0,0,0-.341.063.32.32,0,0,1-.121.055c-.134.017-.187-.056-.3-.223a.171.171,0,0,0-.144-.086h0a.313.313,0,0,0-.215.133c-.185,0-1.056-.01-1.3,0a.121.121,0,0,1-.12-.065.445.445,0,0,1,0-.359.492.492,0,0,0-.07-.513,1.521,1.521,0,0,1-.044-.51c0-.118,0-.239-.007-.339-.012-.165-.022-.493-.032-.839-.007-.238-.014-.49-.023-.717a3.221,3.221,0,0,0-.03-.424l3.381-.157c.158.011,1.552.1,1.785-.2a.18.18,0,0,0,.031-.173.732.732,0,0,1,0-.618c.033-.069.16-.531-.012-.708a.364.364,0,0,1-.121-.258.151.151,0,0,1,.072-.112,1.391,1.391,0,0,0,.352-.643,1.838,1.838,0,0,1,.343.474,2.824,2.824,0,0,0,.121.754.3.3,0,0,0,.1.077.261.261,0,0,1,.155.229c.007.074.007.166.007.26,0,.3.01.5.1.581.111.1.64.468.662.484l.018.009s.077.024.248.088a1.791,1.791,0,0,1,.4.378,1.318,1.318,0,0,0,.191.2c.085.053,2.08.112,3.738.152l6.816.222a2.585,2.585,0,0,0-.176.589,6.874,6.874,0,0,0-.252,3.273,6.762,6.762,0,0,1,.206.873,3.086,3.086,0,0,0,0,.338.25.25,0,0,0-.006.043h0a4.781,4.781,0,0,1-.21,1.052,5.507,5.507,0,0,0-.286,1.492,2.338,2.338,0,0,1-.468.956c-.072.052-.931.824-.931,1.263,0,.362-.416.692-.605.787-.024.012-.054.025-.088.039a1,1,0,0,0-.721,1.079.463.463,0,0,1-.186.283.987.987,0,0,0-.47.76,9.469,9.469,0,0,1-.082,1.388.352.352,0,0,0-.1-.029,2.688,2.688,0,0,1-.551-.1.979.979,0,0,1,0-.178,1.1,1.1,0,0,0-.09-.628c-.06-.1-.122-.149-.189-.149h0c-.1,0-.153.1-.2.179a.543.543,0,0,1-.034.057c-.07.093-.45.413-.694.326a.546.546,0,0,0-.441,0,1.778,1.778,0,0,1-.3.079c-.357.06-.767-.3-1.13-.624l-.018-.016a.836.836,0,0,0-1.13-.027c-.075.052-.23.143-.38.23-.127.074-.247.144-.307.184a1.693,1.693,0,0,0-.31.431,2.05,2.05,0,0,1-.248.361,3.491,3.491,0,0,1-.9-.007C43.2,60.236,43.127,60.044,43.042,60.009ZM49.179,71.34a.725.725,0,0,0-.474-.233.691.691,0,0,0-.293.073c-.087.04-.16.076-.221.106-.22.107-.292.142-.426.122-.216-.032-.228-.045-.228-.132v-.032l-.025-.02a.307.307,0,0,1-.116-.287,2.306,2.306,0,0,0-.021-.834c-.006-.025-.016-.078-.031-.148a3.91,3.91,0,0,0-.389-1.385,1.9,1.9,0,0,0-.879-.347.809.809,0,0,0-.361-.1.367.367,0,0,0-.265.1c-.183.177-.276.2-.349.2h-.024a2.677,2.677,0,0,1-.588-.115c-.02-.046-.089-.1-.669-.1l-.051,0-.061,0c-.1,0-.125-.03-.129-.09-.014-.185.007-1.922.007-1.94v-.013l0-.012a3.778,3.778,0,0,0-.251-.557l-.023-.027c-.067-.077-.245-.282-.232-.449a.227.227,0,0,1,.09-.157c.031-.042.183-.262.141-.415a.171.171,0,0,0-.1-.114c-.177-.075-.192-.111-.209-.206a2.159,2.159,0,0,1,.115-.946.682.682,0,0,0,.378-.3.6.6,0,0,0-.072-.438,8.273,8.273,0,0,1-.019-1.4c-.02-.134-.055-.345-.1-.549a2.834,2.834,0,0,0,.942-.019,1.621,1.621,0,0,0,.286-.4,2.056,2.056,0,0,1,.271-.39c.059-.04.177-.108.3-.181.152-.089.309-.181.389-.235a.722.722,0,0,1,.969.017l.019.016c.4.356.82.726,1.238.655a1.87,1.87,0,0,0,.324-.084.419.419,0,0,1,.354,0c.329.119.763-.262.844-.37a.627.627,0,0,0,.043-.071c.016-.028.063-.112.085-.112,0,0,.027,0,.076.086a1,1,0,0,1,.072.552.615.615,0,0,0,.012.248c.011.026.044.106.655.171.134.014.181.117.245.283.02.051.04.1.064.151a1.083,1.083,0,0,0,.757.647c.105.02.189.033.257.044a.554.554,0,0,1,.336.116,5.977,5.977,0,0,0,.636.468c.027.013.125.089.229.168a2.546,2.546,0,0,0,.871.539,1.709,1.709,0,0,1,.475.082c.018.167.089,1.092.1,1.24-.02.022-.067.067-.11.108a2.889,2.889,0,0,0-.364.391c-.034.05-.11.143-.2.25a3.1,3.1,0,0,0-.722,1.129,1.016,1.016,0,0,1-.274.638.626.626,0,0,0-.116.3.6.6,0,0,1-.075.228,1.221,1.221,0,0,1-.295.321c-.067.045-1.074,1.027-1.281,1.23a8.1,8.1,0,0,0-1.416,2.623C49.252,71.4,49.215,71.371,49.179,71.34Zm6.74,10.37A3.542,3.542,0,0,0,55.56,82.8c.016.2-.156.365-.281.483-.028.027-.053.051-.073.072-.109.117-1.468,1.727-1.527,1.8a3.2,3.2,0,0,1-.333.393c-.057.019-.271.128-.312.262-.02.063-.087.294-.158.536l-.1.354a5.714,5.714,0,0,1-1.255,1.715.222.222,0,0,1-.087.027l0,0a.343.343,0,0,1,.039-.183l.006-.023a6.469,6.469,0,0,1,.105-.934,2.024,2.024,0,0,1,.512-.806.7.7,0,0,0,.382-.472c0-.059-.21-.6-.344-.6h0c-.1.014-.267.309-.275.485a.915.915,0,0,1-.193.42.84.84,0,0,0-.154.148.524.524,0,0,1-.262-.092,2.224,2.224,0,0,0-.168-.187,2.451,2.451,0,0,1-.393-.477c-.039-.142-.109-.318-.227-.353a1.021,1.021,0,0,1-.43-.238,3.592,3.592,0,0,0-1.007-.709,2.065,2.065,0,0,1-.672-.535c-.012-.021-.118-.2-.26-.2a.171.171,0,0,0-.107.038.47.47,0,0,0-.139.187c-.035.072-.056.115-.147.137a.255.255,0,0,1-.26-.173.211.211,0,0,1,.014-.23.124.124,0,0,0,.024-.1.742.742,0,0,0-.264-.4c-.09-.056-.554-.427-.788-.615l-.017-.014h-.1a1.051,1.051,0,0,0-.669.154.874.874,0,0,1-.5.139.151.151,0,0,1-.083-.021s0-.018.032-.063a7.193,7.193,0,0,0,.558-.933,4.207,4.207,0,0,1,.571-.721,14.942,14.942,0,0,0,1.022-1.618.822.822,0,0,1,.261-.141c.18,0,.182-.385.182-.4a2.327,2.327,0,0,1,.657-.642c.069-.036.277-.195.611-.452A10.117,10.117,0,0,1,50,77.052a.416.416,0,0,0,.259-.218,16.009,16.009,0,0,1,1.773.091c.019,0,.474.077.618.088a.737.737,0,0,1,.441.19.959.959,0,0,0,.5.258.756.756,0,0,1,.419.189c.028.028.1.107.2.215.819.892,1.132,1.195,1.241,1.2.041,0,.123,0,.223,0a3.522,3.522,0,0,1,.642.034.652.652,0,0,1-.026.347.352.352,0,0,0-.258.127.159.159,0,0,0,0,.151,1.486,1.486,0,0,0,.068.133.346.346,0,0,1,.028.058.148.148,0,0,1-.059.12c-.069.041-.3.225-.325.246l-.019.015,0,.023a.161.161,0,0,0,.032.127.187.187,0,0,0,.153.061H56.6A3.5,3.5,0,0,0,55.919,81.71Zm2.305-6.743c.062.031.1.053.123.1a.338.338,0,0,1-.091.292.191.191,0,0,1-.094,0,.225.225,0,0,0-.208.042c-.172.184-.034.476.1.758.1.211.2.43.151.556-.016.04-.031.071-.043.1-.033.071-.068.145.025.2a.55.55,0,0,0,.141.058.218.218,0,0,1,.142.083.6.6,0,0,1,.048.284l0,.064c.011.255-.188.335-.357.357a.185.185,0,0,1-.078,0,.133.133,0,0,0-.036-.006c-.069,0-.083.054-.111.161l-.006.022a1.165,1.165,0,0,0,.012.455.877.877,0,0,1,.007.4,1.1,1.1,0,0,1-.28.452A6.767,6.767,0,0,0,56.7,80.38h-.8a.075.075,0,0,1-.051-.013h0c.082-.065.237-.187.283-.214a.268.268,0,0,0,.116-.274.456.456,0,0,0-.038-.08c-.015-.027-.035-.063-.063-.123-.009-.02,0-.028,0-.031a.235.235,0,0,1,.157-.062.131.131,0,0,0,.1-.067.74.74,0,0,0,.033-.469c-.033-.087-.173-.107-.761-.105-.1,0-.174,0-.209,0a11.025,11.025,0,0,1-1.158-1.161c-.1-.11-.175-.191-.2-.22a.884.884,0,0,0-.5-.227.826.826,0,0,1-.421-.223.866.866,0,0,0-.52-.225c-.136-.01-.589-.084-.6-.084a16.125,16.125,0,0,0-1.764-.095.515.515,0,0,0,.007-.086c0-.066.013-.814.021-1.33a2.531,2.531,0,0,1,.684.029,1.012,1.012,0,0,1,.146.1.429.429,0,0,0,.214.111c.094.005,1.119,0,1.163,0a.628.628,0,0,1,.221.03l.014.014a.3.3,0,0,0,.218.114h.552a.6.6,0,0,1,.154.007.165.165,0,0,0,.13.129.319.319,0,0,0,.075.008.26.26,0,0,0,.189-.064.286.286,0,0,0,.05-.251.232.232,0,0,1,0-.092c.018-.068.075-.145.13-.141a2.916,2.916,0,0,0,.378-.029c.064-.009.124-.08.185-.159l.013-.017a.86.86,0,0,0,.072-.111c.015-.026.03-.052.047-.077.063-.089.193-.089.307-.09h.676a.336.336,0,0,1,.125.061.28.28,0,0,0,.211.13l.169,0c.1,0,.206,0,.282,0h.018a.351.351,0,0,0,.392-.242c.029-.088.058-.1.117-.1s.483,0,.741,0a.427.427,0,0,0,.018.11A.349.349,0,0,0,58.224,74.966Zm.207-1.4c-.135,0-.215.185-.251.294-.019.059-.036.106-.052.149a2.138,2.138,0,0,0-.081.26A1.778,1.778,0,0,0,58,74.52c-.176,0-.673,0-.752,0a.237.237,0,0,0-.233.192c-.046.139-.125.148-.272.152h-.018c-.073,0-.177,0-.275,0l-.172,0c-.033,0-.066-.025-.106-.077a.437.437,0,0,0-.2-.112l-.01,0H55.27a.469.469,0,0,0-.414.145c-.02.028-.037.058-.054.087a.7.7,0,0,1-.061.095l-.014.018a.5.5,0,0,1-.1.109,2.7,2.7,0,0,1-.354.027.3.3,0,0,0-.261.239.343.343,0,0,0,0,.147c.01.065.014.1-.019.143a.209.209,0,0,1-.145.01c-.019-.007-.021-.016-.021-.021-.024-.128-.231-.119-.289-.114h-.546c-.049,0-.079-.028-.124-.075l-.015-.016a.56.56,0,0,0-.314-.068c-.368,0-1.083,0-1.155,0a.387.387,0,0,1-.143-.084,1.141,1.141,0,0,0-.164-.111,2.387,2.387,0,0,0-.742-.044c0-.2.006-.348.005-.357,0-.027-.114-.668-.522-.725a1.945,1.945,0,0,0-.269-.016c-.066,0-.131,0-.19,0l-.14,0c-.105,0-.132-.012-.132,0a1.691,1.691,0,0,1,.055-.607c.233-.183.157-1.285.156-1.3a.555.555,0,0,1,.049-.181.7.7,0,0,0,.065-.36c-.058-.839,1.382-2.711,1.39-2.723l.048-.047a1.8,1.8,0,0,1,.388,0,.25.25,0,0,1,.023.025.24.24,0,0,0,.217.095h.754a.5.5,0,0,0,.206-.072.584.584,0,0,1,.136-.057,3.927,3.927,0,0,1,.875-.009c.125.008.248.016.353.017a.351.351,0,0,1,.173.082.669.669,0,0,0,.3.287,1.693,1.693,0,0,1,.23.136c.027.018.031.021.5.007.26-.008.694-.02.74-.01a.248.248,0,0,0,.083.035.694.694,0,0,1,.527.646,3.757,3.757,0,0,1,.047.7c0,.191,0,.318.1.4a2.227,2.227,0,0,1,.565.847c0,.052,0,.093,0,.126,0,.116,0,.192.118.209a.864.864,0,0,0,.111,0c.135-.006.452-.019.544.067a.06.06,0,0,1,.021.045c0,.029,0,.059,0,.089,0,.192,0,.431.2.445h.01l.01,0c.119-.029.384-.055.448.048a.635.635,0,0,1,.052.538.2.2,0,0,1-.114.041Zm4.629-3.383a.176.176,0,0,0-.018.174,1.049,1.049,0,0,0,.074.136.36.36,0,0,1,.067.173.337.337,0,0,1-.262.118.265.265,0,0,1-.065-.008c-.059-.016-.082-.064-.107-.125a.169.169,0,0,0-.068-.094.354.354,0,0,0-.234-.078.7.7,0,0,0-.186.028,15.347,15.347,0,0,0-1.629.975q-.115.1-.229.2l-.061.055c-.321.285-.653.58-.961.89l-.134.132a4.471,4.471,0,0,0-.363.383c-.035.043-.069.093-.1.144l-.033.048a.791.791,0,0,0-.11-.416c-.123-.2-.495-.126-.578-.108-.063-.014-.068-.144-.068-.313,0-.031,0-.062,0-.092a.191.191,0,0,0-.062-.138.99.99,0,0,0-.64-.1.633.633,0,0,1-.089,0c0-.017,0-.049,0-.08s0-.077,0-.13a2.239,2.239,0,0,0-.616-.945c-.047-.036-.048-.115-.047-.29a3.853,3.853,0,0,0-.049-.718.829.829,0,0,0-.619-.75l-.039-.012c-.041-.032-.142-.038-.826-.018-.181.005-.385.011-.436.008a1.759,1.759,0,0,0-.235-.138.538.538,0,0,1-.233-.22c-.043-.1-.213-.146-.277-.159-.117,0-.238-.01-.362-.018a3.979,3.979,0,0,0-.906.011.645.645,0,0,0-.173.069.447.447,0,0,1-.146.058h-.754c-.078,0-.091-.017-.116-.047a.336.336,0,0,0-.037-.04.65.65,0,0,0-.331-.042c.457-.445,1.016-.986,1.065-1.021a1.357,1.357,0,0,0,.331-.357.708.708,0,0,0,.1-.276.519.519,0,0,1,.089-.242,1.153,1.153,0,0,0,.3-.715,3.552,3.552,0,0,1,.692-1.052c.093-.114.166-.2.2-.259a2.779,2.779,0,0,1,.346-.37,1.113,1.113,0,0,0,.133-.138l.618-.37s.318-.205.462-.049l.07.078c.1.107.116.129.22.115l.033,0a.5.5,0,0,0,.322-.155,2.207,2.207,0,0,1,.553,0,.483.483,0,0,1,.324.308c.008.022.015.046.023.071a.5.5,0,0,0,.124.241.261.261,0,0,0,.223.064.18.18,0,0,0,.129-.111c.038-.094.09-.092.131-.09l.666.005h.016l.014-.008a.37.37,0,0,0,.167-.167c.028-.052.036-.062.066-.067a.22.22,0,0,1,.218.117l.018.023a.312.312,0,0,0,.382.021.238.238,0,0,0,.086-.168.219.219,0,0,1,.085-.094c.047-.032.087-.038.164.021.009.007.021.018.033.029.057.052.134.123.221.1a.256.256,0,0,1,.167.036.15.15,0,0,1,.068.112,1.09,1.09,0,0,0,.254.5,1.623,1.623,0,0,1,.022.44c0,.049,0,.092,0,.127a1.281,1.281,0,0,0,.239.905c.221.216.307.264.481.27h.031c.057,0,.136,0,.154.033.008.013.026.068-.061.244a1.138,1.138,0,0,0-.085.911l.008.039a2.33,2.33,0,0,0,.219.573,3.179,3.179,0,0,0,.209.337c.03.044.061.089.09.133a.453.453,0,0,0,.309.209A.72.72,0,0,0,62.051,69a4.591,4.591,0,0,0,.548-.233l.762-.408a.308.308,0,0,1,.379.111c.17.229.253.251.368.262l.041,0c.121.017.246.074.251.1,0,0,0,.034-.114.093a1.328,1.328,0,0,1-.281.107c-.113.032-.211.06-.258.188a1.5,1.5,0,0,0,.027.651A1.18,1.18,0,0,0,63.06,70.187Zm6.384-2.529a4.452,4.452,0,0,0-1.411,1.131.477.477,0,0,0-.006.217.537.537,0,0,1-.054.4c-.072.08-.221.1-.438.069a7.019,7.019,0,0,1-1.067-.232.367.367,0,0,0-.24-.4c-.235-.056-.354.055-.354.315,0,.086-.089.129-.265.129-.044,0-.091,0-.157-.009-.088,0-.135.084-.173.152-.016.028-.045.081-.061.086-.087.021-.136-.134-.172-.236-.011-.03-.021-.059-.031-.082L65,69.162l-.033-.007a.885.885,0,0,0-.156-.016.194.194,0,0,0-.172.063.12.12,0,0,0-.009.117.712.712,0,0,0,.089.148.379.379,0,0,1,.09.175c0,.141-.077.141-.1.141a.224.224,0,0,1-.152-.069c-.015-.017-.017-.028-.017-.03a.438.438,0,0,0-.007-.276c-.024-.085-.046-.111-.071-.123a.282.282,0,0,0-.109-.019c-.116,0-.192.053-.2.142a1.38,1.38,0,0,0,0,.185,1.164,1.164,0,0,1,0,.192.651.651,0,0,1-.237.078,1.409,1.409,0,0,1-.036-.594c.023-.062.059-.075.17-.106a1.427,1.427,0,0,0,.307-.118c.05-.027.2-.108.182-.231-.028-.162-.348-.21-.362-.212L64.12,68.6c-.077-.007-.127-.011-.275-.209a.482.482,0,0,0-.134-.124l.206-.056a11.846,11.846,0,0,1,1.667-.376,6.1,6.1,0,0,0,1.14-.267l.141-.044a1.762,1.762,0,0,0,.76-.376,1,1,0,0,0,.224-.576c.006-.034.011-.068.017-.1s.011-.069.015-.1a.51.51,0,0,1,.112-.313,2.562,2.562,0,0,0,.3-.347l.013-.017.022-.031a2.047,2.047,0,0,1,.323.393c.02.128.26.392.389.4l.618.029a.358.358,0,0,0-.018.1c0,.051,0,.115.007.187C69.657,67.074,69.683,67.6,69.445,67.658Zm2.263-4.474a5.379,5.379,0,0,0-.8,1.328c0,.036-.006.071-.008.1a.565.565,0,0,1-.2.465,6.085,6.085,0,0,0-.99,1.266l-.661-.031a.634.634,0,0,1-.267-.289,1.878,1.878,0,0,0-.4-.506.131.131,0,0,0,0-.016,3.34,3.34,0,0,1,.275-.9,2.569,2.569,0,0,1,.521-.188c.161-.02.44-.828.44-.972a.276.276,0,0,1,.132-.25c.083-.05.158-.428.161-.444A.641.641,0,0,0,69.9,62.3a3.1,3.1,0,0,1-.18-.261l-.011-.018c-.021-.034-.045-.074-.038-.1a.159.159,0,0,1,.075-.08.351.351,0,0,0,.182-.247.267.267,0,0,0-.058-.239,1.329,1.329,0,0,1-.219-.293c-.025-.052.009-.1.1-.184.018-.017.035-.034.05-.05s.02-.023.032-.038a.361.361,0,0,1,.068-.073c.028-.01.042-.032.08-.089.063-.1.217-.32.351-.311a1.009,1.009,0,0,0,.254-.027c.186-.036.3-.052.4.072a2.328,2.328,0,0,0,.921.8,2.259,2.259,0,0,0-.065.546A4.932,4.932,0,0,1,71.708,63.185Zm3.675-13.718a5.365,5.365,0,0,0-.468,1.091,4.2,4.2,0,0,1-.788.964.515.515,0,0,0-.046.036.5.5,0,0,1-.236.132c-.017,0-.068,0-.1-.128a.991.991,0,0,1-.032-.314.187.187,0,0,0-.033-.15.213.213,0,0,0-.162-.044c-.242,0-.244.288-.246.52,0,.063,0,.124-.005.177-.022.238-.033,2.99-.033,3.108a23.085,23.085,0,0,1-.074,2.54,5.008,5.008,0,0,0-.505,1.286c0,.19.018,1.071.022,1.216-.075.114-.482.735-.6.936-.018.029-.034.055-.05.079-.027.043-.052.082-.074.124a2.041,2.041,0,0,1-.866-.75.348.348,0,0,0-.2-.137,2.446,2.446,0,0,0,.007-.525.81.81,0,0,0-.169-.28,1.226,1.226,0,0,1-.1-.138.441.441,0,0,1,.011-.423.379.379,0,0,1,.292-.234c.162-.02.167-.538.167-.6,0-.227.1-.262.193-.278a.506.506,0,0,0,.381-.379c.039-.186-.124-.382-.267-.513a2.164,2.164,0,0,1-.271-.333c-.034-.062-.135-.088-.617-.065-.022,0-.037,0-.035,0a.362.362,0,0,1-.043-.043.8.8,0,0,0-.11-.105.57.57,0,0,0-.36-.056c-.079,0-.17,0-.275,0a.835.835,0,0,1-.58-.4c-.015-.026-.034-.062-.056-.1a2.754,2.754,0,0,0-.312-.509c-.085-.084-.269-.08-.518-.067a1.456,1.456,0,0,1-.185,0,.736.736,0,0,1-.39-.131,2.081,2.081,0,0,0-.731-.378,1.24,1.24,0,0,1-.392-.243l-.028-.021a.484.484,0,0,0-.279-.068.217.217,0,0,0-.144.039.149.149,0,0,0-.045.077.077.077,0,0,1-.006.017c-.049.061-.207.044-.311.032l-.073-.007c-.133-.009-.153-.084-.186-.254-.005-.026-.01-.053-.017-.081-.056-.255-.638-.6-.644-.6a.362.362,0,0,0-.3,0,.307.307,0,0,0-.19.2.872.872,0,0,1-.517.44,4.07,4.07,0,0,0-.972.551,6.967,6.967,0,0,1-.6.366.147.147,0,0,1-.132.008c-.042-.023-.1-.092-.126-.293-.01-.072,0-.374,0-.64a5.938,5.938,0,0,0,0-.617c-.027-.132-.178-.241-.286-.315a8.653,8.653,0,0,1-.04-1.533h0v-.479l-.017-.019s-.13-.141-.195-.216a2.19,2.19,0,0,1-.062-.6.4.4,0,0,0-.046-.179c-.024-.062-.087-.228-.066-.261a.284.284,0,0,1,.19-.041l.024,0,.02-.012c.019-.011.183-.114.2-.249a.188.188,0,0,0-.067-.161l-.061-.056a.622.622,0,0,1-.112-.115l-.064-.013.073,0a.328.328,0,0,0,.042-.278.275.275,0,0,0-.2-.14,1,1,0,0,0-.232-.031c-.052,0-.052,0-.092-.054-.081-.109-.147-.42-.031-.524a2.135,2.135,0,0,0,.354-.512,4.018,4.018,0,0,1,.447-.664c.1-.015.156-.193.166-.29a.329.329,0,0,0-.014-.133.663.663,0,0,1,.321-.086c.063.051.5.557.785.884a.718.718,0,0,0,.538.22,1.032,1.032,0,0,0,.331-.058c.47-.159,1.641-1,1.629-1.213,0-.021,0-.051,0-.087-.005-.295-.022-.619-.159-.739a.631.631,0,0,1-.173-.357.079.079,0,0,1,.012-.054c.038-.038.379-.37.61-.263.254.116.543.258.549.26a1.465,1.465,0,0,0,1.225-.135,3.35,3.35,0,0,1,.683-.364.964.964,0,0,0,.223-.112c.082-.062.421-.352.709-.6.212-.014.521.006.587.1a2.416,2.416,0,0,0,.172.2c.087.094.22.236.22.288a.517.517,0,0,1-.027.122.3.3,0,0,0-.011.234.129.129,0,0,0,.092.058l.042.007a.692.692,0,0,0,.663-.127c.057-.064.1-.123.142-.175.091-.119.138-.177.222-.188a1.042,1.042,0,0,1,.128-.006c.1,0,.233,0,.246-.143.033-.357.118-.484.186-.484a.438.438,0,0,0,.387-.277.41.41,0,0,0,.026-.071c0-.01.007-.022,0-.024h.034a1.138,1.138,0,0,1,.414.029.242.242,0,0,0,.167.195,3.1,3.1,0,0,0,.361.09,1.236,1.236,0,0,1,.151.141.409.409,0,0,0,.272.225.479.479,0,0,0,.072-.01c.141-.026.226-.026.248.046a.959.959,0,0,0,.265.443.623.623,0,0,1,.224.377c.011.185.053.577.055.593l.006.021a1.621,1.621,0,0,0,.128.232c.034.042.145.225.185.291l.017.019a.355.355,0,0,1,.133.211.187.187,0,0,1-.072.147.487.487,0,0,0-.191.341A.25.25,0,0,0,74.8,47a.371.371,0,0,1,.087.207.045.045,0,0,1-.021.033c-.134.092-.465.271-.468.273-.256.141-.235.222-.229.249.015.061.741,1.06,1,1.119l.446.1C75.542,49.137,75.462,49.3,75.383,49.466Zm.368-.78c-.024.055-.05.113-.078.173l-.474-.109a4.382,4.382,0,0,1-.9-1.012.726.726,0,0,1,.158-.113c.014-.007.34-.185.48-.28a.176.176,0,0,0,.077-.122.488.488,0,0,0-.121-.316.131.131,0,0,1-.046-.1A.377.377,0,0,1,75,46.567a.314.314,0,0,0,.114-.25.465.465,0,0,0-.174-.3c-.031-.051-.147-.244-.189-.3a1.437,1.437,0,0,1-.108-.2c0-.029-.012-.111-.021-.208a.641.641,0,0,1,.3.162.478.478,0,0,0,.4.159.591.591,0,0,1,.227.119l.051.035a1.573,1.573,0,0,0,.4.128A11.72,11.72,0,0,1,77.1,46.954,10.3,10.3,0,0,0,75.751,48.687Zm3.2-3.75c-.007.05-.135.247-.9,1l-.061.06c-.008.008-.369.384-.8.863a8.533,8.533,0,0,0-1.164-1.07,1.5,1.5,0,0,1-.361-.111l-.044-.031a.626.626,0,0,0-.3-.143.349.349,0,0,1-.3-.118.805.805,0,0,0-.405-.21c-.008-.085-.015-.169-.019-.23a.576.576,0,0,0-.091-.261A2.377,2.377,0,0,1,75.2,44.3h.006a1.329,1.329,0,0,1,.495.187,1.292,1.292,0,0,1,.171.122.781.781,0,0,0,.375.2,3.342,3.342,0,0,0,.364.017c.084,0,.169,0,.252,0l.237,0a.551.551,0,0,0,.49-.25c.028-.032.056-.064.085-.091a5.019,5.019,0,0,1,.421-.364l.022-.018a.363.363,0,0,1,.076-.052c.068.006.781.032,1.04.042A4.962,4.962,0,0,0,78.949,44.937Zm.542-1.444c-.061.131-.132.3-.2.468-.372-.013-1.021-.038-1.08-.043a.277.277,0,0,0-.171.081l-.018.014a5.134,5.134,0,0,0-.432.373c-.032.03-.062.065-.093.1a.431.431,0,0,1-.385.206c-.081,0-.163,0-.246,0a4.669,4.669,0,0,1-.6-.013.7.7,0,0,1-.307-.174,1.394,1.394,0,0,0-.19-.134,1.431,1.431,0,0,0-.547-.2,2.318,2.318,0,0,0-.8.408.681.681,0,0,0-.111-.108.858.858,0,0,1-.216-.375c-.061-.2-.3-.156-.4-.137a.37.37,0,0,1-.047.008.381.381,0,0,1-.145-.125c0-.016-.016-.065-.208-.221l-.028-.013a3.13,3.13,0,0,1-.358-.088c-.057-.027-.082-.046-.082-.088a.1.1,0,0,0-.031-.072c-.059-.058-.2-.078-.516-.071h-.032c-.094,0-.117.077-.129.119a.286.286,0,0,1-.017.049.317.317,0,0,1-.269.2c-.173,0-.279.2-.317.6,0,.016,0,.023-.116.024a1.157,1.157,0,0,0-.144.007c-.142.018-.216.115-.31.238-.038.049-.081.106-.135.167-.143.16-.4.111-.541.085l-.047-.005a.381.381,0,0,1,.025-.128.6.6,0,0,0,.032-.159c0-.1-.1-.207-.255-.377a2.451,2.451,0,0,1-.162-.186c-.092-.126-.351-.152-.537-.153l.281-.244c1.164-1.254,1.129-1.351,1.114-1.393s-.02-.06-.029-.091a1.26,1.26,0,0,0-.053-.153.3.3,0,0,0-.08-.12.37.37,0,0,0-.046-.031c-.026-.015-.035-.022-.04-.035a.329.329,0,0,1-.009-.122v-.044a.933.933,0,0,1,.082-.445.15.15,0,0,1,.029-.035.2.2,0,0,0,.047.112.284.284,0,0,0,.236.038c.075-.009.13-.013.146.013a.323.323,0,0,0,.214.137.437.437,0,0,0,.339-.057l.039-.027c.12-.085.155-.1.187-.081s.126.106.235.2a3.726,3.726,0,0,0,.733.583,1.079,1.079,0,0,0,.239.029.552.552,0,0,0,.377-.13c.234.018.6.046.648.039a.207.207,0,0,0,.113-.081.223.223,0,0,1,.034-.035.139.139,0,0,1,.12.006.089.089,0,0,1,.042.082.138.138,0,0,0,.084.132.389.389,0,0,0,.333-.086c.114-.109.232-.222.354-.325l.016-.013a1.03,1.03,0,0,1,.141-.106,1.249,1.249,0,0,1,.147-.069,1.071,1.071,0,0,0,.205-.1.41.41,0,0,0,.1-.1c.011-.015.022-.029.035-.044a.4.4,0,0,1,.313-.039c.041.013.064.032.067.056a.9.9,0,0,1-.092.509s-.357.416-.3.582a.613.613,0,0,0,.128.18c.057.065.135.153.135.2a.411.411,0,0,0,.16.312.259.259,0,0,0,.149.048A.3.3,0,0,0,76.4,43a1.18,1.18,0,0,0,.442-.459l.008-.032s.007-.284.16-.3a3.085,3.085,0,0,1,.331-.01h.065c.159,0,.318,0,.477.005l.043,0a.288.288,0,0,0,.233-.062c.03-.026.061-.051.091-.076a1.35,1.35,0,0,0,.289-.288L78.6,41.7a1.529,1.529,0,0,1,.153-.213c.021-.023.059-.066.084-.066l.845.007A9.235,9.235,0,0,1,79.49,43.493Z" transform="translate(-15.015 -19.803)"/></g></g></g></svg>